%TF.GenerationSoftware,KiCad,Pcbnew,(6.0.9)*%
%TF.CreationDate,2024-05-17T13:50:49+01:00*%
%TF.ProjectId,Controller,436f6e74-726f-46c6-9c65-722e6b696361,rev?*%
%TF.SameCoordinates,Original*%
%TF.FileFunction,Copper,L2,Bot*%
%TF.FilePolarity,Positive*%
%FSLAX46Y46*%
G04 Gerber Fmt 4.6, Leading zero omitted, Abs format (unit mm)*
G04 Created by KiCad (PCBNEW (6.0.9)) date 2024-05-17 13:50:49*
%MOMM*%
%LPD*%
G01*
G04 APERTURE LIST*
G04 Aperture macros list*
%AMRoundRect*
0 Rectangle with rounded corners*
0 $1 Rounding radius*
0 $2 $3 $4 $5 $6 $7 $8 $9 X,Y pos of 4 corners*
0 Add a 4 corners polygon primitive as box body*
4,1,4,$2,$3,$4,$5,$6,$7,$8,$9,$2,$3,0*
0 Add four circle primitives for the rounded corners*
1,1,$1+$1,$2,$3*
1,1,$1+$1,$4,$5*
1,1,$1+$1,$6,$7*
1,1,$1+$1,$8,$9*
0 Add four rect primitives between the rounded corners*
20,1,$1+$1,$2,$3,$4,$5,0*
20,1,$1+$1,$4,$5,$6,$7,0*
20,1,$1+$1,$6,$7,$8,$9,0*
20,1,$1+$1,$8,$9,$2,$3,0*%
G04 Aperture macros list end*
%TA.AperFunction,ConnectorPad*%
%ADD10C,5.700000*%
%TD*%
%TA.AperFunction,ComponentPad*%
%ADD11C,3.600000*%
%TD*%
%TA.AperFunction,ComponentPad*%
%ADD12R,2.775000X2.775000*%
%TD*%
%TA.AperFunction,ComponentPad*%
%ADD13C,2.775000*%
%TD*%
%TA.AperFunction,ComponentPad*%
%ADD14C,1.950000*%
%TD*%
%TA.AperFunction,ComponentPad*%
%ADD15C,1.800000*%
%TD*%
%TA.AperFunction,ComponentPad*%
%ADD16C,4.050000*%
%TD*%
%TA.AperFunction,SMDPad,CuDef*%
%ADD17R,1.650000X5.600000*%
%TD*%
%TA.AperFunction,ComponentPad*%
%ADD18R,3.000000X3.000000*%
%TD*%
%TA.AperFunction,ComponentPad*%
%ADD19C,3.000000*%
%TD*%
%TA.AperFunction,ComponentPad*%
%ADD20R,1.050000X1.050000*%
%TD*%
%TA.AperFunction,ComponentPad*%
%ADD21C,1.050000*%
%TD*%
%TA.AperFunction,ComponentPad*%
%ADD22R,1.800000X1.800000*%
%TD*%
%TA.AperFunction,ComponentPad*%
%ADD23RoundRect,0.750000X0.750000X-1.250000X0.750000X1.250000X-0.750000X1.250000X-0.750000X-1.250000X0*%
%TD*%
%TA.AperFunction,ViaPad*%
%ADD24C,0.500000*%
%TD*%
%TA.AperFunction,Conductor*%
%ADD25C,0.250000*%
%TD*%
%TA.AperFunction,Conductor*%
%ADD26C,0.500000*%
%TD*%
%TA.AperFunction,Conductor*%
%ADD27C,0.600000*%
%TD*%
G04 APERTURE END LIST*
D10*
%TO.P,H2,1,1*%
%TO.N,GND*%
X235090000Y-39630000D03*
D11*
X235090000Y-39630000D03*
%TD*%
D12*
%TO.P,S3,1*%
%TO.N,/VDDS*%
X104000000Y-39300000D03*
D13*
%TO.P,S3,2*%
%TO.N,Net-(R8-Pad1)*%
X104000000Y-44000000D03*
%TO.P,S3,3*%
%TO.N,Net-(R12-Pad1)*%
X104000000Y-48700000D03*
%TD*%
D12*
%TO.P,S4,1*%
%TO.N,/VDDS*%
X224000000Y-39300000D03*
D13*
%TO.P,S4,2*%
%TO.N,Net-(R9-Pad1)*%
X224000000Y-44000000D03*
%TO.P,S4,3*%
%TO.N,Net-(R14-Pad1)*%
X224000000Y-48700000D03*
%TD*%
D10*
%TO.P,H4,1,1*%
%TO.N,GND*%
X91970000Y-38860000D03*
D11*
X91970000Y-38860000D03*
%TD*%
D14*
%TO.P,J1,1*%
%TO.N,+6V*%
X107830000Y-105370000D03*
%TO.P,J1,2*%
%TO.N,GND*%
X112830000Y-105370000D03*
%TD*%
D11*
%TO.P,H5,1,1*%
%TO.N,GND*%
X161880000Y-121550000D03*
D10*
X161880000Y-121550000D03*
%TD*%
D15*
%TO.P,21111111,1,VSS*%
%TO.N,GND*%
X131500000Y-79255000D03*
%TO.P,21111111,2,VDD*%
%TO.N,+5V*%
X134040000Y-79255000D03*
%TO.P,21111111,3,VO*%
%TO.N,Net-(21111111-Pad3)*%
X136580000Y-79255000D03*
%TO.P,21111111,4,RS*%
%TO.N,/DIO_8*%
X139120000Y-79255000D03*
%TO.P,21111111,5,R/~{W}*%
%TO.N,/DIO_9*%
X141660000Y-79255000D03*
%TO.P,21111111,6,E*%
%TO.N,/DIO_10*%
X144200000Y-79255000D03*
%TO.P,21111111,7,DB0*%
%TO.N,/DIO_11*%
X146740000Y-79255000D03*
%TO.P,21111111,8,DB1*%
%TO.N,/DIO_12*%
X149280000Y-79255000D03*
%TO.P,21111111,9,DB2*%
%TO.N,/DIO_13*%
X151820000Y-79255000D03*
%TO.P,21111111,10,DB3*%
%TO.N,/DIO_14*%
X154360000Y-79255000D03*
%TO.P,21111111,11,DB4*%
%TO.N,/DIO_15*%
X156900000Y-79255000D03*
%TO.P,21111111,12,DB5*%
%TO.N,/DIO_19*%
X159440000Y-79255000D03*
%TO.P,21111111,13,DB6*%
%TO.N,/DIO_20*%
X161980000Y-79255000D03*
%TO.P,21111111,14,DB7*%
%TO.N,/DIO_21*%
X164520000Y-79255000D03*
%TO.P,21111111,15,A*%
%TO.N,Net-(21111111-Pad15)*%
X167060000Y-79255000D03*
%TO.P,21111111,16,K*%
%TO.N,GND*%
X169600000Y-79255000D03*
D16*
%TO.P,21111111,MH1,MH1*%
X126500000Y-79755000D03*
%TO.P,21111111,MH2,MH2*%
X126500000Y-110755000D03*
%TO.P,21111111,MH3,MH3*%
X201500000Y-79755000D03*
%TO.P,21111111,MH4,MH4*%
X201500000Y-110755000D03*
%TD*%
D17*
%TO.P,J3,4*%
%TO.N,GND*%
X167545000Y-35650000D03*
%TO.P,J3,5*%
X159295000Y-35650000D03*
%TD*%
D18*
%TO.P,RV3,1,1*%
%TO.N,/VDDS*%
X224000000Y-58000000D03*
D19*
%TO.P,RV3,2,2*%
%TO.N,Net-(R10-Pad1)*%
X224000000Y-63000000D03*
%TO.P,RV3,3,3*%
%TO.N,GND*%
X224000000Y-68000000D03*
%TD*%
D18*
%TO.P,RV2,1,1*%
%TO.N,/VDDS*%
X104000000Y-68000000D03*
D19*
%TO.P,RV2,2,2*%
%TO.N,Net-(R11-Pad1)*%
X104000000Y-63000000D03*
%TO.P,RV2,3,3*%
%TO.N,GND*%
X104000000Y-58000000D03*
%TD*%
D20*
%TO.P,J2,1,1*%
%TO.N,/VDDS*%
X129015000Y-47860000D03*
D21*
%TO.P,J2,2,2*%
%TO.N,/JTAG_TMSC*%
X130285000Y-47860000D03*
%TO.P,J2,3,3*%
%TO.N,GND*%
X129015000Y-49130000D03*
%TO.P,J2,4,4*%
%TO.N,/JTAG_TCKC*%
X130285000Y-49130000D03*
%TO.P,J2,5,5*%
%TO.N,/DIO_18_RTS{slash}SWO*%
X129015000Y-50400000D03*
%TO.P,J2,6,6*%
%TO.N,/DIO_17_TDI*%
X130285000Y-50400000D03*
%TO.P,J2,7,7*%
%TO.N,/DIO_3_TXD*%
X129015000Y-51670000D03*
%TO.P,J2,8,8*%
%TO.N,/DIO_16_TDO*%
X130285000Y-51670000D03*
%TO.P,J2,9,9*%
%TO.N,/DIO_2_RXD*%
X129015000Y-52940000D03*
%TO.P,J2,10,10*%
%TO.N,/RESET_N*%
X130285000Y-52940000D03*
%TD*%
D10*
%TO.P,H1,1,1*%
%TO.N,GND*%
X90960000Y-121050000D03*
D11*
X90960000Y-121050000D03*
%TD*%
D22*
%TO.P,RV1,1,1*%
%TO.N,+5V*%
X129450000Y-72200000D03*
D15*
%TO.P,RV1,2,2*%
%TO.N,Net-(21111111-Pad3)*%
X131950000Y-72200000D03*
%TO.P,RV1,3,3*%
%TO.N,GND*%
X134450000Y-72200000D03*
D23*
%TO.P,RV1,MP*%
%TO.N,N/C*%
X136350000Y-65200000D03*
X127550000Y-65200000D03*
%TD*%
D11*
%TO.P,H3,1,1*%
%TO.N,GND*%
X234450000Y-121050000D03*
D10*
X234450000Y-121050000D03*
%TD*%
D24*
%TO.N,GND*%
X238260000Y-43530850D03*
X238260000Y-44645075D03*
X238260000Y-51330425D03*
X238260000Y-46873525D03*
X238260000Y-54673100D03*
X238260000Y-58015775D03*
X238260000Y-50216200D03*
X238260000Y-56901550D03*
X238260000Y-49101975D03*
X238260000Y-45759300D03*
X238260000Y-52444650D03*
X238260000Y-53558875D03*
X238260000Y-47987750D03*
X238260000Y-59130000D03*
X238260000Y-55787325D03*
X130430000Y-100890000D03*
X141260000Y-51660000D03*
X181990000Y-66140000D03*
X201100000Y-86785000D03*
X232840000Y-60120000D03*
X186520000Y-76070000D03*
X182966125Y-34260000D03*
X185910000Y-36670000D03*
X119327050Y-34260000D03*
X203062675Y-34260000D03*
X120156800Y-125240000D03*
X167890000Y-42700000D03*
X88040000Y-101728575D03*
X159760000Y-47360000D03*
X159710000Y-51060000D03*
X238130000Y-101578450D03*
X98943775Y-125240000D03*
X129088600Y-125240000D03*
X235580000Y-118590000D03*
X156930000Y-35580000D03*
X146122450Y-34260000D03*
X144200000Y-46190000D03*
X196360000Y-59555000D03*
X117520000Y-66470000D03*
X228741600Y-34260000D03*
X230974550Y-34260000D03*
X112250000Y-49770000D03*
X138307125Y-34260000D03*
X170398175Y-125240000D03*
X98114025Y-34260000D03*
X98160000Y-36150000D03*
X130205075Y-125240000D03*
X238130000Y-99350000D03*
X143889500Y-34260000D03*
X94580000Y-73640000D03*
X88040000Y-89472100D03*
X95430000Y-89000000D03*
X206990000Y-69050000D03*
X105300000Y-55640000D03*
X236090525Y-34320000D03*
X125160000Y-51750000D03*
X233830000Y-110090000D03*
X116690000Y-49770000D03*
X228260000Y-97520000D03*
X168260000Y-87470000D03*
X100060250Y-125240000D03*
X98260000Y-110670000D03*
X163820000Y-87470000D03*
X232840000Y-64560000D03*
X169520000Y-36730000D03*
X196360000Y-56047500D03*
X146952200Y-125240000D03*
X238130000Y-78584650D03*
X238240000Y-109423100D03*
X160913333Y-48593333D03*
X238240000Y-107194650D03*
X176830000Y-90005000D03*
X199800000Y-118450000D03*
X210750000Y-81950000D03*
X102230000Y-117950000D03*
X219809800Y-34260000D03*
X160923333Y-47360000D03*
X238130000Y-73013525D03*
X206750000Y-81770000D03*
X88040000Y-81672525D03*
X165490000Y-36850000D03*
X185590000Y-118370000D03*
X88040000Y-71644500D03*
X176830000Y-82995000D03*
X87790000Y-38804225D03*
X208790000Y-115900000D03*
X238420000Y-124650000D03*
X220926275Y-34260000D03*
X125739175Y-125240000D03*
X168720000Y-111830000D03*
X112341475Y-125240000D03*
X147238925Y-34260000D03*
X148355400Y-34260000D03*
X210830000Y-56380000D03*
X88895500Y-125240000D03*
X150550000Y-106620000D03*
X215343900Y-34260000D03*
X220981725Y-125270000D03*
X238130000Y-93778875D03*
X88040000Y-78329850D03*
X88040000Y-93929000D03*
X105642625Y-125240000D03*
X213110000Y-76800000D03*
X190850000Y-94300000D03*
X95910000Y-101860000D03*
X127972125Y-125240000D03*
X210830000Y-38510000D03*
X221530000Y-122090000D03*
X204430000Y-122310000D03*
X233670000Y-95990000D03*
X217470000Y-86970000D03*
X137100000Y-51660000D03*
X166940000Y-58670000D03*
X132438025Y-125240000D03*
X90011975Y-125240000D03*
X210830000Y-59570000D03*
X92760000Y-98300000D03*
X215950000Y-69470000D03*
X238130000Y-86384225D03*
X112600000Y-63390000D03*
X123506225Y-125240000D03*
X106759100Y-125240000D03*
X238130000Y-77470425D03*
X163240000Y-49826666D03*
X156170725Y-34260000D03*
X118850000Y-101560000D03*
X238260000Y-115995775D03*
X155770000Y-53720000D03*
X98340000Y-73280000D03*
X125370000Y-47020000D03*
X171514650Y-125240000D03*
X203890000Y-115900000D03*
X238130000Y-84155775D03*
X173280000Y-37690000D03*
X238130000Y-74127750D03*
X192180000Y-106420000D03*
X88040000Y-59388025D03*
X236410000Y-110260000D03*
X181562925Y-125240000D03*
X154767525Y-125240000D03*
X238130000Y-66328175D03*
X88040000Y-80558300D03*
X88040000Y-44903100D03*
X144930000Y-87630000D03*
X88020000Y-43449975D03*
X130630000Y-90210000D03*
X206412100Y-34260000D03*
X88040000Y-91700550D03*
X195690000Y-97450000D03*
X211657500Y-106900000D03*
X181730000Y-86512500D03*
X88040000Y-56045350D03*
X144850000Y-40210000D03*
X234379425Y-125270000D03*
X135330000Y-92840000D03*
X168520000Y-48229500D03*
X106250000Y-41910000D03*
X239440000Y-34320000D03*
X112628200Y-34260000D03*
X94470000Y-77920000D03*
X163200000Y-51060000D03*
X216380000Y-73410000D03*
X155340000Y-35320000D03*
X153937775Y-34260000D03*
X175890000Y-58830000D03*
X191611200Y-125240000D03*
X238240000Y-111651550D03*
X113744675Y-34260000D03*
X144719250Y-125240000D03*
X102579925Y-34260000D03*
X104260000Y-82950000D03*
X125140000Y-40280000D03*
X236410000Y-105020000D03*
X232840000Y-54880000D03*
X168165225Y-125240000D03*
X199426525Y-125240000D03*
X205590000Y-52700000D03*
X131659647Y-56060353D03*
X140410000Y-40210000D03*
X107830000Y-66470000D03*
X209761525Y-34260000D03*
X128620000Y-69290000D03*
X88040000Y-82786750D03*
X101463450Y-34260000D03*
X107190000Y-53740000D03*
X128170000Y-57010000D03*
X211500000Y-101580000D03*
X202775950Y-125240000D03*
X238130000Y-87498450D03*
X88040000Y-118441950D03*
X196200000Y-68975000D03*
X194640000Y-115820000D03*
X177383750Y-34260000D03*
X196077100Y-125240000D03*
X190910000Y-100780000D03*
X110395250Y-34260000D03*
X108162300Y-34260000D03*
X107045825Y-34260000D03*
X238130000Y-76356200D03*
X95490000Y-85850000D03*
X210380000Y-87640000D03*
X238130000Y-70785075D03*
X238130000Y-75241975D03*
X228910000Y-78920000D03*
X88040000Y-79444075D03*
X145835725Y-125240000D03*
X157770000Y-116030000D03*
X154670000Y-109200000D03*
X148000000Y-118660000D03*
X215950000Y-80070000D03*
X130100000Y-57980000D03*
X205590000Y-38510000D03*
X133554500Y-125240000D03*
X222042750Y-34260000D03*
X182420000Y-121880000D03*
X235495900Y-125270000D03*
X238240000Y-104966200D03*
X88722375Y-34340000D03*
X159110000Y-92840000D03*
X122280000Y-58430000D03*
X196360000Y-42017500D03*
X88040000Y-109528150D03*
X207584025Y-125270000D03*
X117390000Y-63390000D03*
X140490000Y-87630000D03*
X227680575Y-125270000D03*
X165740000Y-40390000D03*
X152534575Y-125240000D03*
X207060000Y-122090000D03*
X177200000Y-66140000D03*
X142486300Y-125240000D03*
X139136875Y-125240000D03*
X199640000Y-122310000D03*
X196200000Y-86845000D03*
X159910000Y-63450000D03*
X88040000Y-99500125D03*
X238130000Y-71899300D03*
X196150000Y-100780000D03*
X140410000Y-123940000D03*
X121510000Y-71920000D03*
X235580000Y-59960000D03*
X114574425Y-125240000D03*
X182950000Y-109280000D03*
X111980000Y-53740000D03*
X88040000Y-70530275D03*
X214790000Y-95200000D03*
X229510000Y-124570000D03*
X117094100Y-34260000D03*
X135910000Y-109200000D03*
X193844150Y-125240000D03*
X117340000Y-74730000D03*
X210830000Y-45830000D03*
X109278775Y-34260000D03*
X227960000Y-101580000D03*
X238130000Y-96007325D03*
X162036666Y-51060000D03*
X96710825Y-125240000D03*
X111150000Y-41910000D03*
X154340000Y-81500000D03*
X135710000Y-111830000D03*
X155884000Y-125240000D03*
X165410000Y-44720000D03*
X214245000Y-110680000D03*
X210830000Y-49270000D03*
X186315550Y-34260000D03*
X191250000Y-97450000D03*
X220370000Y-78620000D03*
X215730000Y-56320000D03*
X122030000Y-60850000D03*
X88040000Y-111756600D03*
X164815800Y-125240000D03*
X238130000Y-67442400D03*
X196200000Y-76295000D03*
X143050000Y-35280000D03*
X198596775Y-34260000D03*
X206020000Y-94540000D03*
X116807375Y-125240000D03*
X88040000Y-110642375D03*
X237207000Y-34320000D03*
X163520000Y-64690000D03*
X113460000Y-47990000D03*
X165870000Y-42630000D03*
X210933450Y-125270000D03*
X235580000Y-64400000D03*
X201150000Y-59625000D03*
X137950000Y-35550000D03*
X224275700Y-34260000D03*
X120380000Y-41910000D03*
X174420000Y-49640000D03*
X112280000Y-71920000D03*
X233670000Y-100890000D03*
X159490000Y-111830000D03*
X223260000Y-118160000D03*
X228750000Y-110680000D03*
X190830000Y-118370000D03*
X160873333Y-51060000D03*
X101176725Y-125240000D03*
X209410000Y-110680000D03*
X124480000Y-56960000D03*
X177097025Y-125240000D03*
X186460000Y-83110000D03*
X206750000Y-36030000D03*
X233670000Y-81520000D03*
X142773025Y-34260000D03*
X185860000Y-42160000D03*
X107740000Y-69280000D03*
X161180000Y-34190000D03*
X124760000Y-59980000D03*
X132730000Y-61050000D03*
X105929350Y-34260000D03*
X219623332Y-99550000D03*
X135787450Y-125240000D03*
X96810000Y-118150000D03*
X174034325Y-34260000D03*
X235580000Y-69190000D03*
X238073525Y-125270000D03*
X104020000Y-98560000D03*
X103780000Y-87100000D03*
X120443525Y-34260000D03*
X229858075Y-34260000D03*
X185199075Y-34260000D03*
X95850000Y-105010000D03*
X149800000Y-92840000D03*
X238130000Y-69670850D03*
X123490000Y-83460000D03*
X186520000Y-72705000D03*
X159030000Y-87470000D03*
X164750000Y-43080000D03*
X166870000Y-40650000D03*
X110108525Y-125240000D03*
X122389750Y-125240000D03*
X183890000Y-50510000D03*
X149185150Y-125240000D03*
X156990000Y-37560000D03*
X190830000Y-116110000D03*
X233857575Y-34320000D03*
X95320000Y-93280000D03*
X152900000Y-118660000D03*
X135530000Y-98260000D03*
X137190650Y-34260000D03*
X222773332Y-97520000D03*
X157000475Y-125240000D03*
X227800000Y-104370000D03*
X172631125Y-125240000D03*
X229330000Y-36720000D03*
X215730000Y-59430000D03*
X206990000Y-77650000D03*
X94220000Y-55970000D03*
X159570000Y-109200000D03*
X238130000Y-88612675D03*
X125830000Y-85880000D03*
X235390000Y-46650000D03*
X88040000Y-77215625D03*
X88040000Y-98385900D03*
X168420000Y-90210000D03*
X192180000Y-111540000D03*
X233520000Y-124650000D03*
X180733175Y-34260000D03*
X147330000Y-35880000D03*
X159750000Y-48593333D03*
X136080000Y-106620000D03*
X121310000Y-89680000D03*
X191460000Y-59540000D03*
X215730000Y-46130000D03*
X208645050Y-34260000D03*
X100840000Y-77970000D03*
X190960000Y-76135000D03*
X119040325Y-125240000D03*
X88040000Y-102842800D03*
X232146475Y-125270000D03*
X93070000Y-112030000D03*
X178050000Y-109280000D03*
X115690900Y-125240000D03*
X157287200Y-34260000D03*
X190494725Y-125240000D03*
X238130000Y-90436200D03*
X200543000Y-125240000D03*
X102293200Y-125240000D03*
X98050000Y-98720000D03*
X154290000Y-90210000D03*
X211780000Y-64870000D03*
X238130000Y-97121550D03*
X173010000Y-55710000D03*
X135510000Y-123940000D03*
X107650000Y-74730000D03*
X238260000Y-119338450D03*
X178050000Y-111540000D03*
X124720000Y-63740000D03*
X223260000Y-115900000D03*
X104526150Y-125240000D03*
X151770000Y-53385000D03*
X87779025Y-125240000D03*
X88040000Y-105071250D03*
X111511725Y-34260000D03*
X181150000Y-116110000D03*
X208650000Y-99550000D03*
X150000000Y-90210000D03*
X196360000Y-45525000D03*
X88040000Y-116213500D03*
X197420000Y-109280000D03*
X174770000Y-43330000D03*
X92244925Y-125240000D03*
X167048750Y-125240000D03*
X185620000Y-47810000D03*
X236410000Y-100730000D03*
X113700000Y-35850000D03*
X154210000Y-92840000D03*
X214136666Y-99550000D03*
X88040000Y-100614350D03*
X149500000Y-123690000D03*
X166470000Y-55350000D03*
X205008900Y-125240000D03*
X170370000Y-42530000D03*
X104010000Y-35850000D03*
X238130000Y-60757050D03*
X94050000Y-63400000D03*
X130800000Y-87630000D03*
X126260000Y-123860000D03*
X213110950Y-34260000D03*
X175980550Y-125240000D03*
X176360000Y-116110000D03*
X172160000Y-43140000D03*
X88040000Y-66073375D03*
X166870000Y-42190000D03*
X136074175Y-34260000D03*
X238323475Y-34320000D03*
X163900000Y-92840000D03*
X200750000Y-100660000D03*
X111225000Y-125240000D03*
X134957700Y-34260000D03*
X219080000Y-110680000D03*
X226310000Y-81280000D03*
X162582850Y-125240000D03*
X121830000Y-63390000D03*
X181730000Y-72482500D03*
X130430000Y-92840000D03*
X164760000Y-39210000D03*
X124920000Y-70200000D03*
X213166400Y-125270000D03*
X115640000Y-46380000D03*
X150380000Y-109200000D03*
X114530000Y-55640000D03*
X154590000Y-111830000D03*
X194960625Y-125240000D03*
X165420000Y-43790000D03*
X111200000Y-46380000D03*
X117430000Y-77770000D03*
X238130000Y-98235775D03*
X173747600Y-125240000D03*
X152980000Y-116030000D03*
X121870000Y-69280000D03*
X183795875Y-125240000D03*
X107875575Y-125240000D03*
X176360000Y-118370000D03*
X238130000Y-64099725D03*
X226508650Y-34260000D03*
X186028825Y-125240000D03*
X177180000Y-121880000D03*
X135530000Y-90210000D03*
X194560000Y-118450000D03*
X140120000Y-92840000D03*
X118970000Y-80470000D03*
X154130000Y-87470000D03*
X150380000Y-81660000D03*
X121870000Y-77770000D03*
X188261775Y-125240000D03*
X148080000Y-116030000D03*
X236205000Y-78190000D03*
X176267275Y-34260000D03*
X223159225Y-34260000D03*
X151704825Y-34260000D03*
X201150000Y-49110000D03*
X164760000Y-41145000D03*
X87605900Y-34340000D03*
X220980000Y-72680000D03*
X208420000Y-104370000D03*
X230370000Y-86670000D03*
X94640000Y-66990000D03*
X180820000Y-53380000D03*
X186520000Y-79575000D03*
X121780000Y-74730000D03*
X201150000Y-42240000D03*
X238240000Y-110537325D03*
X192180000Y-109280000D03*
X238130000Y-92664650D03*
X215730000Y-49660000D03*
X98090000Y-82090000D03*
X116640000Y-96810000D03*
X131010000Y-109200000D03*
X88040000Y-120670400D03*
X213580000Y-115900000D03*
X238130000Y-100464225D03*
X117430000Y-69280000D03*
X140700000Y-109200000D03*
X217286666Y-97520000D03*
X221340000Y-104370000D03*
X88040000Y-72758725D03*
X165380000Y-34580000D03*
X194740000Y-122310000D03*
X162070000Y-41235000D03*
X161466375Y-125240000D03*
X112730000Y-66470000D03*
X96997550Y-34260000D03*
X148068675Y-125240000D03*
X171460000Y-118370000D03*
X201100000Y-76595000D03*
X206125425Y-125240000D03*
X238130000Y-85270000D03*
X154290000Y-123690000D03*
X165932275Y-125240000D03*
X231490000Y-118880000D03*
X171780000Y-36670000D03*
X182460000Y-59130000D03*
X88040000Y-119556175D03*
X190960000Y-72705000D03*
X211850000Y-122090000D03*
X88040000Y-96157450D03*
X176680000Y-36670000D03*
X98090000Y-86530000D03*
X95910000Y-98360000D03*
X164760000Y-42112500D03*
X216805000Y-106900000D03*
X148230000Y-41900000D03*
X201150000Y-38510000D03*
X168480000Y-64130000D03*
X149970000Y-38190000D03*
X171460000Y-116110000D03*
X201946200Y-34260000D03*
X206450000Y-90370000D03*
X88040000Y-61616475D03*
X160910000Y-40370000D03*
X211530000Y-69230000D03*
X122560000Y-56000000D03*
X190730000Y-122230000D03*
X130630000Y-98260000D03*
X191460000Y-49025000D03*
X93188275Y-34340000D03*
X88040000Y-52702675D03*
X176720000Y-94300000D03*
X88040000Y-87243650D03*
X197193575Y-125240000D03*
X110090000Y-55640000D03*
X104812875Y-34260000D03*
X166100000Y-41220000D03*
X191020000Y-79600000D03*
X225392175Y-34260000D03*
X214282875Y-125270000D03*
X92340000Y-82290000D03*
X144940000Y-111830000D03*
X116870000Y-89680000D03*
X140320000Y-90210000D03*
X127770000Y-59910000D03*
X101860000Y-124040000D03*
X133841225Y-34260000D03*
X238130000Y-80813100D03*
X215730000Y-53010000D03*
X88040000Y-50474225D03*
X184912350Y-125240000D03*
X88040000Y-68301825D03*
X94477875Y-125240000D03*
X169410000Y-39580000D03*
X148640000Y-46190000D03*
X88040000Y-62730700D03*
X112800000Y-60850000D03*
X114861150Y-34260000D03*
X143590000Y-118660000D03*
X159750000Y-49826666D03*
X172740000Y-121880000D03*
X221952500Y-106900000D03*
X164280000Y-111830000D03*
X181220000Y-44940000D03*
X120280000Y-44640000D03*
X88040000Y-86129425D03*
X201150000Y-56120000D03*
X187740000Y-111540000D03*
X95910000Y-111660000D03*
X185490000Y-122230000D03*
X161170000Y-36630000D03*
X196360000Y-49032500D03*
X191460000Y-56035000D03*
X201659475Y-125240000D03*
X167790000Y-41140000D03*
X98790000Y-123690000D03*
X202090000Y-64870000D03*
X199880000Y-115820000D03*
X181420000Y-42160000D03*
X88040000Y-57159575D03*
X221220000Y-68870000D03*
X181460000Y-39570000D03*
X171801375Y-34260000D03*
X210830000Y-52750000D03*
X229090000Y-89340000D03*
X160913333Y-49826666D03*
X219190000Y-46270000D03*
X136150000Y-81720000D03*
X88040000Y-53816900D03*
X95490000Y-82350000D03*
X219190000Y-49780000D03*
X181470000Y-36670000D03*
X221460000Y-64870000D03*
X197420000Y-106420000D03*
X175150800Y-34260000D03*
X116450000Y-98990000D03*
X144560000Y-92840000D03*
X224130000Y-88490000D03*
X107100000Y-124040000D03*
X185590000Y-116110000D03*
X176830000Y-86500000D03*
X181180000Y-47810000D03*
X206990000Y-64870000D03*
X233670000Y-86760000D03*
X90955325Y-34340000D03*
X129120000Y-118660000D03*
X151770000Y-55370000D03*
X178690000Y-56310000D03*
X186280000Y-59190000D03*
X173500000Y-87470000D03*
X162060000Y-43170000D03*
X197480300Y-34260000D03*
X161260000Y-39290000D03*
X211540000Y-36030000D03*
X151770000Y-57355000D03*
X176010000Y-56450000D03*
X239190000Y-125270000D03*
X130800000Y-95680000D03*
X103300000Y-105000000D03*
X88040000Y-63844925D03*
X96590000Y-116070000D03*
X159190000Y-90210000D03*
X94640000Y-70490000D03*
X167414785Y-48212240D03*
X159233425Y-125240000D03*
X88040000Y-83900975D03*
X222473332Y-101580000D03*
X171340000Y-57350000D03*
X87790000Y-36575775D03*
X214227425Y-34260000D03*
X88040000Y-64959150D03*
X153651050Y-125240000D03*
X236410000Y-81360000D03*
X168510000Y-81500000D03*
X136903925Y-125240000D03*
X111110000Y-124120000D03*
X211470000Y-73710000D03*
X217530000Y-76740000D03*
X138020400Y-125240000D03*
X140700000Y-81660000D03*
X112550000Y-74730000D03*
X216460375Y-34260000D03*
X217632300Y-125270000D03*
X209816975Y-125270000D03*
X232700000Y-78190000D03*
X99230500Y-34260000D03*
X215730000Y-38490000D03*
X162070000Y-42202500D03*
X88040000Y-95043225D03*
X219870000Y-36500000D03*
X176830000Y-72480000D03*
X113660000Y-116240000D03*
X107380000Y-71920000D03*
X217576850Y-34260000D03*
X233830000Y-104850000D03*
X224331150Y-125270000D03*
X176030000Y-50550000D03*
X151030000Y-40190000D03*
X196090000Y-94300000D03*
X208700500Y-125270000D03*
X141656550Y-34260000D03*
X231030000Y-125270000D03*
X233670000Y-91200000D03*
X167370000Y-118660000D03*
X167950000Y-121880000D03*
X226250000Y-118880000D03*
X157690000Y-118660000D03*
X196200000Y-73005000D03*
X172917850Y-34260000D03*
X179616700Y-34260000D03*
X135700000Y-87630000D03*
X163980000Y-90210000D03*
X109420000Y-51660000D03*
X236220000Y-73290000D03*
X117590000Y-60850000D03*
X88040000Y-74987175D03*
X138350000Y-118660000D03*
X191460000Y-45520000D03*
X222098200Y-125270000D03*
X186520000Y-86585000D03*
X190960000Y-83165000D03*
X235580000Y-116330000D03*
X219865250Y-125270000D03*
X216986666Y-101580000D03*
X108992050Y-125240000D03*
X88040000Y-112870825D03*
X196200000Y-90035000D03*
X143602775Y-125240000D03*
X87790000Y-39918450D03*
X207810000Y-49570000D03*
X116420000Y-53740000D03*
X182679400Y-125240000D03*
X170684900Y-34260000D03*
X88040000Y-85015200D03*
X216515825Y-125270000D03*
X132724750Y-34260000D03*
X117923850Y-125240000D03*
X215980000Y-36030000D03*
X191460000Y-38510000D03*
X185900000Y-39570000D03*
X111550000Y-98990000D03*
X173960000Y-111830000D03*
X181150000Y-118370000D03*
X238130000Y-102692675D03*
X199713250Y-34260000D03*
X153520000Y-37540000D03*
X162086666Y-47360000D03*
X118140000Y-35850000D03*
X236612425Y-125270000D03*
X181730000Y-90020000D03*
X88040000Y-97271675D03*
X229913525Y-125270000D03*
X163250000Y-47360000D03*
X124880000Y-73910000D03*
X181620000Y-94300000D03*
X111030000Y-116040000D03*
X134510000Y-46190000D03*
X133910000Y-118660000D03*
X171450000Y-45540000D03*
X121273275Y-125240000D03*
X168340000Y-92840000D03*
X91490000Y-66930000D03*
X134110000Y-116030000D03*
X190960000Y-87085000D03*
X151418100Y-125240000D03*
X197420000Y-111540000D03*
X132570000Y-59270000D03*
X185870000Y-54880000D03*
X125870000Y-96810000D03*
X134670975Y-125240000D03*
X131180000Y-106620000D03*
X88040000Y-117327725D03*
X113860000Y-51660000D03*
X190960000Y-68975000D03*
X238130000Y-62985500D03*
X167450000Y-116030000D03*
X227100000Y-106900000D03*
X181849650Y-34260000D03*
X169281700Y-125240000D03*
X216220000Y-64870000D03*
X98050000Y-103160000D03*
X182950000Y-111540000D03*
X87790000Y-37690000D03*
X140540075Y-34260000D03*
X218020000Y-118160000D03*
X225447625Y-125270000D03*
X173580000Y-92840000D03*
X232712500Y-73290000D03*
X210830000Y-42540000D03*
X208790000Y-118160000D03*
X162210000Y-116030000D03*
X88040000Y-76101400D03*
X176670000Y-39570000D03*
X223214675Y-125270000D03*
X178500225Y-34260000D03*
X238130000Y-68556625D03*
X205590000Y-59770000D03*
X88040000Y-92814775D03*
X179329975Y-125240000D03*
X121960000Y-66470000D03*
X88040000Y-49360000D03*
X198310050Y-125240000D03*
X163240000Y-48593333D03*
X95594350Y-125240000D03*
X218748775Y-125270000D03*
X155054250Y-34260000D03*
X98340000Y-77720000D03*
X235580000Y-54720000D03*
X187740000Y-109280000D03*
X119050000Y-83460000D03*
X238260000Y-118224225D03*
X123410000Y-80470000D03*
X88660000Y-54290000D03*
X88040000Y-108413925D03*
X186520000Y-90090000D03*
X181730000Y-68975000D03*
X201150000Y-45605000D03*
X94010000Y-115900000D03*
X108450000Y-115870000D03*
X115977625Y-34260000D03*
X141369825Y-125240000D03*
X117840000Y-58430000D03*
X180446450Y-125240000D03*
X94304750Y-34340000D03*
X139423600Y-34260000D03*
X119080000Y-116040000D03*
X88040000Y-106185475D03*
X88040000Y-60502250D03*
X162076666Y-48593333D03*
X88040000Y-46017325D03*
X94220000Y-52470000D03*
X88040000Y-67187600D03*
X226564100Y-125270000D03*
X201100000Y-89895000D03*
X140290000Y-53680000D03*
X196360000Y-52540000D03*
X176430000Y-44940000D03*
X103409675Y-125240000D03*
X124622700Y-125240000D03*
X131321550Y-125240000D03*
X168800000Y-109200000D03*
X97827300Y-125240000D03*
X192727675Y-125240000D03*
X204179150Y-34260000D03*
X118210575Y-34260000D03*
X100346975Y-34260000D03*
X238260000Y-117110000D03*
X145140000Y-109200000D03*
X88040000Y-113985050D03*
X124220000Y-118660000D03*
X196090000Y-66140000D03*
X176390000Y-47810000D03*
X112640000Y-69280000D03*
X212049925Y-125270000D03*
X88040000Y-90586325D03*
X196360000Y-38510000D03*
X163699325Y-125240000D03*
X223915000Y-110680000D03*
X143790000Y-116030000D03*
X162130000Y-118660000D03*
X140870000Y-106620000D03*
X98010000Y-94640000D03*
X205590000Y-56620000D03*
X176030000Y-53380000D03*
X128170000Y-61820000D03*
X109020000Y-47990000D03*
X235375000Y-51550000D03*
X144760000Y-90210000D03*
X221770000Y-76260000D03*
X162076666Y-49826666D03*
X103696400Y-34260000D03*
X88040000Y-51588450D03*
X108910000Y-35850000D03*
X206510000Y-86190000D03*
X120800000Y-124120000D03*
X93120000Y-115850000D03*
X186520000Y-68975000D03*
X88040000Y-121784625D03*
X102290000Y-53740000D03*
X201100000Y-83475000D03*
X95421225Y-34340000D03*
X88040000Y-54931125D03*
X238260000Y-114881550D03*
X116010000Y-124120000D03*
X218693325Y-34260000D03*
X174864075Y-125240000D03*
X218020000Y-115900000D03*
X164760000Y-40177500D03*
X145200000Y-123940000D03*
X158116950Y-125240000D03*
X88040000Y-88357875D03*
X100840000Y-73530000D03*
X201060000Y-94120000D03*
X140500000Y-111830000D03*
X238240000Y-106080425D03*
X178213500Y-125240000D03*
X113457950Y-125240000D03*
X227625125Y-34260000D03*
X123350000Y-44760000D03*
X169568425Y-34260000D03*
X216290000Y-122090000D03*
X88040000Y-47131550D03*
X92820000Y-47730000D03*
X201100000Y-72685000D03*
X89838850Y-34340000D03*
X238130000Y-83041550D03*
X111740000Y-96810000D03*
X133060000Y-69290000D03*
X233262950Y-125270000D03*
X115940000Y-41910000D03*
X238130000Y-65213950D03*
X205590000Y-42240000D03*
X126855650Y-125240000D03*
X205295625Y-34260000D03*
X205590000Y-45670000D03*
X234974050Y-34320000D03*
X152821300Y-34260000D03*
X164070000Y-81500000D03*
X88040000Y-103957025D03*
X95740000Y-109290000D03*
X207528575Y-34260000D03*
X121390000Y-85880000D03*
X170410000Y-41180000D03*
X118850000Y-106000000D03*
X191460000Y-42015000D03*
X226330000Y-116250000D03*
X175120000Y-40550000D03*
X152690000Y-36210000D03*
X238260000Y-113767325D03*
X231570000Y-116250000D03*
X167520000Y-45009500D03*
X225110000Y-99550000D03*
X232840000Y-69350000D03*
X185660000Y-44940000D03*
X125680000Y-98990000D03*
X150301625Y-125240000D03*
X140253350Y-125240000D03*
X191460000Y-52530000D03*
X91128450Y-125240000D03*
X135330000Y-100890000D03*
X228797050Y-125270000D03*
X150588350Y-34260000D03*
X150180000Y-111830000D03*
X228190000Y-82250000D03*
X88040000Y-73872950D03*
X214880000Y-104370000D03*
X116500000Y-115870000D03*
X139410000Y-46190000D03*
X172300000Y-66140000D03*
X229110000Y-93410000D03*
X189378250Y-125240000D03*
X88040000Y-115099275D03*
X181730000Y-75990000D03*
X159280000Y-81500000D03*
X187145300Y-125240000D03*
X236410000Y-95830000D03*
X238180000Y-112601550D03*
X236410000Y-86600000D03*
X131500000Y-123860000D03*
X130810000Y-111830000D03*
X176830000Y-79490000D03*
X162640000Y-60660000D03*
X164360000Y-109200000D03*
X211800000Y-97520000D03*
X118120000Y-56000000D03*
X93361400Y-125240000D03*
X125010000Y-49160000D03*
X88040000Y-48245775D03*
X92071800Y-34340000D03*
X238130000Y-91550425D03*
X145310000Y-106620000D03*
X138550000Y-116030000D03*
X215730000Y-42220000D03*
X232091075Y-34260000D03*
X162070000Y-40267500D03*
X176630000Y-42160000D03*
X128860000Y-82510000D03*
X236410000Y-91040000D03*
X238240000Y-108308875D03*
X135700000Y-95680000D03*
X186430000Y-66140000D03*
X98010000Y-90200000D03*
X206510000Y-106900000D03*
X124420000Y-116030000D03*
X88040000Y-107299700D03*
X200829725Y-34260000D03*
X122980000Y-47020000D03*
X88040000Y-69416050D03*
X238130000Y-81927325D03*
X121240000Y-98990000D03*
X176830000Y-68975000D03*
X203890000Y-118160000D03*
X196200000Y-83215000D03*
X135620000Y-40210000D03*
X156940000Y-39670000D03*
X173660000Y-90210000D03*
X166970000Y-61350000D03*
X130720000Y-40210000D03*
X184082600Y-34260000D03*
X196200000Y-79735000D03*
X186410000Y-94300000D03*
X96080000Y-113710000D03*
X210878000Y-34260000D03*
X149471875Y-34260000D03*
X238130000Y-94893100D03*
X162070000Y-39300000D03*
X160349900Y-125240000D03*
X200930000Y-97450000D03*
X201850000Y-36030000D03*
X150170000Y-87630000D03*
X121430000Y-96810000D03*
X129320000Y-116030000D03*
X145140000Y-81660000D03*
X224600000Y-122440000D03*
X181730000Y-83005000D03*
X180820000Y-50550000D03*
X88040000Y-58273800D03*
X211994475Y-34260000D03*
X117070000Y-71920000D03*
X191670000Y-66140000D03*
X98260000Y-106230000D03*
X215399350Y-125270000D03*
X238130000Y-79698875D03*
X145005975Y-34260000D03*
X99650000Y-117780000D03*
X203892425Y-125240000D03*
X174040000Y-109200000D03*
X238130000Y-61871275D03*
X94160000Y-59120000D03*
X213580000Y-118160000D03*
%TO.N,/RESET_N*%
X216132500Y-92567500D03*
X165020498Y-59415000D03*
%TO.N,/VDDS*%
X154610000Y-53400000D03*
X164380000Y-56650000D03*
X165935500Y-56700000D03*
X154610000Y-52490000D03*
X167146290Y-51340749D03*
X166390000Y-50595400D03*
%TO.N,/USER_BTN*%
X173630000Y-61660000D03*
X217490000Y-84270000D03*
%TO.N,/VDDR*%
X168990000Y-46390000D03*
X168513776Y-49422222D03*
X168950000Y-45450000D03*
X168513776Y-50344561D03*
X164540000Y-57860000D03*
%TO.N,/JTAG_TMSC*%
X155992360Y-55589500D03*
%TO.N,/JTAG_TCKC*%
X157908500Y-55565002D03*
%TO.N,/DIO_18_RTS{slash}SWO*%
X132580000Y-55390000D03*
X156869932Y-58945744D03*
%TO.N,/DIO_16_TDO*%
X157500000Y-57360000D03*
%TO.N,/DIO_2_RXD*%
X161255000Y-44735000D03*
%TO.N,/DIO_17_TDI*%
X159000000Y-56290000D03*
%TO.N,/DIO_3_TXD*%
X157810000Y-44320000D03*
%TO.N,/VerticalMove*%
X164590000Y-62390000D03*
X123720000Y-53840000D03*
%TD*%
D25*
%TO.N,/DIO_16_TDO*%
X138515305Y-60300000D02*
X132970000Y-54754695D01*
X154530895Y-60300000D02*
X138515305Y-60300000D01*
X132970000Y-52500000D02*
X132140000Y-51670000D01*
X157407795Y-57423100D02*
X154530895Y-60300000D01*
X157436900Y-57423100D02*
X157407795Y-57423100D01*
X157500000Y-57360000D02*
X157436900Y-57423100D01*
X132970000Y-54754695D02*
X132970000Y-52500000D01*
%TO.N,/DIO_17_TDI*%
X133460000Y-53460000D02*
X133460000Y-52010000D01*
X139850000Y-59850000D02*
X133460000Y-53460000D01*
X154186963Y-59850000D02*
X139850000Y-59850000D01*
X157746963Y-56290000D02*
X154186963Y-59850000D01*
X159000000Y-56290000D02*
X157746963Y-56290000D01*
X133460000Y-52010000D02*
X131850000Y-50400000D01*
%TO.N,/RESET_N*%
X136194695Y-61620000D02*
X130285000Y-55710305D01*
X216130000Y-92570000D02*
X193880000Y-92570000D01*
X165020498Y-59415000D02*
X162944547Y-59415000D01*
X160739547Y-61620000D02*
X136194695Y-61620000D01*
D26*
X130285000Y-55710305D02*
X130285000Y-52940000D01*
D25*
X162944547Y-59415000D02*
X160739547Y-61620000D01*
X193880000Y-92570000D02*
X165780000Y-64470000D01*
X165780000Y-60174502D02*
X165020498Y-59415000D01*
X165780000Y-64470000D02*
X165780000Y-60174502D01*
X216132500Y-92567500D02*
X216130000Y-92570000D01*
D27*
%TO.N,/VDDS*%
X158306291Y-54690000D02*
X158281293Y-54665002D01*
X129015000Y-47043884D02*
X129015000Y-47860000D01*
X167550000Y-51744459D02*
X167550000Y-55860000D01*
X157511209Y-54689500D02*
X155189500Y-54689500D01*
X167146290Y-51340749D02*
X167550000Y-51744459D01*
X157535707Y-54665002D02*
X157511209Y-54689500D01*
X134890000Y-49880000D02*
X131464442Y-46454442D01*
X131464442Y-46454442D02*
X129604442Y-46454442D01*
X161310000Y-54690000D02*
X158306291Y-54690000D01*
X158281293Y-54665002D02*
X157535707Y-54665002D01*
X129604442Y-46454442D02*
X129015000Y-47043884D01*
X155189500Y-54689500D02*
X154610000Y-54110000D01*
X154610000Y-54110000D02*
X154610000Y-53400000D01*
X165015000Y-56650000D02*
X163270000Y-56650000D01*
X166390000Y-50595400D02*
X166954600Y-51160000D01*
X152839996Y-49880000D02*
X134890000Y-49880000D01*
X163270000Y-56650000D02*
X161310000Y-54690000D01*
X164380000Y-56650000D02*
X164430000Y-56700000D01*
X154610000Y-53400000D02*
X154610000Y-51650004D01*
X154610000Y-51650004D02*
X152839996Y-49880000D01*
X164430000Y-56700000D02*
X165935500Y-56700000D01*
X167550000Y-55860000D02*
X166710000Y-56700000D01*
X166710000Y-56700000D02*
X165935500Y-56700000D01*
D25*
%TO.N,/USER_BTN*%
X217490000Y-84270000D02*
X216750000Y-84270000D01*
X216750000Y-84270000D02*
X194140000Y-61660000D01*
X194140000Y-61660000D02*
X173630000Y-61660000D01*
D27*
%TO.N,/VDDR*%
X168513776Y-49422222D02*
X168600571Y-49422222D01*
X164580000Y-57820000D02*
X164540000Y-57860000D01*
X168600571Y-49422222D02*
X169580000Y-48442793D01*
X166920000Y-57820000D02*
X164580000Y-57820000D01*
X169580000Y-46980000D02*
X168950000Y-46350000D01*
X168513776Y-56226224D02*
X166920000Y-57820000D01*
X169580000Y-46980000D02*
X168990000Y-46390000D01*
X169580000Y-48442793D02*
X169580000Y-46980000D01*
X168513776Y-49422222D02*
X168513776Y-56226224D01*
X168950000Y-46350000D02*
X168950000Y-45450000D01*
D25*
%TO.N,/JTAG_TMSC*%
X152631860Y-58950000D02*
X142620000Y-58950000D01*
X142620000Y-58950000D02*
X131530000Y-47860000D01*
X155992360Y-55589500D02*
X152631860Y-58950000D01*
D26*
X131530000Y-47860000D02*
X130285000Y-47860000D01*
D25*
%TO.N,/JTAG_TCKC*%
X157496202Y-55977300D02*
X157034358Y-55977300D01*
X153611658Y-59400000D02*
X141920000Y-59400000D01*
X141920000Y-59400000D02*
X131650000Y-49130000D01*
D26*
X131650000Y-49130000D02*
X130285000Y-49130000D01*
D25*
X157908500Y-55565002D02*
X157496202Y-55977300D01*
X157034358Y-55977300D02*
X153611658Y-59400000D01*
%TO.N,/DIO_18_RTS{slash}SWO*%
X132580000Y-56350000D02*
X132580000Y-55390000D01*
X137250000Y-61020000D02*
X132580000Y-56350000D01*
X156869932Y-58945744D02*
X154795676Y-61020000D01*
X154795676Y-61020000D02*
X137250000Y-61020000D01*
D26*
%TO.N,/DIO_16_TDO*%
X132140000Y-51670000D02*
X130285000Y-51670000D01*
D25*
%TO.N,/DIO_2_RXD*%
X126480000Y-51640000D02*
X126500000Y-51660000D01*
X130620000Y-43510000D02*
X126480000Y-47650000D01*
D26*
X127780000Y-52940000D02*
X126500000Y-51660000D01*
D25*
X160030000Y-43510000D02*
X130620000Y-43510000D01*
X126480000Y-47650000D02*
X126480000Y-51640000D01*
D26*
X129015000Y-52940000D02*
X127780000Y-52940000D01*
D25*
X161255000Y-44735000D02*
X160030000Y-43510000D01*
D26*
%TO.N,/DIO_17_TDI*%
X131850000Y-50400000D02*
X130285000Y-50400000D01*
%TO.N,/DIO_3_TXD*%
X127360000Y-51030000D02*
X128000000Y-51670000D01*
D25*
X157810000Y-44320000D02*
X157680000Y-44190000D01*
D26*
X128000000Y-51670000D02*
X129015000Y-51670000D01*
D25*
X157680000Y-44190000D02*
X130985000Y-44190000D01*
X127310000Y-47865000D02*
X127310000Y-50980000D01*
X127310000Y-50980000D02*
X127360000Y-51030000D01*
X130985000Y-44190000D02*
X127310000Y-47865000D01*
%TO.N,/VerticalMove*%
X160820000Y-62470000D02*
X132070000Y-62470000D01*
X132070000Y-62470000D02*
X123720000Y-54120000D01*
X123720000Y-54120000D02*
X123720000Y-53840000D01*
X164590000Y-62390000D02*
X160900000Y-62390000D01*
X160900000Y-62390000D02*
X160820000Y-62470000D01*
%TD*%
%TA.AperFunction,Conductor*%
%TO.N,GND*%
G36*
X239213621Y-33028502D02*
G01*
X239260114Y-33082158D01*
X239271500Y-33134500D01*
X239271500Y-125485500D01*
X239251498Y-125553621D01*
X239197842Y-125600114D01*
X239145500Y-125611500D01*
X87534500Y-125611500D01*
X87466379Y-125591498D01*
X87419886Y-125537842D01*
X87408500Y-125485500D01*
X87408500Y-123601745D01*
X88773795Y-123601745D01*
X88773871Y-123602815D01*
X88777055Y-123607648D01*
X89057342Y-123822720D01*
X89062972Y-123826575D01*
X89367929Y-124011992D01*
X89373931Y-124015210D01*
X89697139Y-124166611D01*
X89703444Y-124169159D01*
X90041117Y-124284771D01*
X90047668Y-124286624D01*
X90395838Y-124365087D01*
X90402557Y-124366224D01*
X90757174Y-124406628D01*
X90763964Y-124407031D01*
X91120865Y-124408899D01*
X91127666Y-124408567D01*
X91482686Y-124371880D01*
X91489414Y-124370814D01*
X91838402Y-124295997D01*
X91844950Y-124294218D01*
X92183820Y-124182147D01*
X92190162Y-124179661D01*
X92361133Y-124101745D01*
X159693795Y-124101745D01*
X159693871Y-124102815D01*
X159697055Y-124107648D01*
X159977342Y-124322720D01*
X159982972Y-124326575D01*
X160287929Y-124511992D01*
X160293931Y-124515210D01*
X160617139Y-124666611D01*
X160623444Y-124669159D01*
X160961117Y-124784771D01*
X160967668Y-124786624D01*
X161315838Y-124865087D01*
X161322557Y-124866224D01*
X161677174Y-124906628D01*
X161683964Y-124907031D01*
X162040865Y-124908899D01*
X162047666Y-124908567D01*
X162402686Y-124871880D01*
X162409414Y-124870814D01*
X162758402Y-124795997D01*
X162764950Y-124794218D01*
X163103820Y-124682147D01*
X163110162Y-124679661D01*
X163434921Y-124531660D01*
X163440975Y-124528495D01*
X163747839Y-124346293D01*
X163753520Y-124342490D01*
X164038918Y-124128207D01*
X164044145Y-124123821D01*
X164056988Y-124111803D01*
X164065057Y-124098123D01*
X164065029Y-124097398D01*
X164059887Y-124089097D01*
X161892812Y-121922022D01*
X161878868Y-121914408D01*
X161877035Y-121914539D01*
X161870420Y-121918790D01*
X159701409Y-124087801D01*
X159693795Y-124101745D01*
X92361133Y-124101745D01*
X92514921Y-124031660D01*
X92520975Y-124028495D01*
X92827839Y-123846293D01*
X92833520Y-123842490D01*
X93118918Y-123628207D01*
X93124145Y-123623821D01*
X93136988Y-123611803D01*
X93145057Y-123598123D01*
X93145029Y-123597398D01*
X93139887Y-123589097D01*
X90972812Y-121422022D01*
X90958868Y-121414408D01*
X90957035Y-121414539D01*
X90950420Y-121418790D01*
X88781409Y-123587801D01*
X88773795Y-123601745D01*
X87408500Y-123601745D01*
X87408500Y-121692552D01*
X87428502Y-121624431D01*
X87482158Y-121577938D01*
X87552432Y-121567834D01*
X87617012Y-121597328D01*
X87655396Y-121657054D01*
X87658914Y-121672624D01*
X87672478Y-121757305D01*
X87673917Y-121763960D01*
X87768094Y-122108215D01*
X87770243Y-122114676D01*
X87901053Y-122446756D01*
X87903884Y-122452939D01*
X88069792Y-122768949D01*
X88073275Y-122774791D01*
X88272340Y-123071031D01*
X88276442Y-123076475D01*
X88400942Y-123224322D01*
X88413680Y-123232764D01*
X88424124Y-123226666D01*
X90587978Y-121062812D01*
X90594356Y-121051132D01*
X91324408Y-121051132D01*
X91324539Y-121052965D01*
X91328790Y-121059580D01*
X93494463Y-123225253D01*
X93508060Y-123232678D01*
X93517669Y-123225981D01*
X93622197Y-123104457D01*
X93626346Y-123099069D01*
X93828503Y-122804929D01*
X93832050Y-122799118D01*
X94001250Y-122484879D01*
X94004157Y-122478701D01*
X94138435Y-122148016D01*
X94140649Y-122141586D01*
X94238427Y-121798331D01*
X94239934Y-121791701D01*
X94282675Y-121541657D01*
X158517260Y-121541657D01*
X158535318Y-121898127D01*
X158536028Y-121904883D01*
X158592478Y-122257305D01*
X158593917Y-122263960D01*
X158688094Y-122608215D01*
X158690243Y-122614676D01*
X158821053Y-122946756D01*
X158823884Y-122952939D01*
X158989792Y-123268949D01*
X158993275Y-123274791D01*
X159192340Y-123571031D01*
X159196442Y-123576475D01*
X159320942Y-123724322D01*
X159333680Y-123732764D01*
X159344124Y-123726666D01*
X161507978Y-121562812D01*
X161514356Y-121551132D01*
X162244408Y-121551132D01*
X162244539Y-121552965D01*
X162248790Y-121559580D01*
X164414463Y-123725253D01*
X164428060Y-123732678D01*
X164437669Y-123725981D01*
X164542197Y-123604457D01*
X164544285Y-123601745D01*
X232263795Y-123601745D01*
X232263871Y-123602815D01*
X232267055Y-123607648D01*
X232547342Y-123822720D01*
X232552972Y-123826575D01*
X232857929Y-124011992D01*
X232863931Y-124015210D01*
X233187139Y-124166611D01*
X233193444Y-124169159D01*
X233531117Y-124284771D01*
X233537668Y-124286624D01*
X233885838Y-124365087D01*
X233892557Y-124366224D01*
X234247174Y-124406628D01*
X234253964Y-124407031D01*
X234610865Y-124408899D01*
X234617666Y-124408567D01*
X234972686Y-124371880D01*
X234979414Y-124370814D01*
X235328402Y-124295997D01*
X235334950Y-124294218D01*
X235673820Y-124182147D01*
X235680162Y-124179661D01*
X236004921Y-124031660D01*
X236010975Y-124028495D01*
X236317839Y-123846293D01*
X236323520Y-123842490D01*
X236608918Y-123628207D01*
X236614145Y-123623821D01*
X236626988Y-123611803D01*
X236635057Y-123598123D01*
X236635029Y-123597398D01*
X236629887Y-123589097D01*
X234462812Y-121422022D01*
X234448868Y-121414408D01*
X234447035Y-121414539D01*
X234440420Y-121418790D01*
X232271409Y-123587801D01*
X232263795Y-123601745D01*
X164544285Y-123601745D01*
X164546346Y-123599069D01*
X164748503Y-123304929D01*
X164752050Y-123299118D01*
X164921250Y-122984879D01*
X164924157Y-122978701D01*
X165058435Y-122648016D01*
X165060649Y-122641586D01*
X165158427Y-122298331D01*
X165159934Y-122291701D01*
X165220073Y-121939873D01*
X165220853Y-121933133D01*
X165242740Y-121575275D01*
X165242856Y-121571673D01*
X165242926Y-121551820D01*
X165242834Y-121548193D01*
X165223446Y-121190208D01*
X165222711Y-121183442D01*
X165199493Y-121041657D01*
X231087260Y-121041657D01*
X231105318Y-121398127D01*
X231106028Y-121404883D01*
X231162478Y-121757305D01*
X231163917Y-121763960D01*
X231258094Y-122108215D01*
X231260243Y-122114676D01*
X231391053Y-122446756D01*
X231393884Y-122452939D01*
X231559792Y-122768949D01*
X231563275Y-122774791D01*
X231762340Y-123071031D01*
X231766442Y-123076475D01*
X231890942Y-123224322D01*
X231903680Y-123232764D01*
X231914124Y-123226666D01*
X234077978Y-121062812D01*
X234084356Y-121051132D01*
X234814408Y-121051132D01*
X234814539Y-121052965D01*
X234818790Y-121059580D01*
X236984463Y-123225253D01*
X236998060Y-123232678D01*
X237007669Y-123225981D01*
X237112197Y-123104457D01*
X237116346Y-123099069D01*
X237318503Y-122804929D01*
X237322050Y-122799118D01*
X237491250Y-122484879D01*
X237494157Y-122478701D01*
X237628435Y-122148016D01*
X237630649Y-122141586D01*
X237728427Y-121798331D01*
X237729934Y-121791701D01*
X237790073Y-121439873D01*
X237790853Y-121433133D01*
X237812740Y-121075275D01*
X237812856Y-121071673D01*
X237812926Y-121051820D01*
X237812834Y-121048193D01*
X237793446Y-120690208D01*
X237792711Y-120683442D01*
X237735034Y-120331233D01*
X237733567Y-120324561D01*
X237638194Y-119980655D01*
X237636020Y-119974192D01*
X237504053Y-119642575D01*
X237501197Y-119636395D01*
X237334194Y-119320981D01*
X237330682Y-119315137D01*
X237130588Y-119019598D01*
X237126467Y-119014170D01*
X237009041Y-118875704D01*
X236996215Y-118867267D01*
X236985890Y-118873320D01*
X234822022Y-121037188D01*
X234814408Y-121051132D01*
X234084356Y-121051132D01*
X234085592Y-121048868D01*
X234085461Y-121047035D01*
X234081210Y-121040420D01*
X231915527Y-118874737D01*
X231901990Y-118867345D01*
X231892289Y-118874132D01*
X231780649Y-119004847D01*
X231776515Y-119010255D01*
X231575394Y-119305086D01*
X231571859Y-119310923D01*
X231403754Y-119625757D01*
X231400878Y-119631926D01*
X231267754Y-119963081D01*
X231265561Y-119969521D01*
X231168979Y-120313121D01*
X231167496Y-120319756D01*
X231108589Y-120671773D01*
X231107830Y-120678545D01*
X231087284Y-121034862D01*
X231087260Y-121041657D01*
X165199493Y-121041657D01*
X165165034Y-120831233D01*
X165163567Y-120824561D01*
X165068194Y-120480655D01*
X165066020Y-120474192D01*
X164934053Y-120142575D01*
X164931197Y-120136395D01*
X164764194Y-119820981D01*
X164760682Y-119815137D01*
X164560588Y-119519598D01*
X164556467Y-119514170D01*
X164439041Y-119375704D01*
X164426215Y-119367267D01*
X164415890Y-119373320D01*
X162252022Y-121537188D01*
X162244408Y-121551132D01*
X161514356Y-121551132D01*
X161515592Y-121548868D01*
X161515461Y-121547035D01*
X161511210Y-121540420D01*
X159345527Y-119374737D01*
X159331990Y-119367345D01*
X159322289Y-119374132D01*
X159210649Y-119504847D01*
X159206515Y-119510255D01*
X159005394Y-119805086D01*
X159001859Y-119810923D01*
X158833754Y-120125757D01*
X158830878Y-120131926D01*
X158697754Y-120463081D01*
X158695561Y-120469521D01*
X158598979Y-120813121D01*
X158597496Y-120819756D01*
X158538589Y-121171773D01*
X158537830Y-121178545D01*
X158517284Y-121534862D01*
X158517260Y-121541657D01*
X94282675Y-121541657D01*
X94300073Y-121439873D01*
X94300853Y-121433133D01*
X94322740Y-121075275D01*
X94322856Y-121071673D01*
X94322926Y-121051820D01*
X94322834Y-121048193D01*
X94303446Y-120690208D01*
X94302711Y-120683442D01*
X94245034Y-120331233D01*
X94243567Y-120324561D01*
X94148194Y-119980655D01*
X94146020Y-119974192D01*
X94014053Y-119642575D01*
X94011197Y-119636395D01*
X93844194Y-119320981D01*
X93840682Y-119315137D01*
X93640588Y-119019598D01*
X93636467Y-119014170D01*
X93625715Y-119001492D01*
X159694580Y-119001492D01*
X159694615Y-119002333D01*
X159699667Y-119010457D01*
X161867188Y-121177978D01*
X161881132Y-121185592D01*
X161882965Y-121185461D01*
X161889580Y-121181210D01*
X164058166Y-119012624D01*
X164065780Y-118998680D01*
X164065712Y-118997723D01*
X164060771Y-118990251D01*
X164056870Y-118986931D01*
X163772958Y-118770649D01*
X163767332Y-118766825D01*
X163461722Y-118582469D01*
X163455710Y-118579272D01*
X163288147Y-118501492D01*
X232264580Y-118501492D01*
X232264615Y-118502333D01*
X232269667Y-118510457D01*
X234437188Y-120677978D01*
X234451132Y-120685592D01*
X234452965Y-120685461D01*
X234459580Y-120681210D01*
X236628166Y-118512624D01*
X236635780Y-118498680D01*
X236635712Y-118497723D01*
X236630771Y-118490251D01*
X236626870Y-118486931D01*
X236342958Y-118270649D01*
X236337332Y-118266825D01*
X236031722Y-118082469D01*
X236025710Y-118079272D01*
X235701966Y-117928995D01*
X235695666Y-117926475D01*
X235357595Y-117812045D01*
X235351017Y-117810209D01*
X235002592Y-117732965D01*
X234995857Y-117731850D01*
X234641106Y-117692685D01*
X234634324Y-117692306D01*
X234277395Y-117691683D01*
X234270622Y-117692038D01*
X233915714Y-117729966D01*
X233909005Y-117731053D01*
X233560289Y-117807086D01*
X233553714Y-117808897D01*
X233215250Y-117922145D01*
X233208928Y-117924648D01*
X232884680Y-118073785D01*
X232878637Y-118076971D01*
X232572404Y-118260248D01*
X232566744Y-118264066D01*
X232282094Y-118479346D01*
X232276891Y-118483742D01*
X232272601Y-118487785D01*
X232264580Y-118501492D01*
X163288147Y-118501492D01*
X163131966Y-118428995D01*
X163125666Y-118426475D01*
X162787595Y-118312045D01*
X162781017Y-118310209D01*
X162432592Y-118232965D01*
X162425857Y-118231850D01*
X162071106Y-118192685D01*
X162064324Y-118192306D01*
X161707395Y-118191683D01*
X161700622Y-118192038D01*
X161345714Y-118229966D01*
X161339005Y-118231053D01*
X160990289Y-118307086D01*
X160983714Y-118308897D01*
X160645250Y-118422145D01*
X160638928Y-118424648D01*
X160314680Y-118573785D01*
X160308637Y-118576971D01*
X160002404Y-118760248D01*
X159996744Y-118764066D01*
X159712094Y-118979346D01*
X159706891Y-118983742D01*
X159702601Y-118987785D01*
X159694580Y-119001492D01*
X93625715Y-119001492D01*
X93519041Y-118875704D01*
X93506215Y-118867267D01*
X93495890Y-118873320D01*
X91332022Y-121037188D01*
X91324408Y-121051132D01*
X90594356Y-121051132D01*
X90595592Y-121048868D01*
X90595461Y-121047035D01*
X90591210Y-121040420D01*
X88425527Y-118874737D01*
X88411990Y-118867345D01*
X88402289Y-118874132D01*
X88290649Y-119004847D01*
X88286515Y-119010255D01*
X88085394Y-119305086D01*
X88081859Y-119310923D01*
X87913754Y-119625757D01*
X87910878Y-119631926D01*
X87777754Y-119963081D01*
X87775561Y-119969521D01*
X87678979Y-120313121D01*
X87677496Y-120319757D01*
X87658772Y-120431648D01*
X87627801Y-120495533D01*
X87567208Y-120532533D01*
X87496230Y-120530900D01*
X87437403Y-120491152D01*
X87409403Y-120425910D01*
X87408500Y-120410852D01*
X87408500Y-118501492D01*
X88774580Y-118501492D01*
X88774615Y-118502333D01*
X88779667Y-118510457D01*
X90947188Y-120677978D01*
X90961132Y-120685592D01*
X90962965Y-120685461D01*
X90969580Y-120681210D01*
X93138166Y-118512624D01*
X93145780Y-118498680D01*
X93145712Y-118497723D01*
X93140771Y-118490251D01*
X93136870Y-118486931D01*
X92852958Y-118270649D01*
X92847332Y-118266825D01*
X92541722Y-118082469D01*
X92535710Y-118079272D01*
X92211966Y-117928995D01*
X92205666Y-117926475D01*
X91867595Y-117812045D01*
X91861017Y-117810209D01*
X91512592Y-117732965D01*
X91505857Y-117731850D01*
X91151106Y-117692685D01*
X91144324Y-117692306D01*
X90787395Y-117691683D01*
X90780622Y-117692038D01*
X90425714Y-117729966D01*
X90419005Y-117731053D01*
X90070289Y-117807086D01*
X90063714Y-117808897D01*
X89725250Y-117922145D01*
X89718928Y-117924648D01*
X89394680Y-118073785D01*
X89388637Y-118076971D01*
X89082404Y-118260248D01*
X89076744Y-118264066D01*
X88792094Y-118479346D01*
X88786891Y-118483742D01*
X88782601Y-118487785D01*
X88774580Y-118501492D01*
X87408500Y-118501492D01*
X87408500Y-112718885D01*
X124900823Y-112718885D01*
X124909650Y-112730503D01*
X125136859Y-112895580D01*
X125143539Y-112899820D01*
X125415907Y-113049555D01*
X125423042Y-113052912D01*
X125712029Y-113167331D01*
X125719554Y-113169776D01*
X126020586Y-113247067D01*
X126028357Y-113248550D01*
X126336706Y-113287503D01*
X126344596Y-113288000D01*
X126655404Y-113288000D01*
X126663294Y-113287503D01*
X126971643Y-113248550D01*
X126979414Y-113247067D01*
X127280446Y-113169776D01*
X127287971Y-113167331D01*
X127576958Y-113052912D01*
X127584093Y-113049555D01*
X127856461Y-112899820D01*
X127863141Y-112895580D01*
X128090721Y-112730234D01*
X128099144Y-112719311D01*
X128098915Y-112718885D01*
X199900823Y-112718885D01*
X199909650Y-112730503D01*
X200136859Y-112895580D01*
X200143539Y-112899820D01*
X200415907Y-113049555D01*
X200423042Y-113052912D01*
X200712029Y-113167331D01*
X200719554Y-113169776D01*
X201020586Y-113247067D01*
X201028357Y-113248550D01*
X201336706Y-113287503D01*
X201344596Y-113288000D01*
X201655404Y-113288000D01*
X201663294Y-113287503D01*
X201971643Y-113248550D01*
X201979414Y-113247067D01*
X202280446Y-113169776D01*
X202287971Y-113167331D01*
X202576958Y-113052912D01*
X202584093Y-113049555D01*
X202856461Y-112899820D01*
X202863141Y-112895580D01*
X203090721Y-112730234D01*
X203099144Y-112719311D01*
X203092240Y-112706450D01*
X201512812Y-111127022D01*
X201498868Y-111119408D01*
X201497035Y-111119539D01*
X201490420Y-111123790D01*
X199907436Y-112706774D01*
X199900823Y-112718885D01*
X128098915Y-112718885D01*
X128092240Y-112706450D01*
X126512812Y-111127022D01*
X126498868Y-111119408D01*
X126497035Y-111119539D01*
X126490420Y-111123790D01*
X124907436Y-112706774D01*
X124900823Y-112718885D01*
X87408500Y-112718885D01*
X87408500Y-110758958D01*
X123962241Y-110758958D01*
X123981756Y-111069134D01*
X123982749Y-111076997D01*
X124040984Y-111382276D01*
X124042955Y-111389953D01*
X124138994Y-111685530D01*
X124141909Y-111692893D01*
X124274239Y-111974109D01*
X124278051Y-111981042D01*
X124444582Y-112243455D01*
X124449236Y-112249859D01*
X124526740Y-112343545D01*
X124539258Y-112352000D01*
X124549997Y-112345793D01*
X126127978Y-110767812D01*
X126134356Y-110756132D01*
X126864408Y-110756132D01*
X126864539Y-110757965D01*
X126868790Y-110764580D01*
X128448901Y-112344691D01*
X128462164Y-112351933D01*
X128472266Y-112344746D01*
X128550764Y-112249859D01*
X128555418Y-112243455D01*
X128721949Y-111981042D01*
X128725761Y-111974109D01*
X128858091Y-111692893D01*
X128861006Y-111685530D01*
X128957045Y-111389953D01*
X128959016Y-111382276D01*
X129017251Y-111076997D01*
X129018244Y-111069134D01*
X129037759Y-110758958D01*
X198962241Y-110758958D01*
X198981756Y-111069134D01*
X198982749Y-111076997D01*
X199040984Y-111382276D01*
X199042955Y-111389953D01*
X199138994Y-111685530D01*
X199141909Y-111692893D01*
X199274239Y-111974109D01*
X199278051Y-111981042D01*
X199444582Y-112243455D01*
X199449236Y-112249859D01*
X199526740Y-112343545D01*
X199539258Y-112352000D01*
X199549997Y-112345793D01*
X201127978Y-110767812D01*
X201134356Y-110756132D01*
X201864408Y-110756132D01*
X201864539Y-110757965D01*
X201868790Y-110764580D01*
X203448901Y-112344691D01*
X203462164Y-112351933D01*
X203472266Y-112344746D01*
X203550764Y-112249859D01*
X203555418Y-112243455D01*
X203721949Y-111981042D01*
X203725761Y-111974109D01*
X203858091Y-111692893D01*
X203861006Y-111685530D01*
X203957045Y-111389953D01*
X203959016Y-111382276D01*
X204017251Y-111076997D01*
X204018244Y-111069134D01*
X204037759Y-110758958D01*
X204037759Y-110751042D01*
X204018244Y-110440866D01*
X204017251Y-110433003D01*
X203959016Y-110127724D01*
X203957045Y-110120047D01*
X203861006Y-109824470D01*
X203858091Y-109817107D01*
X203725761Y-109535891D01*
X203721949Y-109528958D01*
X203555418Y-109266545D01*
X203550764Y-109260141D01*
X203473260Y-109166455D01*
X203460742Y-109158000D01*
X203450003Y-109164207D01*
X201872022Y-110742188D01*
X201864408Y-110756132D01*
X201134356Y-110756132D01*
X201135592Y-110753868D01*
X201135461Y-110752035D01*
X201131210Y-110745420D01*
X199551099Y-109165309D01*
X199537836Y-109158067D01*
X199527734Y-109165254D01*
X199449236Y-109260141D01*
X199444582Y-109266545D01*
X199278051Y-109528958D01*
X199274239Y-109535891D01*
X199141909Y-109817107D01*
X199138994Y-109824470D01*
X199042955Y-110120047D01*
X199040984Y-110127724D01*
X198982749Y-110433003D01*
X198981756Y-110440866D01*
X198962241Y-110751042D01*
X198962241Y-110758958D01*
X129037759Y-110758958D01*
X129037759Y-110751042D01*
X129018244Y-110440866D01*
X129017251Y-110433003D01*
X128959016Y-110127724D01*
X128957045Y-110120047D01*
X128861006Y-109824470D01*
X128858091Y-109817107D01*
X128725761Y-109535891D01*
X128721949Y-109528958D01*
X128555418Y-109266545D01*
X128550764Y-109260141D01*
X128473260Y-109166455D01*
X128460742Y-109158000D01*
X128450003Y-109164207D01*
X126872022Y-110742188D01*
X126864408Y-110756132D01*
X126134356Y-110756132D01*
X126135592Y-110753868D01*
X126135461Y-110752035D01*
X126131210Y-110745420D01*
X124551099Y-109165309D01*
X124537836Y-109158067D01*
X124527734Y-109165254D01*
X124449236Y-109260141D01*
X124444582Y-109266545D01*
X124278051Y-109528958D01*
X124274239Y-109535891D01*
X124141909Y-109817107D01*
X124138994Y-109824470D01*
X124042955Y-110120047D01*
X124040984Y-110127724D01*
X123982749Y-110433003D01*
X123981756Y-110440866D01*
X123962241Y-110751042D01*
X123962241Y-110758958D01*
X87408500Y-110758958D01*
X87408500Y-108790689D01*
X124900856Y-108790689D01*
X124907760Y-108803550D01*
X126487188Y-110382978D01*
X126501132Y-110390592D01*
X126502965Y-110390461D01*
X126509580Y-110386210D01*
X128092564Y-108803226D01*
X128099177Y-108791115D01*
X128098853Y-108790689D01*
X199900856Y-108790689D01*
X199907760Y-108803550D01*
X201487188Y-110382978D01*
X201501132Y-110390592D01*
X201502965Y-110390461D01*
X201509580Y-110386210D01*
X203092564Y-108803226D01*
X203099177Y-108791115D01*
X203090350Y-108779497D01*
X202863141Y-108614420D01*
X202856461Y-108610180D01*
X202584093Y-108460445D01*
X202576958Y-108457088D01*
X202287971Y-108342669D01*
X202280446Y-108340224D01*
X201979414Y-108262933D01*
X201971643Y-108261450D01*
X201663294Y-108222497D01*
X201655404Y-108222000D01*
X201344596Y-108222000D01*
X201336706Y-108222497D01*
X201028357Y-108261450D01*
X201020586Y-108262933D01*
X200719554Y-108340224D01*
X200712029Y-108342669D01*
X200423042Y-108457088D01*
X200415907Y-108460445D01*
X200143539Y-108610180D01*
X200136859Y-108614420D01*
X199909279Y-108779766D01*
X199900856Y-108790689D01*
X128098853Y-108790689D01*
X128090350Y-108779497D01*
X127863141Y-108614420D01*
X127856461Y-108610180D01*
X127584093Y-108460445D01*
X127576958Y-108457088D01*
X127287971Y-108342669D01*
X127280446Y-108340224D01*
X126979414Y-108262933D01*
X126971643Y-108261450D01*
X126663294Y-108222497D01*
X126655404Y-108222000D01*
X126344596Y-108222000D01*
X126336706Y-108222497D01*
X126028357Y-108261450D01*
X126020586Y-108262933D01*
X125719554Y-108340224D01*
X125712029Y-108342669D01*
X125423042Y-108457088D01*
X125415907Y-108460445D01*
X125143539Y-108610180D01*
X125136859Y-108614420D01*
X124909279Y-108779766D01*
X124900856Y-108790689D01*
X87408500Y-108790689D01*
X87408500Y-105333631D01*
X106341860Y-105333631D01*
X106342157Y-105338783D01*
X106342157Y-105338787D01*
X106353558Y-105536499D01*
X106355903Y-105577171D01*
X106357040Y-105582217D01*
X106357041Y-105582223D01*
X106380107Y-105684575D01*
X106409533Y-105815147D01*
X106411475Y-105819929D01*
X106411476Y-105819933D01*
X106499275Y-106036156D01*
X106501311Y-106041169D01*
X106628772Y-106249166D01*
X106788492Y-106433553D01*
X106976183Y-106589377D01*
X107186804Y-106712453D01*
X107414698Y-106799478D01*
X107419764Y-106800509D01*
X107419765Y-106800509D01*
X107648667Y-106847080D01*
X107648671Y-106847080D01*
X107653746Y-106848113D01*
X107658922Y-106848303D01*
X107658924Y-106848303D01*
X107892363Y-106856863D01*
X107892367Y-106856863D01*
X107897527Y-106857052D01*
X107902647Y-106856396D01*
X107902649Y-106856396D01*
X107979377Y-106846567D01*
X108139494Y-106826055D01*
X108144443Y-106824570D01*
X108144449Y-106824569D01*
X108368200Y-106757440D01*
X108368199Y-106757440D01*
X108373150Y-106755955D01*
X108592219Y-106648634D01*
X108596424Y-106645634D01*
X108596430Y-106645631D01*
X108679155Y-106586624D01*
X111978621Y-106586624D01*
X111982988Y-106592774D01*
X112182563Y-106709397D01*
X112191846Y-106713844D01*
X112410007Y-106797152D01*
X112419905Y-106800028D01*
X112648744Y-106846585D01*
X112658972Y-106847804D01*
X112892340Y-106856362D01*
X112902626Y-106855895D01*
X113134262Y-106826222D01*
X113144340Y-106824080D01*
X113368014Y-106756974D01*
X113377612Y-106753212D01*
X113587324Y-106650476D01*
X113596169Y-106645203D01*
X113668869Y-106593347D01*
X113677270Y-106582646D01*
X113670283Y-106569493D01*
X112842812Y-105742022D01*
X112828868Y-105734408D01*
X112827035Y-105734539D01*
X112820420Y-105738790D01*
X111985881Y-106573329D01*
X111978621Y-106586624D01*
X108679155Y-106586624D01*
X108786614Y-106509974D01*
X108786616Y-106509972D01*
X108790818Y-106506975D01*
X108963614Y-106334781D01*
X109105966Y-106136677D01*
X109108387Y-106131780D01*
X109211756Y-105922626D01*
X109211757Y-105922624D01*
X109214050Y-105917984D01*
X109269786Y-105734539D01*
X109283462Y-105689527D01*
X109283463Y-105689521D01*
X109284966Y-105684575D01*
X109316807Y-105442717D01*
X109318584Y-105370000D01*
X109316019Y-105338799D01*
X111342658Y-105338799D01*
X111356102Y-105571942D01*
X111357535Y-105582144D01*
X111408873Y-105809949D01*
X111411956Y-105819789D01*
X111499814Y-106036156D01*
X111504457Y-106045347D01*
X111605555Y-106210325D01*
X111616011Y-106219785D01*
X111624789Y-106216001D01*
X112457978Y-105382812D01*
X112464356Y-105371132D01*
X113194408Y-105371132D01*
X113194539Y-105372965D01*
X113198790Y-105379580D01*
X114030045Y-106210835D01*
X114042055Y-106217394D01*
X114053794Y-106208426D01*
X114102518Y-106140619D01*
X114107829Y-106131780D01*
X114211291Y-105922442D01*
X114215089Y-105912849D01*
X114282974Y-105689413D01*
X114285151Y-105679343D01*
X114315869Y-105446015D01*
X114316388Y-105439340D01*
X114318001Y-105373364D01*
X114317807Y-105366647D01*
X114298525Y-105132108D01*
X114296842Y-105121946D01*
X114239952Y-104895453D01*
X114236634Y-104885706D01*
X114143513Y-104671542D01*
X114138646Y-104662467D01*
X114053465Y-104530796D01*
X114042779Y-104521593D01*
X114033214Y-104525996D01*
X113202022Y-105357188D01*
X113194408Y-105371132D01*
X112464356Y-105371132D01*
X112465592Y-105368868D01*
X112465461Y-105367035D01*
X112461210Y-105360420D01*
X111629892Y-104529102D01*
X111618356Y-104522802D01*
X111606073Y-104532426D01*
X111539036Y-104630698D01*
X111533943Y-104639662D01*
X111435619Y-104851483D01*
X111432062Y-104861151D01*
X111369657Y-105086178D01*
X111367726Y-105096298D01*
X111342910Y-105328510D01*
X111342658Y-105338799D01*
X109316019Y-105338799D01*
X109298596Y-105126876D01*
X109239167Y-104890280D01*
X109141894Y-104666568D01*
X109048888Y-104522802D01*
X109012200Y-104466091D01*
X109012198Y-104466088D01*
X109009390Y-104461748D01*
X108845212Y-104281319D01*
X108841161Y-104278120D01*
X108841157Y-104278116D01*
X108687977Y-104157142D01*
X111981938Y-104157142D01*
X111988684Y-104169474D01*
X112817188Y-104997978D01*
X112831132Y-105005592D01*
X112832965Y-105005461D01*
X112839580Y-105001210D01*
X113672391Y-104168399D01*
X113679412Y-104155543D01*
X113671639Y-104144875D01*
X113657548Y-104133746D01*
X113648970Y-104128047D01*
X113444526Y-104015189D01*
X113435126Y-104010964D01*
X113214993Y-103933011D01*
X113205036Y-103930381D01*
X112975129Y-103889427D01*
X112964878Y-103888458D01*
X112731367Y-103885605D01*
X112721083Y-103886325D01*
X112490253Y-103921647D01*
X112480225Y-103924036D01*
X112258263Y-103996584D01*
X112248753Y-104000581D01*
X112041624Y-104108405D01*
X112032904Y-104113897D01*
X111990391Y-104145817D01*
X111981938Y-104157142D01*
X108687977Y-104157142D01*
X108657825Y-104133329D01*
X108657821Y-104133327D01*
X108653770Y-104130127D01*
X108624370Y-104113897D01*
X108597759Y-104099207D01*
X108440205Y-104012233D01*
X108435336Y-104010509D01*
X108435332Y-104010507D01*
X108215127Y-103932528D01*
X108215123Y-103932527D01*
X108210252Y-103930802D01*
X108205159Y-103929895D01*
X108205156Y-103929894D01*
X107975177Y-103888928D01*
X107975171Y-103888927D01*
X107970088Y-103888022D01*
X107890380Y-103887048D01*
X107731332Y-103885105D01*
X107731330Y-103885105D01*
X107726162Y-103885042D01*
X107485024Y-103921941D01*
X107253150Y-103997729D01*
X107036769Y-104110370D01*
X107032636Y-104113473D01*
X107032633Y-104113475D01*
X106958050Y-104169474D01*
X106841690Y-104256840D01*
X106673153Y-104433204D01*
X106670239Y-104437476D01*
X106670238Y-104437477D01*
X106650719Y-104466091D01*
X106535684Y-104634726D01*
X106432974Y-104855995D01*
X106367783Y-105091067D01*
X106341860Y-105333631D01*
X87408500Y-105333631D01*
X87408500Y-81718885D01*
X124900823Y-81718885D01*
X124909650Y-81730503D01*
X125136859Y-81895580D01*
X125143539Y-81899820D01*
X125415907Y-82049555D01*
X125423042Y-82052912D01*
X125712029Y-82167331D01*
X125719554Y-82169776D01*
X126020586Y-82247067D01*
X126028357Y-82248550D01*
X126336706Y-82287503D01*
X126344596Y-82288000D01*
X126655404Y-82288000D01*
X126663294Y-82287503D01*
X126971643Y-82248550D01*
X126979414Y-82247067D01*
X127280446Y-82169776D01*
X127287971Y-82167331D01*
X127576958Y-82052912D01*
X127584093Y-82049555D01*
X127856461Y-81899820D01*
X127863141Y-81895580D01*
X128090721Y-81730234D01*
X128099144Y-81719311D01*
X128092240Y-81706450D01*
X126512812Y-80127022D01*
X126498868Y-80119408D01*
X126497035Y-80119539D01*
X126490420Y-80123790D01*
X124907436Y-81706774D01*
X124900823Y-81718885D01*
X87408500Y-81718885D01*
X87408500Y-79758958D01*
X123962241Y-79758958D01*
X123981756Y-80069134D01*
X123982749Y-80076997D01*
X124040984Y-80382276D01*
X124042955Y-80389953D01*
X124138994Y-80685530D01*
X124141909Y-80692893D01*
X124274239Y-80974109D01*
X124278051Y-80981042D01*
X124444582Y-81243455D01*
X124449236Y-81249859D01*
X124526740Y-81343545D01*
X124539258Y-81352000D01*
X124549997Y-81345793D01*
X126127978Y-79767812D01*
X126134356Y-79756132D01*
X126864408Y-79756132D01*
X126864539Y-79757965D01*
X126868790Y-79764580D01*
X128448901Y-81344691D01*
X128462164Y-81351933D01*
X128472266Y-81344746D01*
X128550764Y-81249859D01*
X128555418Y-81243455D01*
X128721949Y-80981042D01*
X128725761Y-80974109D01*
X128858091Y-80692893D01*
X128861006Y-80685530D01*
X128948450Y-80416406D01*
X130703423Y-80416406D01*
X130708704Y-80423461D01*
X130885080Y-80526527D01*
X130894363Y-80530974D01*
X131101003Y-80609883D01*
X131110901Y-80612759D01*
X131327653Y-80656857D01*
X131337883Y-80658076D01*
X131558914Y-80666182D01*
X131569223Y-80665714D01*
X131788623Y-80637608D01*
X131798688Y-80635468D01*
X132010557Y-80571905D01*
X132020152Y-80568144D01*
X132218778Y-80470838D01*
X132227636Y-80465559D01*
X132285097Y-80424572D01*
X132293497Y-80413874D01*
X132286510Y-80400721D01*
X131512811Y-79627021D01*
X131498868Y-79619408D01*
X131497034Y-79619539D01*
X131490420Y-79623790D01*
X130710180Y-80404031D01*
X130703423Y-80416406D01*
X128948450Y-80416406D01*
X128957045Y-80389953D01*
X128959016Y-80382276D01*
X129017251Y-80076997D01*
X129018244Y-80069134D01*
X129037759Y-79758958D01*
X129037759Y-79751042D01*
X129018244Y-79440866D01*
X129017251Y-79433003D01*
X128977694Y-79225638D01*
X130087893Y-79225638D01*
X130100627Y-79446468D01*
X130102061Y-79456670D01*
X130150685Y-79672439D01*
X130153773Y-79682292D01*
X130236986Y-79887220D01*
X130241634Y-79896421D01*
X130330097Y-80040781D01*
X130340553Y-80050242D01*
X130349331Y-80046458D01*
X131127979Y-79267811D01*
X131134356Y-79256132D01*
X131864408Y-79256132D01*
X131864539Y-79257966D01*
X131868790Y-79264580D01*
X132646307Y-80042096D01*
X132658313Y-80048652D01*
X132684948Y-80028304D01*
X132685827Y-80029454D01*
X132722672Y-80000734D01*
X132793376Y-79994289D01*
X132856340Y-80027092D01*
X132876432Y-80052074D01*
X132896800Y-80085313D01*
X132896806Y-80085321D01*
X132899501Y-80089719D01*
X133051147Y-80264784D01*
X133229349Y-80412730D01*
X133429322Y-80529584D01*
X133645694Y-80612209D01*
X133650760Y-80613240D01*
X133650761Y-80613240D01*
X133703846Y-80624040D01*
X133872656Y-80658385D01*
X134003324Y-80663176D01*
X134098949Y-80666683D01*
X134098953Y-80666683D01*
X134104113Y-80666872D01*
X134109233Y-80666216D01*
X134109235Y-80666216D01*
X134182291Y-80656857D01*
X134333847Y-80637442D01*
X134338795Y-80635957D01*
X134338802Y-80635956D01*
X134550747Y-80572369D01*
X134555690Y-80570886D01*
X134637161Y-80530974D01*
X134759049Y-80471262D01*
X134759052Y-80471260D01*
X134763684Y-80468991D01*
X134952243Y-80334494D01*
X135116303Y-80171005D01*
X135119319Y-80166808D01*
X135119326Y-80166800D01*
X135206960Y-80044844D01*
X135262954Y-80001196D01*
X135333658Y-79994750D01*
X135396622Y-80027553D01*
X135416715Y-80052536D01*
X135436800Y-80085313D01*
X135436806Y-80085321D01*
X135439501Y-80089719D01*
X135591147Y-80264784D01*
X135769349Y-80412730D01*
X135969322Y-80529584D01*
X136185694Y-80612209D01*
X136190760Y-80613240D01*
X136190761Y-80613240D01*
X136243846Y-80624040D01*
X136412656Y-80658385D01*
X136543324Y-80663176D01*
X136638949Y-80666683D01*
X136638953Y-80666683D01*
X136644113Y-80666872D01*
X136649233Y-80666216D01*
X136649235Y-80666216D01*
X136722291Y-80656857D01*
X136873847Y-80637442D01*
X136878795Y-80635957D01*
X136878802Y-80635956D01*
X137090747Y-80572369D01*
X137095690Y-80570886D01*
X137177161Y-80530974D01*
X137299049Y-80471262D01*
X137299052Y-80471260D01*
X137303684Y-80468991D01*
X137492243Y-80334494D01*
X137656303Y-80171005D01*
X137659319Y-80166808D01*
X137659326Y-80166800D01*
X137746960Y-80044844D01*
X137802954Y-80001196D01*
X137873658Y-79994750D01*
X137936622Y-80027553D01*
X137956715Y-80052536D01*
X137976800Y-80085313D01*
X137976806Y-80085321D01*
X137979501Y-80089719D01*
X138131147Y-80264784D01*
X138309349Y-80412730D01*
X138509322Y-80529584D01*
X138725694Y-80612209D01*
X138730760Y-80613240D01*
X138730761Y-80613240D01*
X138783846Y-80624040D01*
X138952656Y-80658385D01*
X139083324Y-80663176D01*
X139178949Y-80666683D01*
X139178953Y-80666683D01*
X139184113Y-80666872D01*
X139189233Y-80666216D01*
X139189235Y-80666216D01*
X139262291Y-80656857D01*
X139413847Y-80637442D01*
X139418795Y-80635957D01*
X139418802Y-80635956D01*
X139630747Y-80572369D01*
X139635690Y-80570886D01*
X139717161Y-80530974D01*
X139839049Y-80471262D01*
X139839052Y-80471260D01*
X139843684Y-80468991D01*
X140032243Y-80334494D01*
X140196303Y-80171005D01*
X140199319Y-80166808D01*
X140199326Y-80166800D01*
X140286960Y-80044844D01*
X140342954Y-80001196D01*
X140413658Y-79994750D01*
X140476622Y-80027553D01*
X140496715Y-80052536D01*
X140516800Y-80085313D01*
X140516806Y-80085321D01*
X140519501Y-80089719D01*
X140671147Y-80264784D01*
X140849349Y-80412730D01*
X141049322Y-80529584D01*
X141265694Y-80612209D01*
X141270760Y-80613240D01*
X141270761Y-80613240D01*
X141323846Y-80624040D01*
X141492656Y-80658385D01*
X141623324Y-80663176D01*
X141718949Y-80666683D01*
X141718953Y-80666683D01*
X141724113Y-80666872D01*
X141729233Y-80666216D01*
X141729235Y-80666216D01*
X141802291Y-80656857D01*
X141953847Y-80637442D01*
X141958795Y-80635957D01*
X141958802Y-80635956D01*
X142170747Y-80572369D01*
X142175690Y-80570886D01*
X142257161Y-80530974D01*
X142379049Y-80471262D01*
X142379052Y-80471260D01*
X142383684Y-80468991D01*
X142572243Y-80334494D01*
X142736303Y-80171005D01*
X142739319Y-80166808D01*
X142739326Y-80166800D01*
X142826960Y-80044844D01*
X142882954Y-80001196D01*
X142953658Y-79994750D01*
X143016622Y-80027553D01*
X143036715Y-80052536D01*
X143056800Y-80085313D01*
X143056806Y-80085321D01*
X143059501Y-80089719D01*
X143211147Y-80264784D01*
X143389349Y-80412730D01*
X143589322Y-80529584D01*
X143805694Y-80612209D01*
X143810760Y-80613240D01*
X143810761Y-80613240D01*
X143863846Y-80624040D01*
X144032656Y-80658385D01*
X144163324Y-80663176D01*
X144258949Y-80666683D01*
X144258953Y-80666683D01*
X144264113Y-80666872D01*
X144269233Y-80666216D01*
X144269235Y-80666216D01*
X144342291Y-80656857D01*
X144493847Y-80637442D01*
X144498795Y-80635957D01*
X144498802Y-80635956D01*
X144710747Y-80572369D01*
X144715690Y-80570886D01*
X144797161Y-80530974D01*
X144919049Y-80471262D01*
X144919052Y-80471260D01*
X144923684Y-80468991D01*
X145112243Y-80334494D01*
X145276303Y-80171005D01*
X145279319Y-80166808D01*
X145279326Y-80166800D01*
X145366960Y-80044844D01*
X145422954Y-80001196D01*
X145493658Y-79994750D01*
X145556622Y-80027553D01*
X145576715Y-80052536D01*
X145596800Y-80085313D01*
X145596806Y-80085321D01*
X145599501Y-80089719D01*
X145751147Y-80264784D01*
X145929349Y-80412730D01*
X146129322Y-80529584D01*
X146345694Y-80612209D01*
X146350760Y-80613240D01*
X146350761Y-80613240D01*
X146403846Y-80624040D01*
X146572656Y-80658385D01*
X146703324Y-80663176D01*
X146798949Y-80666683D01*
X146798953Y-80666683D01*
X146804113Y-80666872D01*
X146809233Y-80666216D01*
X146809235Y-80666216D01*
X146882291Y-80656857D01*
X147033847Y-80637442D01*
X147038795Y-80635957D01*
X147038802Y-80635956D01*
X147250747Y-80572369D01*
X147255690Y-80570886D01*
X147337161Y-80530974D01*
X147459049Y-80471262D01*
X147459052Y-80471260D01*
X147463684Y-80468991D01*
X147652243Y-80334494D01*
X147816303Y-80171005D01*
X147819319Y-80166808D01*
X147819326Y-80166800D01*
X147906960Y-80044844D01*
X147962954Y-80001196D01*
X148033658Y-79994750D01*
X148096622Y-80027553D01*
X148116715Y-80052536D01*
X148136800Y-80085313D01*
X148136806Y-80085321D01*
X148139501Y-80089719D01*
X148291147Y-80264784D01*
X148469349Y-80412730D01*
X148669322Y-80529584D01*
X148885694Y-80612209D01*
X148890760Y-80613240D01*
X148890761Y-80613240D01*
X148943846Y-80624040D01*
X149112656Y-80658385D01*
X149243324Y-80663176D01*
X149338949Y-80666683D01*
X149338953Y-80666683D01*
X149344113Y-80666872D01*
X149349233Y-80666216D01*
X149349235Y-80666216D01*
X149422291Y-80656857D01*
X149573847Y-80637442D01*
X149578795Y-80635957D01*
X149578802Y-80635956D01*
X149790747Y-80572369D01*
X149795690Y-80570886D01*
X149877161Y-80530974D01*
X149999049Y-80471262D01*
X149999052Y-80471260D01*
X150003684Y-80468991D01*
X150192243Y-80334494D01*
X150356303Y-80171005D01*
X150359319Y-80166808D01*
X150359326Y-80166800D01*
X150446960Y-80044844D01*
X150502954Y-80001196D01*
X150573658Y-79994750D01*
X150636622Y-80027553D01*
X150656715Y-80052536D01*
X150676800Y-80085313D01*
X150676806Y-80085321D01*
X150679501Y-80089719D01*
X150831147Y-80264784D01*
X151009349Y-80412730D01*
X151209322Y-80529584D01*
X151425694Y-80612209D01*
X151430760Y-80613240D01*
X151430761Y-80613240D01*
X151483846Y-80624040D01*
X151652656Y-80658385D01*
X151783324Y-80663176D01*
X151878949Y-80666683D01*
X151878953Y-80666683D01*
X151884113Y-80666872D01*
X151889233Y-80666216D01*
X151889235Y-80666216D01*
X151962291Y-80656857D01*
X152113847Y-80637442D01*
X152118795Y-80635957D01*
X152118802Y-80635956D01*
X152330747Y-80572369D01*
X152335690Y-80570886D01*
X152417161Y-80530974D01*
X152539049Y-80471262D01*
X152539052Y-80471260D01*
X152543684Y-80468991D01*
X152732243Y-80334494D01*
X152896303Y-80171005D01*
X152899319Y-80166808D01*
X152899326Y-80166800D01*
X152986960Y-80044844D01*
X153042954Y-80001196D01*
X153113658Y-79994750D01*
X153176622Y-80027553D01*
X153196715Y-80052536D01*
X153216800Y-80085313D01*
X153216806Y-80085321D01*
X153219501Y-80089719D01*
X153371147Y-80264784D01*
X153549349Y-80412730D01*
X153749322Y-80529584D01*
X153965694Y-80612209D01*
X153970760Y-80613240D01*
X153970761Y-80613240D01*
X154023846Y-80624040D01*
X154192656Y-80658385D01*
X154323324Y-80663176D01*
X154418949Y-80666683D01*
X154418953Y-80666683D01*
X154424113Y-80666872D01*
X154429233Y-80666216D01*
X154429235Y-80666216D01*
X154502291Y-80656857D01*
X154653847Y-80637442D01*
X154658795Y-80635957D01*
X154658802Y-80635956D01*
X154870747Y-80572369D01*
X154875690Y-80570886D01*
X154957161Y-80530974D01*
X155079049Y-80471262D01*
X155079052Y-80471260D01*
X155083684Y-80468991D01*
X155272243Y-80334494D01*
X155436303Y-80171005D01*
X155439319Y-80166808D01*
X155439326Y-80166800D01*
X155526960Y-80044844D01*
X155582954Y-80001196D01*
X155653658Y-79994750D01*
X155716622Y-80027553D01*
X155736715Y-80052536D01*
X155756800Y-80085313D01*
X155756806Y-80085321D01*
X155759501Y-80089719D01*
X155911147Y-80264784D01*
X156089349Y-80412730D01*
X156289322Y-80529584D01*
X156505694Y-80612209D01*
X156510760Y-80613240D01*
X156510761Y-80613240D01*
X156563846Y-80624040D01*
X156732656Y-80658385D01*
X156863324Y-80663176D01*
X156958949Y-80666683D01*
X156958953Y-80666683D01*
X156964113Y-80666872D01*
X156969233Y-80666216D01*
X156969235Y-80666216D01*
X157042291Y-80656857D01*
X157193847Y-80637442D01*
X157198795Y-80635957D01*
X157198802Y-80635956D01*
X157410747Y-80572369D01*
X157415690Y-80570886D01*
X157497161Y-80530974D01*
X157619049Y-80471262D01*
X157619052Y-80471260D01*
X157623684Y-80468991D01*
X157812243Y-80334494D01*
X157976303Y-80171005D01*
X157979319Y-80166808D01*
X157979326Y-80166800D01*
X158066960Y-80044844D01*
X158122954Y-80001196D01*
X158193658Y-79994750D01*
X158256622Y-80027553D01*
X158276715Y-80052536D01*
X158296800Y-80085313D01*
X158296806Y-80085321D01*
X158299501Y-80089719D01*
X158451147Y-80264784D01*
X158629349Y-80412730D01*
X158829322Y-80529584D01*
X159045694Y-80612209D01*
X159050760Y-80613240D01*
X159050761Y-80613240D01*
X159103846Y-80624040D01*
X159272656Y-80658385D01*
X159403324Y-80663176D01*
X159498949Y-80666683D01*
X159498953Y-80666683D01*
X159504113Y-80666872D01*
X159509233Y-80666216D01*
X159509235Y-80666216D01*
X159582291Y-80656857D01*
X159733847Y-80637442D01*
X159738795Y-80635957D01*
X159738802Y-80635956D01*
X159950747Y-80572369D01*
X159955690Y-80570886D01*
X160037161Y-80530974D01*
X160159049Y-80471262D01*
X160159052Y-80471260D01*
X160163684Y-80468991D01*
X160352243Y-80334494D01*
X160516303Y-80171005D01*
X160519319Y-80166808D01*
X160519326Y-80166800D01*
X160606960Y-80044844D01*
X160662954Y-80001196D01*
X160733658Y-79994750D01*
X160796622Y-80027553D01*
X160816715Y-80052536D01*
X160836800Y-80085313D01*
X160836806Y-80085321D01*
X160839501Y-80089719D01*
X160991147Y-80264784D01*
X161169349Y-80412730D01*
X161369322Y-80529584D01*
X161585694Y-80612209D01*
X161590760Y-80613240D01*
X161590761Y-80613240D01*
X161643846Y-80624040D01*
X161812656Y-80658385D01*
X161943324Y-80663176D01*
X162038949Y-80666683D01*
X162038953Y-80666683D01*
X162044113Y-80666872D01*
X162049233Y-80666216D01*
X162049235Y-80666216D01*
X162122291Y-80656857D01*
X162273847Y-80637442D01*
X162278795Y-80635957D01*
X162278802Y-80635956D01*
X162490747Y-80572369D01*
X162495690Y-80570886D01*
X162577161Y-80530974D01*
X162699049Y-80471262D01*
X162699052Y-80471260D01*
X162703684Y-80468991D01*
X162892243Y-80334494D01*
X163056303Y-80171005D01*
X163059319Y-80166808D01*
X163059326Y-80166800D01*
X163146960Y-80044844D01*
X163202954Y-80001196D01*
X163273658Y-79994750D01*
X163336622Y-80027553D01*
X163356715Y-80052536D01*
X163376800Y-80085313D01*
X163376806Y-80085321D01*
X163379501Y-80089719D01*
X163531147Y-80264784D01*
X163709349Y-80412730D01*
X163909322Y-80529584D01*
X164125694Y-80612209D01*
X164130760Y-80613240D01*
X164130761Y-80613240D01*
X164183846Y-80624040D01*
X164352656Y-80658385D01*
X164483324Y-80663176D01*
X164578949Y-80666683D01*
X164578953Y-80666683D01*
X164584113Y-80666872D01*
X164589233Y-80666216D01*
X164589235Y-80666216D01*
X164662291Y-80656857D01*
X164813847Y-80637442D01*
X164818795Y-80635957D01*
X164818802Y-80635956D01*
X165030747Y-80572369D01*
X165035690Y-80570886D01*
X165117161Y-80530974D01*
X165239049Y-80471262D01*
X165239052Y-80471260D01*
X165243684Y-80468991D01*
X165432243Y-80334494D01*
X165596303Y-80171005D01*
X165599319Y-80166808D01*
X165599326Y-80166800D01*
X165686960Y-80044844D01*
X165742954Y-80001196D01*
X165813658Y-79994750D01*
X165876622Y-80027553D01*
X165896715Y-80052536D01*
X165916800Y-80085313D01*
X165916806Y-80085321D01*
X165919501Y-80089719D01*
X166071147Y-80264784D01*
X166249349Y-80412730D01*
X166449322Y-80529584D01*
X166665694Y-80612209D01*
X166670760Y-80613240D01*
X166670761Y-80613240D01*
X166723846Y-80624040D01*
X166892656Y-80658385D01*
X167023324Y-80663176D01*
X167118949Y-80666683D01*
X167118953Y-80666683D01*
X167124113Y-80666872D01*
X167129233Y-80666216D01*
X167129235Y-80666216D01*
X167202291Y-80656857D01*
X167353847Y-80637442D01*
X167358795Y-80635957D01*
X167358802Y-80635956D01*
X167570747Y-80572369D01*
X167575690Y-80570886D01*
X167657161Y-80530974D01*
X167779049Y-80471262D01*
X167779052Y-80471260D01*
X167783684Y-80468991D01*
X167857406Y-80416406D01*
X168803423Y-80416406D01*
X168808704Y-80423461D01*
X168985080Y-80526527D01*
X168994363Y-80530974D01*
X169201003Y-80609883D01*
X169210901Y-80612759D01*
X169427653Y-80656857D01*
X169437883Y-80658076D01*
X169658914Y-80666182D01*
X169669223Y-80665714D01*
X169888623Y-80637608D01*
X169898688Y-80635468D01*
X170110557Y-80571905D01*
X170120152Y-80568144D01*
X170318778Y-80470838D01*
X170327636Y-80465559D01*
X170385097Y-80424572D01*
X170393497Y-80413874D01*
X170386510Y-80400721D01*
X169612811Y-79627021D01*
X169598868Y-79619408D01*
X169597034Y-79619539D01*
X169590420Y-79623790D01*
X168810180Y-80404031D01*
X168803423Y-80416406D01*
X167857406Y-80416406D01*
X167972243Y-80334494D01*
X168136303Y-80171005D01*
X168227275Y-80044404D01*
X168283270Y-80000756D01*
X168353973Y-79994310D01*
X168416938Y-80027113D01*
X168422142Y-80033584D01*
X168440553Y-80050242D01*
X168449331Y-80046458D01*
X169227979Y-79267811D01*
X169234356Y-79256132D01*
X169964408Y-79256132D01*
X169964539Y-79257966D01*
X169968790Y-79264580D01*
X170746307Y-80042096D01*
X170758313Y-80048652D01*
X170770052Y-80039684D01*
X170808010Y-79986859D01*
X170813321Y-79978020D01*
X170911318Y-79779737D01*
X170915117Y-79770142D01*
X170979415Y-79558517D01*
X170981594Y-79548436D01*
X171010702Y-79327338D01*
X171011221Y-79320663D01*
X171012744Y-79258364D01*
X171012550Y-79251646D01*
X170994279Y-79029400D01*
X170992596Y-79019238D01*
X170938710Y-78804708D01*
X170935389Y-78794953D01*
X170847193Y-78592118D01*
X170842315Y-78583020D01*
X170769224Y-78470038D01*
X170758538Y-78460835D01*
X170748973Y-78465238D01*
X169972021Y-79242189D01*
X169964408Y-79256132D01*
X169234356Y-79256132D01*
X169235592Y-79253868D01*
X169235461Y-79252034D01*
X169231210Y-79245420D01*
X168453862Y-78468073D01*
X168442330Y-78461776D01*
X168414674Y-78483444D01*
X168413534Y-78481989D01*
X168379695Y-78509724D01*
X168309171Y-78517898D01*
X168245422Y-78486646D01*
X168224722Y-78462159D01*
X168182575Y-78397009D01*
X168182570Y-78397003D01*
X168179764Y-78392665D01*
X168023887Y-78221358D01*
X168019836Y-78218159D01*
X168019832Y-78218155D01*
X167864790Y-78095711D01*
X168805508Y-78095711D01*
X168812251Y-78108040D01*
X169587189Y-78882979D01*
X169601132Y-78890592D01*
X169602966Y-78890461D01*
X169609580Y-78886210D01*
X170388994Y-78106795D01*
X170396011Y-78093944D01*
X170388237Y-78083274D01*
X170385902Y-78081430D01*
X170377320Y-78075729D01*
X170183678Y-77968833D01*
X170174272Y-77964606D01*
X169965772Y-77890772D01*
X169955809Y-77888140D01*
X169738047Y-77849350D01*
X169727796Y-77848381D01*
X169506616Y-77845679D01*
X169496332Y-77846399D01*
X169277693Y-77879855D01*
X169267666Y-77882244D01*
X169057426Y-77950961D01*
X169047916Y-77954958D01*
X168851725Y-78057089D01*
X168843007Y-78062578D01*
X168813961Y-78084386D01*
X168805508Y-78095711D01*
X167864790Y-78095711D01*
X167846177Y-78081011D01*
X167846172Y-78081008D01*
X167842123Y-78077810D01*
X167837607Y-78075317D01*
X167837604Y-78075315D01*
X167643879Y-77968373D01*
X167643875Y-77968371D01*
X167639355Y-77965876D01*
X167634486Y-77964152D01*
X167634482Y-77964150D01*
X167425903Y-77890288D01*
X167425899Y-77890287D01*
X167421028Y-77888562D01*
X167415935Y-77887655D01*
X167415932Y-77887654D01*
X167198095Y-77848851D01*
X167198089Y-77848850D01*
X167193006Y-77847945D01*
X167120096Y-77847054D01*
X166966581Y-77845179D01*
X166966579Y-77845179D01*
X166961411Y-77845116D01*
X166732464Y-77880150D01*
X166512314Y-77952106D01*
X166507726Y-77954494D01*
X166507722Y-77954496D01*
X166311461Y-78056663D01*
X166306872Y-78059052D01*
X166302739Y-78062155D01*
X166302736Y-78062157D01*
X166125790Y-78195012D01*
X166121655Y-78198117D01*
X165961639Y-78365564D01*
X165894306Y-78464271D01*
X165839397Y-78509271D01*
X165768872Y-78517442D01*
X165705125Y-78486188D01*
X165684428Y-78461705D01*
X165642571Y-78397004D01*
X165639764Y-78392665D01*
X165483887Y-78221358D01*
X165479836Y-78218159D01*
X165479832Y-78218155D01*
X165306177Y-78081011D01*
X165306172Y-78081008D01*
X165302123Y-78077810D01*
X165297607Y-78075317D01*
X165297604Y-78075315D01*
X165103879Y-77968373D01*
X165103875Y-77968371D01*
X165099355Y-77965876D01*
X165094486Y-77964152D01*
X165094482Y-77964150D01*
X164885903Y-77890288D01*
X164885899Y-77890287D01*
X164881028Y-77888562D01*
X164875935Y-77887655D01*
X164875932Y-77887654D01*
X164658095Y-77848851D01*
X164658089Y-77848850D01*
X164653006Y-77847945D01*
X164580096Y-77847054D01*
X164426581Y-77845179D01*
X164426579Y-77845179D01*
X164421411Y-77845116D01*
X164192464Y-77880150D01*
X163972314Y-77952106D01*
X163967726Y-77954494D01*
X163967722Y-77954496D01*
X163771461Y-78056663D01*
X163766872Y-78059052D01*
X163762739Y-78062155D01*
X163762736Y-78062157D01*
X163585790Y-78195012D01*
X163581655Y-78198117D01*
X163421639Y-78365564D01*
X163354306Y-78464271D01*
X163299397Y-78509271D01*
X163228872Y-78517442D01*
X163165125Y-78486188D01*
X163144428Y-78461705D01*
X163102571Y-78397004D01*
X163099764Y-78392665D01*
X162943887Y-78221358D01*
X162939836Y-78218159D01*
X162939832Y-78218155D01*
X162766177Y-78081011D01*
X162766172Y-78081008D01*
X162762123Y-78077810D01*
X162757607Y-78075317D01*
X162757604Y-78075315D01*
X162563879Y-77968373D01*
X162563875Y-77968371D01*
X162559355Y-77965876D01*
X162554486Y-77964152D01*
X162554482Y-77964150D01*
X162345903Y-77890288D01*
X162345899Y-77890287D01*
X162341028Y-77888562D01*
X162335935Y-77887655D01*
X162335932Y-77887654D01*
X162118095Y-77848851D01*
X162118089Y-77848850D01*
X162113006Y-77847945D01*
X162040096Y-77847054D01*
X161886581Y-77845179D01*
X161886579Y-77845179D01*
X161881411Y-77845116D01*
X161652464Y-77880150D01*
X161432314Y-77952106D01*
X161427726Y-77954494D01*
X161427722Y-77954496D01*
X161231461Y-78056663D01*
X161226872Y-78059052D01*
X161222739Y-78062155D01*
X161222736Y-78062157D01*
X161045790Y-78195012D01*
X161041655Y-78198117D01*
X160881639Y-78365564D01*
X160814306Y-78464271D01*
X160759397Y-78509271D01*
X160688872Y-78517442D01*
X160625125Y-78486188D01*
X160604428Y-78461705D01*
X160562571Y-78397004D01*
X160559764Y-78392665D01*
X160403887Y-78221358D01*
X160399836Y-78218159D01*
X160399832Y-78218155D01*
X160226177Y-78081011D01*
X160226172Y-78081008D01*
X160222123Y-78077810D01*
X160217607Y-78075317D01*
X160217604Y-78075315D01*
X160023879Y-77968373D01*
X160023875Y-77968371D01*
X160019355Y-77965876D01*
X160014486Y-77964152D01*
X160014482Y-77964150D01*
X159805903Y-77890288D01*
X159805899Y-77890287D01*
X159801028Y-77888562D01*
X159795935Y-77887655D01*
X159795932Y-77887654D01*
X159578095Y-77848851D01*
X159578089Y-77848850D01*
X159573006Y-77847945D01*
X159500096Y-77847054D01*
X159346581Y-77845179D01*
X159346579Y-77845179D01*
X159341411Y-77845116D01*
X159112464Y-77880150D01*
X158892314Y-77952106D01*
X158887726Y-77954494D01*
X158887722Y-77954496D01*
X158691461Y-78056663D01*
X158686872Y-78059052D01*
X158682739Y-78062155D01*
X158682736Y-78062157D01*
X158505790Y-78195012D01*
X158501655Y-78198117D01*
X158341639Y-78365564D01*
X158274306Y-78464271D01*
X158219397Y-78509271D01*
X158148872Y-78517442D01*
X158085125Y-78486188D01*
X158064428Y-78461705D01*
X158022571Y-78397004D01*
X158019764Y-78392665D01*
X157863887Y-78221358D01*
X157859836Y-78218159D01*
X157859832Y-78218155D01*
X157686177Y-78081011D01*
X157686172Y-78081008D01*
X157682123Y-78077810D01*
X157677607Y-78075317D01*
X157677604Y-78075315D01*
X157483879Y-77968373D01*
X157483875Y-77968371D01*
X157479355Y-77965876D01*
X157474486Y-77964152D01*
X157474482Y-77964150D01*
X157265903Y-77890288D01*
X157265899Y-77890287D01*
X157261028Y-77888562D01*
X157255935Y-77887655D01*
X157255932Y-77887654D01*
X157038095Y-77848851D01*
X157038089Y-77848850D01*
X157033006Y-77847945D01*
X156960096Y-77847054D01*
X156806581Y-77845179D01*
X156806579Y-77845179D01*
X156801411Y-77845116D01*
X156572464Y-77880150D01*
X156352314Y-77952106D01*
X156347726Y-77954494D01*
X156347722Y-77954496D01*
X156151461Y-78056663D01*
X156146872Y-78059052D01*
X156142739Y-78062155D01*
X156142736Y-78062157D01*
X155965790Y-78195012D01*
X155961655Y-78198117D01*
X155801639Y-78365564D01*
X155734306Y-78464271D01*
X155679397Y-78509271D01*
X155608872Y-78517442D01*
X155545125Y-78486188D01*
X155524428Y-78461705D01*
X155482571Y-78397004D01*
X155479764Y-78392665D01*
X155323887Y-78221358D01*
X155319836Y-78218159D01*
X155319832Y-78218155D01*
X155146177Y-78081011D01*
X155146172Y-78081008D01*
X155142123Y-78077810D01*
X155137607Y-78075317D01*
X155137604Y-78075315D01*
X154943879Y-77968373D01*
X154943875Y-77968371D01*
X154939355Y-77965876D01*
X154934486Y-77964152D01*
X154934482Y-77964150D01*
X154725903Y-77890288D01*
X154725899Y-77890287D01*
X154721028Y-77888562D01*
X154715935Y-77887655D01*
X154715932Y-77887654D01*
X154498095Y-77848851D01*
X154498089Y-77848850D01*
X154493006Y-77847945D01*
X154420096Y-77847054D01*
X154266581Y-77845179D01*
X154266579Y-77845179D01*
X154261411Y-77845116D01*
X154032464Y-77880150D01*
X153812314Y-77952106D01*
X153807726Y-77954494D01*
X153807722Y-77954496D01*
X153611461Y-78056663D01*
X153606872Y-78059052D01*
X153602739Y-78062155D01*
X153602736Y-78062157D01*
X153425790Y-78195012D01*
X153421655Y-78198117D01*
X153261639Y-78365564D01*
X153194306Y-78464271D01*
X153139397Y-78509271D01*
X153068872Y-78517442D01*
X153005125Y-78486188D01*
X152984428Y-78461705D01*
X152942571Y-78397004D01*
X152939764Y-78392665D01*
X152783887Y-78221358D01*
X152779836Y-78218159D01*
X152779832Y-78218155D01*
X152606177Y-78081011D01*
X152606172Y-78081008D01*
X152602123Y-78077810D01*
X152597607Y-78075317D01*
X152597604Y-78075315D01*
X152403879Y-77968373D01*
X152403875Y-77968371D01*
X152399355Y-77965876D01*
X152394486Y-77964152D01*
X152394482Y-77964150D01*
X152185903Y-77890288D01*
X152185899Y-77890287D01*
X152181028Y-77888562D01*
X152175935Y-77887655D01*
X152175932Y-77887654D01*
X151958095Y-77848851D01*
X151958089Y-77848850D01*
X151953006Y-77847945D01*
X151880096Y-77847054D01*
X151726581Y-77845179D01*
X151726579Y-77845179D01*
X151721411Y-77845116D01*
X151492464Y-77880150D01*
X151272314Y-77952106D01*
X151267726Y-77954494D01*
X151267722Y-77954496D01*
X151071461Y-78056663D01*
X151066872Y-78059052D01*
X151062739Y-78062155D01*
X151062736Y-78062157D01*
X150885790Y-78195012D01*
X150881655Y-78198117D01*
X150721639Y-78365564D01*
X150654306Y-78464271D01*
X150599397Y-78509271D01*
X150528872Y-78517442D01*
X150465125Y-78486188D01*
X150444428Y-78461705D01*
X150402571Y-78397004D01*
X150399764Y-78392665D01*
X150243887Y-78221358D01*
X150239836Y-78218159D01*
X150239832Y-78218155D01*
X150066177Y-78081011D01*
X150066172Y-78081008D01*
X150062123Y-78077810D01*
X150057607Y-78075317D01*
X150057604Y-78075315D01*
X149863879Y-77968373D01*
X149863875Y-77968371D01*
X149859355Y-77965876D01*
X149854486Y-77964152D01*
X149854482Y-77964150D01*
X149645903Y-77890288D01*
X149645899Y-77890287D01*
X149641028Y-77888562D01*
X149635935Y-77887655D01*
X149635932Y-77887654D01*
X149418095Y-77848851D01*
X149418089Y-77848850D01*
X149413006Y-77847945D01*
X149340096Y-77847054D01*
X149186581Y-77845179D01*
X149186579Y-77845179D01*
X149181411Y-77845116D01*
X148952464Y-77880150D01*
X148732314Y-77952106D01*
X148727726Y-77954494D01*
X148727722Y-77954496D01*
X148531461Y-78056663D01*
X148526872Y-78059052D01*
X148522739Y-78062155D01*
X148522736Y-78062157D01*
X148345790Y-78195012D01*
X148341655Y-78198117D01*
X148181639Y-78365564D01*
X148114306Y-78464271D01*
X148059397Y-78509271D01*
X147988872Y-78517442D01*
X147925125Y-78486188D01*
X147904428Y-78461705D01*
X147862571Y-78397004D01*
X147859764Y-78392665D01*
X147703887Y-78221358D01*
X147699836Y-78218159D01*
X147699832Y-78218155D01*
X147526177Y-78081011D01*
X147526172Y-78081008D01*
X147522123Y-78077810D01*
X147517607Y-78075317D01*
X147517604Y-78075315D01*
X147323879Y-77968373D01*
X147323875Y-77968371D01*
X147319355Y-77965876D01*
X147314486Y-77964152D01*
X147314482Y-77964150D01*
X147105903Y-77890288D01*
X147105899Y-77890287D01*
X147101028Y-77888562D01*
X147095935Y-77887655D01*
X147095932Y-77887654D01*
X146878095Y-77848851D01*
X146878089Y-77848850D01*
X146873006Y-77847945D01*
X146800096Y-77847054D01*
X146646581Y-77845179D01*
X146646579Y-77845179D01*
X146641411Y-77845116D01*
X146412464Y-77880150D01*
X146192314Y-77952106D01*
X146187726Y-77954494D01*
X146187722Y-77954496D01*
X145991461Y-78056663D01*
X145986872Y-78059052D01*
X145982739Y-78062155D01*
X145982736Y-78062157D01*
X145805790Y-78195012D01*
X145801655Y-78198117D01*
X145641639Y-78365564D01*
X145574306Y-78464271D01*
X145519397Y-78509271D01*
X145448872Y-78517442D01*
X145385125Y-78486188D01*
X145364428Y-78461705D01*
X145322571Y-78397004D01*
X145319764Y-78392665D01*
X145163887Y-78221358D01*
X145159836Y-78218159D01*
X145159832Y-78218155D01*
X144986177Y-78081011D01*
X144986172Y-78081008D01*
X144982123Y-78077810D01*
X144977607Y-78075317D01*
X144977604Y-78075315D01*
X144783879Y-77968373D01*
X144783875Y-77968371D01*
X144779355Y-77965876D01*
X144774486Y-77964152D01*
X144774482Y-77964150D01*
X144565903Y-77890288D01*
X144565899Y-77890287D01*
X144561028Y-77888562D01*
X144555935Y-77887655D01*
X144555932Y-77887654D01*
X144338095Y-77848851D01*
X144338089Y-77848850D01*
X144333006Y-77847945D01*
X144260096Y-77847054D01*
X144106581Y-77845179D01*
X144106579Y-77845179D01*
X144101411Y-77845116D01*
X143872464Y-77880150D01*
X143652314Y-77952106D01*
X143647726Y-77954494D01*
X143647722Y-77954496D01*
X143451461Y-78056663D01*
X143446872Y-78059052D01*
X143442739Y-78062155D01*
X143442736Y-78062157D01*
X143265790Y-78195012D01*
X143261655Y-78198117D01*
X143101639Y-78365564D01*
X143034306Y-78464271D01*
X142979397Y-78509271D01*
X142908872Y-78517442D01*
X142845125Y-78486188D01*
X142824428Y-78461705D01*
X142782571Y-78397004D01*
X142779764Y-78392665D01*
X142623887Y-78221358D01*
X142619836Y-78218159D01*
X142619832Y-78218155D01*
X142446177Y-78081011D01*
X142446172Y-78081008D01*
X142442123Y-78077810D01*
X142437607Y-78075317D01*
X142437604Y-78075315D01*
X142243879Y-77968373D01*
X142243875Y-77968371D01*
X142239355Y-77965876D01*
X142234486Y-77964152D01*
X142234482Y-77964150D01*
X142025903Y-77890288D01*
X142025899Y-77890287D01*
X142021028Y-77888562D01*
X142015935Y-77887655D01*
X142015932Y-77887654D01*
X141798095Y-77848851D01*
X141798089Y-77848850D01*
X141793006Y-77847945D01*
X141720096Y-77847054D01*
X141566581Y-77845179D01*
X141566579Y-77845179D01*
X141561411Y-77845116D01*
X141332464Y-77880150D01*
X141112314Y-77952106D01*
X141107726Y-77954494D01*
X141107722Y-77954496D01*
X140911461Y-78056663D01*
X140906872Y-78059052D01*
X140902739Y-78062155D01*
X140902736Y-78062157D01*
X140725790Y-78195012D01*
X140721655Y-78198117D01*
X140561639Y-78365564D01*
X140494306Y-78464271D01*
X140439397Y-78509271D01*
X140368872Y-78517442D01*
X140305125Y-78486188D01*
X140284428Y-78461705D01*
X140242571Y-78397004D01*
X140239764Y-78392665D01*
X140083887Y-78221358D01*
X140079836Y-78218159D01*
X140079832Y-78218155D01*
X139906177Y-78081011D01*
X139906172Y-78081008D01*
X139902123Y-78077810D01*
X139897607Y-78075317D01*
X139897604Y-78075315D01*
X139703879Y-77968373D01*
X139703875Y-77968371D01*
X139699355Y-77965876D01*
X139694486Y-77964152D01*
X139694482Y-77964150D01*
X139485903Y-77890288D01*
X139485899Y-77890287D01*
X139481028Y-77888562D01*
X139475935Y-77887655D01*
X139475932Y-77887654D01*
X139258095Y-77848851D01*
X139258089Y-77848850D01*
X139253006Y-77847945D01*
X139180096Y-77847054D01*
X139026581Y-77845179D01*
X139026579Y-77845179D01*
X139021411Y-77845116D01*
X138792464Y-77880150D01*
X138572314Y-77952106D01*
X138567726Y-77954494D01*
X138567722Y-77954496D01*
X138371461Y-78056663D01*
X138366872Y-78059052D01*
X138362739Y-78062155D01*
X138362736Y-78062157D01*
X138185790Y-78195012D01*
X138181655Y-78198117D01*
X138021639Y-78365564D01*
X137954306Y-78464271D01*
X137899397Y-78509271D01*
X137828872Y-78517442D01*
X137765125Y-78486188D01*
X137744428Y-78461705D01*
X137702571Y-78397004D01*
X137699764Y-78392665D01*
X137543887Y-78221358D01*
X137539836Y-78218159D01*
X137539832Y-78218155D01*
X137366177Y-78081011D01*
X137366172Y-78081008D01*
X137362123Y-78077810D01*
X137357607Y-78075317D01*
X137357604Y-78075315D01*
X137163879Y-77968373D01*
X137163875Y-77968371D01*
X137159355Y-77965876D01*
X137154486Y-77964152D01*
X137154482Y-77964150D01*
X136945903Y-77890288D01*
X136945899Y-77890287D01*
X136941028Y-77888562D01*
X136935935Y-77887655D01*
X136935932Y-77887654D01*
X136718095Y-77848851D01*
X136718089Y-77848850D01*
X136713006Y-77847945D01*
X136640096Y-77847054D01*
X136486581Y-77845179D01*
X136486579Y-77845179D01*
X136481411Y-77845116D01*
X136252464Y-77880150D01*
X136032314Y-77952106D01*
X136027726Y-77954494D01*
X136027722Y-77954496D01*
X135831461Y-78056663D01*
X135826872Y-78059052D01*
X135822739Y-78062155D01*
X135822736Y-78062157D01*
X135645790Y-78195012D01*
X135641655Y-78198117D01*
X135481639Y-78365564D01*
X135414306Y-78464271D01*
X135359397Y-78509271D01*
X135288872Y-78517442D01*
X135225125Y-78486188D01*
X135204428Y-78461705D01*
X135162571Y-78397004D01*
X135159764Y-78392665D01*
X135003887Y-78221358D01*
X134999836Y-78218159D01*
X134999832Y-78218155D01*
X134826177Y-78081011D01*
X134826172Y-78081008D01*
X134822123Y-78077810D01*
X134817607Y-78075317D01*
X134817604Y-78075315D01*
X134623879Y-77968373D01*
X134623875Y-77968371D01*
X134619355Y-77965876D01*
X134614486Y-77964152D01*
X134614482Y-77964150D01*
X134405903Y-77890288D01*
X134405899Y-77890287D01*
X134401028Y-77888562D01*
X134395935Y-77887655D01*
X134395932Y-77887654D01*
X134178095Y-77848851D01*
X134178089Y-77848850D01*
X134173006Y-77847945D01*
X134100096Y-77847054D01*
X133946581Y-77845179D01*
X133946579Y-77845179D01*
X133941411Y-77845116D01*
X133712464Y-77880150D01*
X133492314Y-77952106D01*
X133487726Y-77954494D01*
X133487722Y-77954496D01*
X133291461Y-78056663D01*
X133286872Y-78059052D01*
X133282739Y-78062155D01*
X133282736Y-78062157D01*
X133105790Y-78195012D01*
X133101655Y-78198117D01*
X132941639Y-78365564D01*
X132938730Y-78369829D01*
X132938728Y-78369832D01*
X132874002Y-78464716D01*
X132819090Y-78509718D01*
X132748565Y-78517889D01*
X132684819Y-78486634D01*
X132674979Y-78474994D01*
X132658538Y-78460835D01*
X132648973Y-78465238D01*
X131872021Y-79242189D01*
X131864408Y-79256132D01*
X131134356Y-79256132D01*
X131135592Y-79253868D01*
X131135461Y-79252034D01*
X131131210Y-79245420D01*
X130353862Y-78468073D01*
X130342330Y-78461776D01*
X130330048Y-78471399D01*
X130274467Y-78552877D01*
X130269379Y-78561833D01*
X130176252Y-78762459D01*
X130172689Y-78772146D01*
X130113581Y-78985280D01*
X130111650Y-78995400D01*
X130088145Y-79215349D01*
X130087893Y-79225638D01*
X128977694Y-79225638D01*
X128959016Y-79127724D01*
X128957045Y-79120047D01*
X128861006Y-78824470D01*
X128858091Y-78817107D01*
X128725761Y-78535891D01*
X128721949Y-78528958D01*
X128555418Y-78266545D01*
X128550764Y-78260141D01*
X128473260Y-78166455D01*
X128460742Y-78158000D01*
X128450003Y-78164207D01*
X126872022Y-79742188D01*
X126864408Y-79756132D01*
X126134356Y-79756132D01*
X126135592Y-79753868D01*
X126135461Y-79752035D01*
X126131210Y-79745420D01*
X124551099Y-78165309D01*
X124537836Y-78158067D01*
X124527734Y-78165254D01*
X124449236Y-78260141D01*
X124444582Y-78266545D01*
X124278051Y-78528958D01*
X124274239Y-78535891D01*
X124141909Y-78817107D01*
X124138994Y-78824470D01*
X124042955Y-79120047D01*
X124040984Y-79127724D01*
X123982749Y-79433003D01*
X123981756Y-79440866D01*
X123962241Y-79751042D01*
X123962241Y-79758958D01*
X87408500Y-79758958D01*
X87408500Y-77790689D01*
X124900856Y-77790689D01*
X124907760Y-77803550D01*
X126487188Y-79382978D01*
X126501132Y-79390592D01*
X126502965Y-79390461D01*
X126509580Y-79386210D01*
X127800079Y-78095711D01*
X130705508Y-78095711D01*
X130712251Y-78108040D01*
X131487189Y-78882979D01*
X131501132Y-78890592D01*
X131502966Y-78890461D01*
X131509580Y-78886210D01*
X132288994Y-78106795D01*
X132296011Y-78093944D01*
X132288237Y-78083274D01*
X132285902Y-78081430D01*
X132277320Y-78075729D01*
X132083678Y-77968833D01*
X132074272Y-77964606D01*
X131865772Y-77890772D01*
X131855809Y-77888140D01*
X131638047Y-77849350D01*
X131627796Y-77848381D01*
X131406616Y-77845679D01*
X131396332Y-77846399D01*
X131177693Y-77879855D01*
X131167666Y-77882244D01*
X130957426Y-77950961D01*
X130947916Y-77954958D01*
X130751725Y-78057089D01*
X130743007Y-78062578D01*
X130713961Y-78084386D01*
X130705508Y-78095711D01*
X127800079Y-78095711D01*
X128092564Y-77803226D01*
X128099177Y-77791115D01*
X128090350Y-77779497D01*
X127863141Y-77614420D01*
X127856461Y-77610180D01*
X127584093Y-77460445D01*
X127576958Y-77457088D01*
X127287971Y-77342669D01*
X127280446Y-77340224D01*
X126979414Y-77262933D01*
X126971643Y-77261450D01*
X126663294Y-77222497D01*
X126655404Y-77222000D01*
X126344596Y-77222000D01*
X126336706Y-77222497D01*
X126028357Y-77261450D01*
X126020586Y-77262933D01*
X125719554Y-77340224D01*
X125712029Y-77342669D01*
X125423042Y-77457088D01*
X125415907Y-77460445D01*
X125143539Y-77610180D01*
X125136859Y-77614420D01*
X124909279Y-77779766D01*
X124900856Y-77790689D01*
X87408500Y-77790689D01*
X87408500Y-73148134D01*
X128041500Y-73148134D01*
X128048255Y-73210316D01*
X128099385Y-73346705D01*
X128186739Y-73463261D01*
X128303295Y-73550615D01*
X128439684Y-73601745D01*
X128501866Y-73608500D01*
X130398134Y-73608500D01*
X130460316Y-73601745D01*
X130596705Y-73550615D01*
X130713261Y-73463261D01*
X130800615Y-73346705D01*
X130815686Y-73306504D01*
X130858328Y-73249739D01*
X130924890Y-73225040D01*
X130994239Y-73240248D01*
X131014150Y-73253788D01*
X131139349Y-73357730D01*
X131339322Y-73474584D01*
X131555694Y-73557209D01*
X131560760Y-73558240D01*
X131560761Y-73558240D01*
X131613846Y-73569040D01*
X131782656Y-73603385D01*
X131912089Y-73608131D01*
X132008949Y-73611683D01*
X132008953Y-73611683D01*
X132014113Y-73611872D01*
X132019233Y-73611216D01*
X132019235Y-73611216D01*
X132093166Y-73601745D01*
X132243847Y-73582442D01*
X132248795Y-73580957D01*
X132248802Y-73580956D01*
X132460747Y-73517369D01*
X132465690Y-73515886D01*
X132547161Y-73475974D01*
X132669049Y-73416262D01*
X132669052Y-73416260D01*
X132673684Y-73413991D01*
X132747406Y-73361406D01*
X133653423Y-73361406D01*
X133658704Y-73368461D01*
X133835080Y-73471527D01*
X133844363Y-73475974D01*
X134051003Y-73554883D01*
X134060901Y-73557759D01*
X134277653Y-73601857D01*
X134287883Y-73603076D01*
X134508914Y-73611182D01*
X134519223Y-73610714D01*
X134738623Y-73582608D01*
X134748688Y-73580468D01*
X134960557Y-73516905D01*
X134970152Y-73513144D01*
X135168778Y-73415838D01*
X135177636Y-73410559D01*
X135235097Y-73369572D01*
X135243497Y-73358874D01*
X135236510Y-73345721D01*
X134462811Y-72572021D01*
X134448868Y-72564408D01*
X134447034Y-72564539D01*
X134440420Y-72568790D01*
X133660180Y-73349031D01*
X133653423Y-73361406D01*
X132747406Y-73361406D01*
X132862243Y-73279494D01*
X133026303Y-73116005D01*
X133100714Y-73012451D01*
X133156709Y-72968803D01*
X133227412Y-72962357D01*
X133287572Y-72992543D01*
X133290555Y-72995242D01*
X133299330Y-72991459D01*
X134077979Y-72212811D01*
X134084356Y-72201132D01*
X134814408Y-72201132D01*
X134814539Y-72202966D01*
X134818790Y-72209580D01*
X135596307Y-72987096D01*
X135608313Y-72993652D01*
X135620052Y-72984684D01*
X135658010Y-72931859D01*
X135663321Y-72923020D01*
X135761318Y-72724737D01*
X135765117Y-72715142D01*
X135829415Y-72503517D01*
X135831594Y-72493436D01*
X135860702Y-72272338D01*
X135861221Y-72265663D01*
X135862744Y-72203364D01*
X135862550Y-72196646D01*
X135844279Y-71974400D01*
X135842596Y-71964238D01*
X135788710Y-71749708D01*
X135785389Y-71739953D01*
X135697193Y-71537118D01*
X135692315Y-71528020D01*
X135619224Y-71415038D01*
X135608538Y-71405835D01*
X135598973Y-71410238D01*
X134822021Y-72187189D01*
X134814408Y-72201132D01*
X134084356Y-72201132D01*
X134085592Y-72198868D01*
X134085461Y-72197034D01*
X134081210Y-72190420D01*
X133303862Y-71413073D01*
X133292331Y-71406776D01*
X133282877Y-71414183D01*
X133216918Y-71440450D01*
X133147229Y-71426887D01*
X133099377Y-71383440D01*
X133072571Y-71342004D01*
X133069764Y-71337665D01*
X132913887Y-71166358D01*
X132909836Y-71163159D01*
X132909832Y-71163155D01*
X132754790Y-71040711D01*
X133655508Y-71040711D01*
X133662251Y-71053040D01*
X134437189Y-71827979D01*
X134451132Y-71835592D01*
X134452966Y-71835461D01*
X134459580Y-71831210D01*
X135238994Y-71051795D01*
X135246011Y-71038944D01*
X135238237Y-71028274D01*
X135235902Y-71026430D01*
X135227320Y-71020729D01*
X135033678Y-70913833D01*
X135024272Y-70909606D01*
X134815772Y-70835772D01*
X134805809Y-70833140D01*
X134588047Y-70794350D01*
X134577796Y-70793381D01*
X134356616Y-70790679D01*
X134346332Y-70791399D01*
X134127693Y-70824855D01*
X134117666Y-70827244D01*
X133907426Y-70895961D01*
X133897916Y-70899958D01*
X133701725Y-71002089D01*
X133693007Y-71007578D01*
X133663961Y-71029386D01*
X133655508Y-71040711D01*
X132754790Y-71040711D01*
X132736177Y-71026011D01*
X132736172Y-71026008D01*
X132732123Y-71022810D01*
X132727607Y-71020317D01*
X132727604Y-71020315D01*
X132533879Y-70913373D01*
X132533875Y-70913371D01*
X132529355Y-70910876D01*
X132524486Y-70909152D01*
X132524482Y-70909150D01*
X132315903Y-70835288D01*
X132315899Y-70835287D01*
X132311028Y-70833562D01*
X132305935Y-70832655D01*
X132305932Y-70832654D01*
X132088095Y-70793851D01*
X132088089Y-70793850D01*
X132083006Y-70792945D01*
X132010096Y-70792054D01*
X131856581Y-70790179D01*
X131856579Y-70790179D01*
X131851411Y-70790116D01*
X131622464Y-70825150D01*
X131402314Y-70897106D01*
X131397726Y-70899494D01*
X131397722Y-70899496D01*
X131201461Y-71001663D01*
X131196872Y-71004052D01*
X131192739Y-71007155D01*
X131192736Y-71007157D01*
X131011655Y-71143117D01*
X131010976Y-71142213D01*
X130951730Y-71170131D01*
X130881341Y-71160869D01*
X130827132Y-71115022D01*
X130814325Y-71089866D01*
X130803768Y-71061705D01*
X130803767Y-71061703D01*
X130800615Y-71053295D01*
X130713261Y-70936739D01*
X130596705Y-70849385D01*
X130460316Y-70798255D01*
X130398134Y-70791500D01*
X128501866Y-70791500D01*
X128439684Y-70798255D01*
X128303295Y-70849385D01*
X128186739Y-70936739D01*
X128099385Y-71053295D01*
X128048255Y-71189684D01*
X128041500Y-71251866D01*
X128041500Y-73148134D01*
X87408500Y-73148134D01*
X87408500Y-69548134D01*
X101991500Y-69548134D01*
X101998255Y-69610316D01*
X102049385Y-69746705D01*
X102136739Y-69863261D01*
X102253295Y-69950615D01*
X102389684Y-70001745D01*
X102451866Y-70008500D01*
X105548134Y-70008500D01*
X105610316Y-70001745D01*
X105746705Y-69950615D01*
X105863261Y-69863261D01*
X105950615Y-69746705D01*
X106001745Y-69610316D01*
X106008500Y-69548134D01*
X106008500Y-66512542D01*
X125541500Y-66512542D01*
X125553022Y-66654200D01*
X125608890Y-66871794D01*
X125702409Y-67076055D01*
X125830620Y-67260527D01*
X125989473Y-67419380D01*
X126173945Y-67547591D01*
X126378206Y-67641110D01*
X126595800Y-67696978D01*
X126649705Y-67701362D01*
X126734908Y-67708293D01*
X126734918Y-67708293D01*
X126737458Y-67708500D01*
X128362542Y-67708500D01*
X128365082Y-67708293D01*
X128365092Y-67708293D01*
X128450295Y-67701362D01*
X128504200Y-67696978D01*
X128721794Y-67641110D01*
X128926055Y-67547591D01*
X129110527Y-67419380D01*
X129269380Y-67260527D01*
X129397591Y-67076055D01*
X129491110Y-66871794D01*
X129546978Y-66654200D01*
X129558500Y-66512542D01*
X129558500Y-63887458D01*
X129546978Y-63745800D01*
X129491110Y-63528206D01*
X129397591Y-63323945D01*
X129394236Y-63319117D01*
X129335117Y-63234056D01*
X129269380Y-63139473D01*
X129110527Y-62980620D01*
X128961463Y-62877018D01*
X128930661Y-62855610D01*
X128930659Y-62855609D01*
X128926055Y-62852409D01*
X128721794Y-62758890D01*
X128580378Y-62722581D01*
X128509396Y-62704356D01*
X128509395Y-62704356D01*
X128504200Y-62703022D01*
X128450295Y-62698638D01*
X128365092Y-62691707D01*
X128365082Y-62691707D01*
X128362542Y-62691500D01*
X126737458Y-62691500D01*
X126734918Y-62691707D01*
X126734908Y-62691707D01*
X126649705Y-62698638D01*
X126595800Y-62703022D01*
X126590605Y-62704356D01*
X126590604Y-62704356D01*
X126519622Y-62722581D01*
X126378206Y-62758890D01*
X126173945Y-62852409D01*
X126169341Y-62855609D01*
X126169339Y-62855610D01*
X126138537Y-62877018D01*
X125989473Y-62980620D01*
X125830620Y-63139473D01*
X125764883Y-63234056D01*
X125705765Y-63319117D01*
X125702409Y-63323945D01*
X125608890Y-63528206D01*
X125553022Y-63745800D01*
X125541500Y-63887458D01*
X125541500Y-66512542D01*
X106008500Y-66512542D01*
X106008500Y-66451866D01*
X106001745Y-66389684D01*
X105950615Y-66253295D01*
X105863261Y-66136739D01*
X105746705Y-66049385D01*
X105610316Y-65998255D01*
X105548134Y-65991500D01*
X102451866Y-65991500D01*
X102389684Y-65998255D01*
X102253295Y-66049385D01*
X102136739Y-66136739D01*
X102049385Y-66253295D01*
X101998255Y-66389684D01*
X101991500Y-66451866D01*
X101991500Y-69548134D01*
X87408500Y-69548134D01*
X87408500Y-62978918D01*
X101986917Y-62978918D01*
X102002682Y-63252320D01*
X102003507Y-63256525D01*
X102003508Y-63256533D01*
X102033917Y-63411526D01*
X102055405Y-63521053D01*
X102056792Y-63525103D01*
X102056793Y-63525108D01*
X102077605Y-63585895D01*
X102144112Y-63780144D01*
X102267160Y-64024799D01*
X102269586Y-64028328D01*
X102269589Y-64028334D01*
X102375331Y-64182188D01*
X102422274Y-64250490D01*
X102425161Y-64253663D01*
X102425162Y-64253664D01*
X102558370Y-64400058D01*
X102606582Y-64453043D01*
X102609877Y-64455798D01*
X102609878Y-64455799D01*
X102654382Y-64493010D01*
X102816675Y-64628707D01*
X102820316Y-64630991D01*
X103045024Y-64771951D01*
X103045028Y-64771953D01*
X103048664Y-64774234D01*
X103116544Y-64804883D01*
X103294345Y-64885164D01*
X103294349Y-64885166D01*
X103298257Y-64886930D01*
X103302377Y-64888150D01*
X103302376Y-64888150D01*
X103556723Y-64963491D01*
X103556727Y-64963492D01*
X103560836Y-64964709D01*
X103565070Y-64965357D01*
X103565075Y-64965358D01*
X103827298Y-65005483D01*
X103827300Y-65005483D01*
X103831540Y-65006132D01*
X103970912Y-65008322D01*
X104101071Y-65010367D01*
X104101077Y-65010367D01*
X104105362Y-65010434D01*
X104377235Y-64977534D01*
X104642127Y-64908041D01*
X104646087Y-64906401D01*
X104646092Y-64906399D01*
X104771302Y-64854535D01*
X104895136Y-64803241D01*
X105104083Y-64681142D01*
X105127879Y-64667237D01*
X105127880Y-64667236D01*
X105131582Y-64665073D01*
X105347089Y-64496094D01*
X105360801Y-64481945D01*
X105534686Y-64302509D01*
X105537669Y-64299431D01*
X105540202Y-64295983D01*
X105540206Y-64295978D01*
X105697257Y-64082178D01*
X105699795Y-64078723D01*
X105727154Y-64028334D01*
X105828418Y-63841830D01*
X105828419Y-63841828D01*
X105830468Y-63838054D01*
X105927269Y-63581877D01*
X105987398Y-63319339D01*
X105987449Y-63319117D01*
X105987450Y-63319113D01*
X105988407Y-63314933D01*
X105994432Y-63247432D01*
X106012531Y-63044627D01*
X106012531Y-63044625D01*
X106012751Y-63042161D01*
X106013193Y-63000000D01*
X106009938Y-62952249D01*
X105994859Y-62731055D01*
X105994858Y-62731049D01*
X105994567Y-62726778D01*
X105939032Y-62458612D01*
X105847617Y-62200465D01*
X105722013Y-61957112D01*
X105712040Y-61942921D01*
X105619583Y-61811368D01*
X105564545Y-61733057D01*
X105482259Y-61644507D01*
X105381046Y-61535588D01*
X105381043Y-61535585D01*
X105378125Y-61532445D01*
X105374810Y-61529731D01*
X105374806Y-61529728D01*
X105169523Y-61361706D01*
X105166205Y-61358990D01*
X104932704Y-61215901D01*
X104928768Y-61214173D01*
X104685873Y-61107549D01*
X104685869Y-61107548D01*
X104681945Y-61105825D01*
X104418566Y-61030800D01*
X104414324Y-61030196D01*
X104414318Y-61030195D01*
X104213834Y-61001662D01*
X104147443Y-60992213D01*
X104003589Y-60991460D01*
X103877877Y-60990802D01*
X103877871Y-60990802D01*
X103873591Y-60990780D01*
X103869347Y-60991339D01*
X103869343Y-60991339D01*
X103751253Y-61006886D01*
X103602078Y-61026525D01*
X103597938Y-61027658D01*
X103597936Y-61027658D01*
X103553183Y-61039901D01*
X103337928Y-61098788D01*
X103333980Y-61100472D01*
X103089982Y-61204546D01*
X103089978Y-61204548D01*
X103086030Y-61206232D01*
X103066125Y-61218145D01*
X102854725Y-61344664D01*
X102854721Y-61344667D01*
X102851043Y-61346868D01*
X102637318Y-61518094D01*
X102534236Y-61626720D01*
X102461813Y-61703038D01*
X102448808Y-61716742D01*
X102289002Y-61939136D01*
X102160857Y-62181161D01*
X102159385Y-62185184D01*
X102159383Y-62185188D01*
X102072648Y-62422200D01*
X102066743Y-62438337D01*
X102008404Y-62705907D01*
X102008068Y-62710177D01*
X101995409Y-62871026D01*
X101986917Y-62978918D01*
X87408500Y-62978918D01*
X87408500Y-59589654D01*
X102775618Y-59589654D01*
X102782673Y-59599627D01*
X102813679Y-59625551D01*
X102820598Y-59630579D01*
X103045272Y-59771515D01*
X103052807Y-59775556D01*
X103294520Y-59884694D01*
X103302551Y-59887680D01*
X103556832Y-59963002D01*
X103565184Y-59964869D01*
X103827340Y-60004984D01*
X103835874Y-60005700D01*
X104101045Y-60009867D01*
X104109596Y-60009418D01*
X104372883Y-59977557D01*
X104381284Y-59975955D01*
X104637824Y-59908653D01*
X104645926Y-59905926D01*
X104890949Y-59804434D01*
X104898617Y-59800628D01*
X105127598Y-59666822D01*
X105134679Y-59662009D01*
X105214655Y-59599301D01*
X105223125Y-59587442D01*
X105216608Y-59575818D01*
X104012812Y-58372022D01*
X103998868Y-58364408D01*
X103997035Y-58364539D01*
X103990420Y-58368790D01*
X102782910Y-59576300D01*
X102775618Y-59589654D01*
X87408500Y-59589654D01*
X87408500Y-57983204D01*
X101987665Y-57983204D01*
X102002932Y-58247969D01*
X102004005Y-58256470D01*
X102055065Y-58516722D01*
X102057276Y-58524974D01*
X102143184Y-58775894D01*
X102146499Y-58783779D01*
X102265664Y-59020713D01*
X102270020Y-59028079D01*
X102399347Y-59216250D01*
X102409601Y-59224594D01*
X102423342Y-59217448D01*
X103627978Y-58012812D01*
X103634356Y-58001132D01*
X104364408Y-58001132D01*
X104364539Y-58002965D01*
X104368790Y-58009580D01*
X105575730Y-59216520D01*
X105587939Y-59223187D01*
X105599439Y-59214497D01*
X105696831Y-59081913D01*
X105701418Y-59074685D01*
X105827962Y-58841621D01*
X105831530Y-58833827D01*
X105925271Y-58585750D01*
X105927748Y-58577544D01*
X105986954Y-58319038D01*
X105988294Y-58310577D01*
X106012031Y-58044616D01*
X106012277Y-58039677D01*
X106012666Y-58002485D01*
X106012523Y-57997519D01*
X105994362Y-57731123D01*
X105993201Y-57722649D01*
X105939419Y-57462944D01*
X105937120Y-57454709D01*
X105848588Y-57204705D01*
X105845191Y-57196854D01*
X105723550Y-56961178D01*
X105719122Y-56953866D01*
X105600031Y-56784417D01*
X105589509Y-56776037D01*
X105576121Y-56783089D01*
X104372022Y-57987188D01*
X104364408Y-58001132D01*
X103634356Y-58001132D01*
X103635592Y-57998868D01*
X103635461Y-57997035D01*
X103631210Y-57990420D01*
X102423814Y-56783024D01*
X102411804Y-56776466D01*
X102400064Y-56785434D01*
X102291935Y-56935911D01*
X102287418Y-56943196D01*
X102163325Y-57177567D01*
X102159839Y-57185395D01*
X102068700Y-57434446D01*
X102066311Y-57442670D01*
X102009812Y-57701795D01*
X102008563Y-57710250D01*
X101987754Y-57974653D01*
X101987665Y-57983204D01*
X87408500Y-57983204D01*
X87408500Y-56412500D01*
X102776584Y-56412500D01*
X102782980Y-56423770D01*
X103987188Y-57627978D01*
X104001132Y-57635592D01*
X104002965Y-57635461D01*
X104009580Y-57631210D01*
X105216604Y-56424186D01*
X105223795Y-56411017D01*
X105216473Y-56400780D01*
X105169233Y-56362115D01*
X105162261Y-56357160D01*
X104936122Y-56218582D01*
X104928552Y-56214624D01*
X104685704Y-56108022D01*
X104677644Y-56105120D01*
X104422592Y-56032467D01*
X104414214Y-56030685D01*
X104151656Y-55993318D01*
X104143111Y-55992691D01*
X103877908Y-55991302D01*
X103869374Y-55991839D01*
X103606433Y-56026456D01*
X103598035Y-56028149D01*
X103342238Y-56098127D01*
X103334143Y-56100946D01*
X103090199Y-56204997D01*
X103082577Y-56208881D01*
X102855013Y-56345075D01*
X102847981Y-56349962D01*
X102785053Y-56400377D01*
X102776584Y-56412500D01*
X87408500Y-56412500D01*
X87408500Y-53829343D01*
X122956775Y-53829343D01*
X122973381Y-53998699D01*
X122975605Y-54005384D01*
X122975605Y-54005385D01*
X122980464Y-54019991D01*
X123027094Y-54160167D01*
X123030743Y-54166192D01*
X123100931Y-54282086D01*
X123110307Y-54300975D01*
X123117803Y-54319908D01*
X123121648Y-54331138D01*
X123133982Y-54373593D01*
X123138015Y-54380412D01*
X123138017Y-54380417D01*
X123144293Y-54391028D01*
X123152988Y-54408776D01*
X123160448Y-54427617D01*
X123165110Y-54434033D01*
X123165110Y-54434034D01*
X123186436Y-54463387D01*
X123192952Y-54473307D01*
X123215458Y-54511362D01*
X123229779Y-54525683D01*
X123242619Y-54540716D01*
X123254528Y-54557107D01*
X123273976Y-54573196D01*
X123288605Y-54585298D01*
X123297384Y-54593288D01*
X131566343Y-62862247D01*
X131573887Y-62870537D01*
X131578000Y-62877018D01*
X131583777Y-62882443D01*
X131627667Y-62923658D01*
X131630509Y-62926413D01*
X131650230Y-62946134D01*
X131653425Y-62948612D01*
X131662447Y-62956318D01*
X131694679Y-62986586D01*
X131701628Y-62990406D01*
X131712432Y-62996346D01*
X131728956Y-63007199D01*
X131744959Y-63019613D01*
X131785543Y-63037176D01*
X131796173Y-63042383D01*
X131834940Y-63063695D01*
X131842617Y-63065666D01*
X131842622Y-63065668D01*
X131854558Y-63068732D01*
X131873266Y-63075137D01*
X131891855Y-63083181D01*
X131899683Y-63084421D01*
X131899690Y-63084423D01*
X131935524Y-63090099D01*
X131947144Y-63092505D01*
X131978959Y-63100673D01*
X131989970Y-63103500D01*
X132010224Y-63103500D01*
X132029934Y-63105051D01*
X132049943Y-63108220D01*
X132057835Y-63107474D01*
X132076580Y-63105702D01*
X132093962Y-63104059D01*
X132105819Y-63103500D01*
X134414606Y-63103500D01*
X134482727Y-63123502D01*
X134529220Y-63177158D01*
X134539324Y-63247432D01*
X134518071Y-63301409D01*
X134505614Y-63319333D01*
X134502409Y-63323945D01*
X134408890Y-63528206D01*
X134353022Y-63745800D01*
X134341500Y-63887458D01*
X134341500Y-66512542D01*
X134353022Y-66654200D01*
X134408890Y-66871794D01*
X134502409Y-67076055D01*
X134630620Y-67260527D01*
X134789473Y-67419380D01*
X134973945Y-67547591D01*
X135178206Y-67641110D01*
X135395800Y-67696978D01*
X135449705Y-67701362D01*
X135534908Y-67708293D01*
X135534918Y-67708293D01*
X135537458Y-67708500D01*
X137162542Y-67708500D01*
X137165082Y-67708293D01*
X137165092Y-67708293D01*
X137250295Y-67701362D01*
X137304200Y-67696978D01*
X137521794Y-67641110D01*
X137726055Y-67547591D01*
X137910527Y-67419380D01*
X138069380Y-67260527D01*
X138197591Y-67076055D01*
X138291110Y-66871794D01*
X138346978Y-66654200D01*
X138358500Y-66512542D01*
X138358500Y-63887458D01*
X138346978Y-63745800D01*
X138291110Y-63528206D01*
X138197591Y-63323945D01*
X138194386Y-63319333D01*
X138181929Y-63301409D01*
X138159476Y-63234056D01*
X138177002Y-63165257D01*
X138228941Y-63116854D01*
X138285394Y-63103500D01*
X160741233Y-63103500D01*
X160752416Y-63104027D01*
X160759909Y-63105702D01*
X160767835Y-63105453D01*
X160767836Y-63105453D01*
X160827986Y-63103562D01*
X160831945Y-63103500D01*
X160859856Y-63103500D01*
X160863791Y-63103003D01*
X160863856Y-63102995D01*
X160875693Y-63102062D01*
X160907951Y-63101048D01*
X160911970Y-63100922D01*
X160919889Y-63100673D01*
X160939343Y-63095021D01*
X160958700Y-63091013D01*
X160970930Y-63089468D01*
X160970931Y-63089468D01*
X160978797Y-63088474D01*
X160986168Y-63085555D01*
X160986170Y-63085555D01*
X161019912Y-63072196D01*
X161031142Y-63068351D01*
X161065983Y-63058229D01*
X161065984Y-63058229D01*
X161073593Y-63056018D01*
X161080412Y-63051985D01*
X161080417Y-63051983D01*
X161091028Y-63045707D01*
X161108781Y-63037010D01*
X161120559Y-63032346D01*
X161166937Y-63023500D01*
X164135223Y-63023500D01*
X164204216Y-63044068D01*
X164245846Y-63071310D01*
X164252450Y-63073766D01*
X164252452Y-63073767D01*
X164284149Y-63085555D01*
X164405341Y-63130626D01*
X164574015Y-63153132D01*
X164581026Y-63152494D01*
X164581030Y-63152494D01*
X164736462Y-63138348D01*
X164743483Y-63137709D01*
X164750185Y-63135531D01*
X164750187Y-63135531D01*
X164898623Y-63087301D01*
X164898626Y-63087300D01*
X164905322Y-63085124D01*
X164911373Y-63081517D01*
X164911377Y-63081515D01*
X164955982Y-63054925D01*
X165024736Y-63037224D01*
X165092146Y-63059505D01*
X165136809Y-63114694D01*
X165146500Y-63163153D01*
X165146500Y-64391233D01*
X165145973Y-64402416D01*
X165144298Y-64409909D01*
X165144547Y-64417835D01*
X165144547Y-64417836D01*
X165146438Y-64477986D01*
X165146500Y-64481945D01*
X165146500Y-64509856D01*
X165146997Y-64513790D01*
X165146997Y-64513791D01*
X165147005Y-64513856D01*
X165147938Y-64525693D01*
X165149327Y-64569889D01*
X165154978Y-64589339D01*
X165158987Y-64608700D01*
X165161526Y-64628797D01*
X165164445Y-64636168D01*
X165164445Y-64636170D01*
X165177804Y-64669912D01*
X165181649Y-64681142D01*
X165193982Y-64723593D01*
X165198015Y-64730412D01*
X165198017Y-64730417D01*
X165204293Y-64741028D01*
X165212988Y-64758776D01*
X165220448Y-64777617D01*
X165225110Y-64784033D01*
X165225110Y-64784034D01*
X165246436Y-64813387D01*
X165252952Y-64823307D01*
X165275458Y-64861362D01*
X165289779Y-64875683D01*
X165302619Y-64890716D01*
X165314528Y-64907107D01*
X165320634Y-64912158D01*
X165348605Y-64935298D01*
X165357384Y-64943288D01*
X193376348Y-92962253D01*
X193383888Y-92970539D01*
X193388000Y-92977018D01*
X193393777Y-92982443D01*
X193437651Y-93023643D01*
X193440493Y-93026398D01*
X193460230Y-93046135D01*
X193463427Y-93048615D01*
X193472447Y-93056318D01*
X193504679Y-93086586D01*
X193511625Y-93090405D01*
X193511628Y-93090407D01*
X193522434Y-93096348D01*
X193538953Y-93107199D01*
X193554959Y-93119614D01*
X193562228Y-93122759D01*
X193562232Y-93122762D01*
X193595537Y-93137174D01*
X193606187Y-93142391D01*
X193644940Y-93163695D01*
X193652615Y-93165666D01*
X193652616Y-93165666D01*
X193664562Y-93168733D01*
X193683267Y-93175137D01*
X193701855Y-93183181D01*
X193709678Y-93184420D01*
X193709688Y-93184423D01*
X193745524Y-93190099D01*
X193757144Y-93192505D01*
X193792289Y-93201528D01*
X193799970Y-93203500D01*
X193820224Y-93203500D01*
X193839934Y-93205051D01*
X193859943Y-93208220D01*
X193867835Y-93207474D01*
X193903961Y-93204059D01*
X193915819Y-93203500D01*
X215681543Y-93203500D01*
X215750534Y-93224066D01*
X215788346Y-93248810D01*
X215794950Y-93251266D01*
X215794952Y-93251267D01*
X215831344Y-93264801D01*
X215947841Y-93308126D01*
X216116515Y-93330632D01*
X216123526Y-93329994D01*
X216123530Y-93329994D01*
X216278962Y-93315848D01*
X216285983Y-93315209D01*
X216292685Y-93313031D01*
X216292687Y-93313031D01*
X216441123Y-93264801D01*
X216441126Y-93264800D01*
X216447822Y-93262624D01*
X216593990Y-93175490D01*
X216599084Y-93170639D01*
X216599088Y-93170636D01*
X216683336Y-93090407D01*
X216717221Y-93058139D01*
X216721131Y-93052255D01*
X216776778Y-92968498D01*
X216811391Y-92916402D01*
X216871819Y-92757325D01*
X216895501Y-92588813D01*
X216895799Y-92567500D01*
X216876831Y-92398392D01*
X216820868Y-92237689D01*
X216730692Y-92093379D01*
X216610786Y-91972632D01*
X216467108Y-91881451D01*
X216306800Y-91824368D01*
X216137829Y-91804220D01*
X216130826Y-91804956D01*
X216130825Y-91804956D01*
X215975601Y-91821270D01*
X215975597Y-91821271D01*
X215968593Y-91822007D01*
X215961922Y-91824278D01*
X215814173Y-91874575D01*
X215814170Y-91874576D01*
X215807503Y-91876846D01*
X215801505Y-91880536D01*
X215801503Y-91880537D01*
X215740904Y-91917818D01*
X215674882Y-91936500D01*
X194194594Y-91936500D01*
X194126473Y-91916498D01*
X194105499Y-91899595D01*
X183924789Y-81718885D01*
X199900823Y-81718885D01*
X199909650Y-81730503D01*
X200136859Y-81895580D01*
X200143539Y-81899820D01*
X200415907Y-82049555D01*
X200423042Y-82052912D01*
X200712029Y-82167331D01*
X200719554Y-82169776D01*
X201020586Y-82247067D01*
X201028357Y-82248550D01*
X201336706Y-82287503D01*
X201344596Y-82288000D01*
X201655404Y-82288000D01*
X201663294Y-82287503D01*
X201971643Y-82248550D01*
X201979414Y-82247067D01*
X202280446Y-82169776D01*
X202287971Y-82167331D01*
X202576958Y-82052912D01*
X202584093Y-82049555D01*
X202856461Y-81899820D01*
X202863141Y-81895580D01*
X203090721Y-81730234D01*
X203099144Y-81719311D01*
X203092240Y-81706450D01*
X201512812Y-80127022D01*
X201498868Y-80119408D01*
X201497035Y-80119539D01*
X201490420Y-80123790D01*
X199907436Y-81706774D01*
X199900823Y-81718885D01*
X183924789Y-81718885D01*
X181964862Y-79758958D01*
X198962241Y-79758958D01*
X198981756Y-80069134D01*
X198982749Y-80076997D01*
X199040984Y-80382276D01*
X199042955Y-80389953D01*
X199138994Y-80685530D01*
X199141909Y-80692893D01*
X199274239Y-80974109D01*
X199278051Y-80981042D01*
X199444582Y-81243455D01*
X199449236Y-81249859D01*
X199526740Y-81343545D01*
X199539258Y-81352000D01*
X199549997Y-81345793D01*
X201127978Y-79767812D01*
X201134356Y-79756132D01*
X201864408Y-79756132D01*
X201864539Y-79757965D01*
X201868790Y-79764580D01*
X203448901Y-81344691D01*
X203462164Y-81351933D01*
X203472266Y-81344746D01*
X203550764Y-81249859D01*
X203555418Y-81243455D01*
X203721949Y-80981042D01*
X203725761Y-80974109D01*
X203858091Y-80692893D01*
X203861006Y-80685530D01*
X203957045Y-80389953D01*
X203959016Y-80382276D01*
X204017251Y-80076997D01*
X204018244Y-80069134D01*
X204037759Y-79758958D01*
X204037759Y-79751042D01*
X204018244Y-79440866D01*
X204017251Y-79433003D01*
X203959016Y-79127724D01*
X203957045Y-79120047D01*
X203861006Y-78824470D01*
X203858091Y-78817107D01*
X203725761Y-78535891D01*
X203721949Y-78528958D01*
X203555418Y-78266545D01*
X203550764Y-78260141D01*
X203473260Y-78166455D01*
X203460742Y-78158000D01*
X203450003Y-78164207D01*
X201872022Y-79742188D01*
X201864408Y-79756132D01*
X201134356Y-79756132D01*
X201135592Y-79753868D01*
X201135461Y-79752035D01*
X201131210Y-79745420D01*
X199551099Y-78165309D01*
X199537836Y-78158067D01*
X199527734Y-78165254D01*
X199449236Y-78260141D01*
X199444582Y-78266545D01*
X199278051Y-78528958D01*
X199274239Y-78535891D01*
X199141909Y-78817107D01*
X199138994Y-78824470D01*
X199042955Y-79120047D01*
X199040984Y-79127724D01*
X198982749Y-79433003D01*
X198981756Y-79440866D01*
X198962241Y-79751042D01*
X198962241Y-79758958D01*
X181964862Y-79758958D01*
X179996593Y-77790689D01*
X199900856Y-77790689D01*
X199907760Y-77803550D01*
X201487188Y-79382978D01*
X201501132Y-79390592D01*
X201502965Y-79390461D01*
X201509580Y-79386210D01*
X203092564Y-77803226D01*
X203099177Y-77791115D01*
X203090350Y-77779497D01*
X202863141Y-77614420D01*
X202856461Y-77610180D01*
X202584093Y-77460445D01*
X202576958Y-77457088D01*
X202287971Y-77342669D01*
X202280446Y-77340224D01*
X201979414Y-77262933D01*
X201971643Y-77261450D01*
X201663294Y-77222497D01*
X201655404Y-77222000D01*
X201344596Y-77222000D01*
X201336706Y-77222497D01*
X201028357Y-77261450D01*
X201020586Y-77262933D01*
X200719554Y-77340224D01*
X200712029Y-77342669D01*
X200423042Y-77457088D01*
X200415907Y-77460445D01*
X200143539Y-77610180D01*
X200136859Y-77614420D01*
X199909279Y-77779766D01*
X199900856Y-77790689D01*
X179996593Y-77790689D01*
X166450405Y-64244500D01*
X166416379Y-64182188D01*
X166413500Y-64155405D01*
X166413500Y-61649343D01*
X172866775Y-61649343D01*
X172883381Y-61818699D01*
X172885605Y-61825384D01*
X172885605Y-61825385D01*
X172901742Y-61873895D01*
X172937094Y-61980167D01*
X173025246Y-62125723D01*
X173143455Y-62248132D01*
X173149351Y-62251990D01*
X173239942Y-62311271D01*
X173285846Y-62341310D01*
X173292450Y-62343766D01*
X173292452Y-62343767D01*
X173328844Y-62357301D01*
X173445341Y-62400626D01*
X173614015Y-62423132D01*
X173621026Y-62422494D01*
X173621030Y-62422494D01*
X173776462Y-62408348D01*
X173783483Y-62407709D01*
X173790185Y-62405531D01*
X173790187Y-62405531D01*
X173938623Y-62357301D01*
X173938626Y-62357300D01*
X173945322Y-62355124D01*
X173951373Y-62351517D01*
X173951375Y-62351516D01*
X174018887Y-62311271D01*
X174083404Y-62293500D01*
X193825406Y-62293500D01*
X193893527Y-62313502D01*
X193914501Y-62330405D01*
X216246343Y-84662247D01*
X216253887Y-84670537D01*
X216258000Y-84677018D01*
X216263777Y-84682443D01*
X216307667Y-84723658D01*
X216310509Y-84726413D01*
X216330231Y-84746135D01*
X216333355Y-84748558D01*
X216333359Y-84748562D01*
X216333424Y-84748612D01*
X216342445Y-84756317D01*
X216374679Y-84786586D01*
X216381627Y-84790405D01*
X216381629Y-84790407D01*
X216392432Y-84796346D01*
X216408959Y-84807202D01*
X216418698Y-84814757D01*
X216418700Y-84814758D01*
X216424960Y-84819614D01*
X216465540Y-84837174D01*
X216476188Y-84842391D01*
X216514940Y-84863695D01*
X216522616Y-84865666D01*
X216522619Y-84865667D01*
X216534562Y-84868733D01*
X216553267Y-84875137D01*
X216571855Y-84883181D01*
X216579678Y-84884420D01*
X216579688Y-84884423D01*
X216615524Y-84890099D01*
X216627144Y-84892505D01*
X216662289Y-84901528D01*
X216669970Y-84903500D01*
X216690224Y-84903500D01*
X216709934Y-84905051D01*
X216729943Y-84908220D01*
X216737835Y-84907474D01*
X216773961Y-84904059D01*
X216785819Y-84903500D01*
X217035223Y-84903500D01*
X217104216Y-84924068D01*
X217145846Y-84951310D01*
X217152450Y-84953766D01*
X217152452Y-84953767D01*
X217188844Y-84967301D01*
X217305341Y-85010626D01*
X217474015Y-85033132D01*
X217481026Y-85032494D01*
X217481030Y-85032494D01*
X217636462Y-85018348D01*
X217643483Y-85017709D01*
X217650185Y-85015531D01*
X217650187Y-85015531D01*
X217798623Y-84967301D01*
X217798626Y-84967300D01*
X217805322Y-84965124D01*
X217951490Y-84877990D01*
X217956584Y-84873139D01*
X217956588Y-84873136D01*
X218025825Y-84807202D01*
X218074721Y-84760639D01*
X218084358Y-84746135D01*
X218135941Y-84668495D01*
X218168891Y-84618902D01*
X218229319Y-84459825D01*
X218253001Y-84291313D01*
X218253299Y-84270000D01*
X218234331Y-84100892D01*
X218178368Y-83940189D01*
X218088192Y-83795879D01*
X217968286Y-83675132D01*
X217824608Y-83583951D01*
X217664300Y-83526868D01*
X217495329Y-83506720D01*
X217488326Y-83507456D01*
X217488325Y-83507456D01*
X217333101Y-83523770D01*
X217333097Y-83523771D01*
X217326093Y-83524507D01*
X217165003Y-83579346D01*
X217149516Y-83588874D01*
X217119894Y-83607097D01*
X217051393Y-83625755D01*
X216983679Y-83604416D01*
X216964778Y-83588874D01*
X202965559Y-69589654D01*
X222775618Y-69589654D01*
X222782673Y-69599627D01*
X222813679Y-69625551D01*
X222820598Y-69630579D01*
X223045272Y-69771515D01*
X223052807Y-69775556D01*
X223294520Y-69884694D01*
X223302551Y-69887680D01*
X223556832Y-69963002D01*
X223565184Y-69964869D01*
X223827340Y-70004984D01*
X223835874Y-70005700D01*
X224101045Y-70009867D01*
X224109596Y-70009418D01*
X224372883Y-69977557D01*
X224381284Y-69975955D01*
X224637824Y-69908653D01*
X224645926Y-69905926D01*
X224890949Y-69804434D01*
X224898617Y-69800628D01*
X225127598Y-69666822D01*
X225134679Y-69662009D01*
X225214655Y-69599301D01*
X225223125Y-69587442D01*
X225216608Y-69575818D01*
X224012812Y-68372022D01*
X223998868Y-68364408D01*
X223997035Y-68364539D01*
X223990420Y-68368790D01*
X222782910Y-69576300D01*
X222775618Y-69589654D01*
X202965559Y-69589654D01*
X201359109Y-67983204D01*
X221987665Y-67983204D01*
X222002932Y-68247969D01*
X222004005Y-68256470D01*
X222055065Y-68516722D01*
X222057276Y-68524974D01*
X222143184Y-68775894D01*
X222146499Y-68783779D01*
X222265664Y-69020713D01*
X222270020Y-69028079D01*
X222399347Y-69216250D01*
X222409601Y-69224594D01*
X222423342Y-69217448D01*
X223627978Y-68012812D01*
X223634356Y-68001132D01*
X224364408Y-68001132D01*
X224364539Y-68002965D01*
X224368790Y-68009580D01*
X225575730Y-69216520D01*
X225587939Y-69223187D01*
X225599439Y-69214497D01*
X225696831Y-69081913D01*
X225701418Y-69074685D01*
X225827962Y-68841621D01*
X225831530Y-68833827D01*
X225925271Y-68585750D01*
X225927748Y-68577544D01*
X225986954Y-68319038D01*
X225988294Y-68310577D01*
X226012031Y-68044616D01*
X226012277Y-68039677D01*
X226012666Y-68002485D01*
X226012523Y-67997519D01*
X225994362Y-67731123D01*
X225993201Y-67722649D01*
X225939419Y-67462944D01*
X225937120Y-67454709D01*
X225848588Y-67204705D01*
X225845191Y-67196854D01*
X225723550Y-66961178D01*
X225719122Y-66953866D01*
X225600031Y-66784417D01*
X225589509Y-66776037D01*
X225576121Y-66783089D01*
X224372022Y-67987188D01*
X224364408Y-68001132D01*
X223634356Y-68001132D01*
X223635592Y-67998868D01*
X223635461Y-67997035D01*
X223631210Y-67990420D01*
X222423814Y-66783024D01*
X222411804Y-66776466D01*
X222400064Y-66785434D01*
X222291935Y-66935911D01*
X222287418Y-66943196D01*
X222163325Y-67177567D01*
X222159839Y-67185395D01*
X222068700Y-67434446D01*
X222066311Y-67442670D01*
X222009812Y-67701795D01*
X222008563Y-67710250D01*
X221987754Y-67974653D01*
X221987665Y-67983204D01*
X201359109Y-67983204D01*
X199788405Y-66412500D01*
X222776584Y-66412500D01*
X222782980Y-66423770D01*
X223987188Y-67627978D01*
X224001132Y-67635592D01*
X224002965Y-67635461D01*
X224009580Y-67631210D01*
X225216604Y-66424186D01*
X225223795Y-66411017D01*
X225216473Y-66400780D01*
X225169233Y-66362115D01*
X225162261Y-66357160D01*
X224936122Y-66218582D01*
X224928552Y-66214624D01*
X224685704Y-66108022D01*
X224677644Y-66105120D01*
X224422592Y-66032467D01*
X224414214Y-66030685D01*
X224151656Y-65993318D01*
X224143111Y-65992691D01*
X223877908Y-65991302D01*
X223869374Y-65991839D01*
X223606433Y-66026456D01*
X223598035Y-66028149D01*
X223342238Y-66098127D01*
X223334143Y-66100946D01*
X223090199Y-66204997D01*
X223082577Y-66208881D01*
X222855013Y-66345075D01*
X222847981Y-66349962D01*
X222785053Y-66400377D01*
X222776584Y-66412500D01*
X199788405Y-66412500D01*
X196354823Y-62978918D01*
X221986917Y-62978918D01*
X222002682Y-63252320D01*
X222003507Y-63256525D01*
X222003508Y-63256533D01*
X222033917Y-63411526D01*
X222055405Y-63521053D01*
X222056792Y-63525103D01*
X222056793Y-63525108D01*
X222077605Y-63585895D01*
X222144112Y-63780144D01*
X222267160Y-64024799D01*
X222269586Y-64028328D01*
X222269589Y-64028334D01*
X222375331Y-64182188D01*
X222422274Y-64250490D01*
X222425161Y-64253663D01*
X222425162Y-64253664D01*
X222558370Y-64400058D01*
X222606582Y-64453043D01*
X222609877Y-64455798D01*
X222609878Y-64455799D01*
X222654382Y-64493010D01*
X222816675Y-64628707D01*
X222820316Y-64630991D01*
X223045024Y-64771951D01*
X223045028Y-64771953D01*
X223048664Y-64774234D01*
X223116544Y-64804883D01*
X223294345Y-64885164D01*
X223294349Y-64885166D01*
X223298257Y-64886930D01*
X223302377Y-64888150D01*
X223302376Y-64888150D01*
X223556723Y-64963491D01*
X223556727Y-64963492D01*
X223560836Y-64964709D01*
X223565070Y-64965357D01*
X223565075Y-64965358D01*
X223827298Y-65005483D01*
X223827300Y-65005483D01*
X223831540Y-65006132D01*
X223970912Y-65008322D01*
X224101071Y-65010367D01*
X224101077Y-65010367D01*
X224105362Y-65010434D01*
X224377235Y-64977534D01*
X224642127Y-64908041D01*
X224646087Y-64906401D01*
X224646092Y-64906399D01*
X224771302Y-64854535D01*
X224895136Y-64803241D01*
X225104083Y-64681142D01*
X225127879Y-64667237D01*
X225127880Y-64667236D01*
X225131582Y-64665073D01*
X225347089Y-64496094D01*
X225360801Y-64481945D01*
X225534686Y-64302509D01*
X225537669Y-64299431D01*
X225540202Y-64295983D01*
X225540206Y-64295978D01*
X225697257Y-64082178D01*
X225699795Y-64078723D01*
X225727154Y-64028334D01*
X225828418Y-63841830D01*
X225828419Y-63841828D01*
X225830468Y-63838054D01*
X225927269Y-63581877D01*
X225987398Y-63319339D01*
X225987449Y-63319117D01*
X225987450Y-63319113D01*
X225988407Y-63314933D01*
X225994432Y-63247432D01*
X226012531Y-63044627D01*
X226012531Y-63044625D01*
X226012751Y-63042161D01*
X226013193Y-63000000D01*
X226009938Y-62952249D01*
X225994859Y-62731055D01*
X225994858Y-62731049D01*
X225994567Y-62726778D01*
X225939032Y-62458612D01*
X225847617Y-62200465D01*
X225722013Y-61957112D01*
X225712040Y-61942921D01*
X225619583Y-61811368D01*
X225564545Y-61733057D01*
X225482259Y-61644507D01*
X225381046Y-61535588D01*
X225381043Y-61535585D01*
X225378125Y-61532445D01*
X225374810Y-61529731D01*
X225374806Y-61529728D01*
X225169523Y-61361706D01*
X225166205Y-61358990D01*
X224932704Y-61215901D01*
X224928768Y-61214173D01*
X224685873Y-61107549D01*
X224685869Y-61107548D01*
X224681945Y-61105825D01*
X224418566Y-61030800D01*
X224414324Y-61030196D01*
X224414318Y-61030195D01*
X224213834Y-61001662D01*
X224147443Y-60992213D01*
X224003589Y-60991460D01*
X223877877Y-60990802D01*
X223877871Y-60990802D01*
X223873591Y-60990780D01*
X223869347Y-60991339D01*
X223869343Y-60991339D01*
X223751253Y-61006886D01*
X223602078Y-61026525D01*
X223597938Y-61027658D01*
X223597936Y-61027658D01*
X223553183Y-61039901D01*
X223337928Y-61098788D01*
X223333980Y-61100472D01*
X223089982Y-61204546D01*
X223089978Y-61204548D01*
X223086030Y-61206232D01*
X223066125Y-61218145D01*
X222854725Y-61344664D01*
X222854721Y-61344667D01*
X222851043Y-61346868D01*
X222637318Y-61518094D01*
X222534236Y-61626720D01*
X222461813Y-61703038D01*
X222448808Y-61716742D01*
X222289002Y-61939136D01*
X222160857Y-62181161D01*
X222159385Y-62185184D01*
X222159383Y-62185188D01*
X222072648Y-62422200D01*
X222066743Y-62438337D01*
X222008404Y-62705907D01*
X222008068Y-62710177D01*
X221995409Y-62871026D01*
X221986917Y-62978918D01*
X196354823Y-62978918D01*
X194643652Y-61267747D01*
X194636112Y-61259461D01*
X194632000Y-61252982D01*
X194582348Y-61206356D01*
X194579507Y-61203602D01*
X194559770Y-61183865D01*
X194556573Y-61181385D01*
X194547551Y-61173680D01*
X194521100Y-61148841D01*
X194515321Y-61143414D01*
X194508375Y-61139595D01*
X194508372Y-61139593D01*
X194497566Y-61133652D01*
X194481047Y-61122801D01*
X194480583Y-61122441D01*
X194465041Y-61110386D01*
X194457772Y-61107241D01*
X194457768Y-61107238D01*
X194424463Y-61092826D01*
X194413813Y-61087609D01*
X194375060Y-61066305D01*
X194355437Y-61061267D01*
X194336734Y-61054863D01*
X194325420Y-61049967D01*
X194325419Y-61049967D01*
X194318145Y-61046819D01*
X194310322Y-61045580D01*
X194310312Y-61045577D01*
X194274476Y-61039901D01*
X194262856Y-61037495D01*
X194227711Y-61028472D01*
X194227710Y-61028472D01*
X194220030Y-61026500D01*
X194199776Y-61026500D01*
X194180065Y-61024949D01*
X194167886Y-61023020D01*
X194160057Y-61021780D01*
X194152165Y-61022526D01*
X194116039Y-61025941D01*
X194104181Y-61026500D01*
X174084018Y-61026500D01*
X174016506Y-61006887D01*
X173964608Y-60973951D01*
X173804300Y-60916868D01*
X173635329Y-60896720D01*
X173628326Y-60897456D01*
X173628325Y-60897456D01*
X173473101Y-60913770D01*
X173473097Y-60913771D01*
X173466093Y-60914507D01*
X173459422Y-60916778D01*
X173311673Y-60967075D01*
X173311670Y-60967076D01*
X173305003Y-60969346D01*
X173299005Y-60973036D01*
X173299003Y-60973037D01*
X173166065Y-61054821D01*
X173166063Y-61054823D01*
X173160066Y-61058512D01*
X173102136Y-61115242D01*
X173077270Y-61139593D01*
X173038486Y-61177573D01*
X173034675Y-61183487D01*
X173034673Y-61183489D01*
X172986030Y-61258968D01*
X172946304Y-61320610D01*
X172888103Y-61480516D01*
X172866775Y-61649343D01*
X166413500Y-61649343D01*
X166413500Y-60253269D01*
X166414027Y-60242086D01*
X166415702Y-60234593D01*
X166413562Y-60166516D01*
X166413500Y-60162557D01*
X166413500Y-60134646D01*
X166412995Y-60130646D01*
X166412062Y-60118803D01*
X166410922Y-60082532D01*
X166410673Y-60074613D01*
X166405021Y-60055159D01*
X166401013Y-60035802D01*
X166399468Y-60023572D01*
X166399468Y-60023571D01*
X166398474Y-60015705D01*
X166394229Y-60004984D01*
X166382196Y-59974590D01*
X166378351Y-59963360D01*
X166368229Y-59928519D01*
X166368229Y-59928518D01*
X166366018Y-59920909D01*
X166361985Y-59914090D01*
X166361983Y-59914085D01*
X166355707Y-59903474D01*
X166347012Y-59885726D01*
X166339552Y-59866885D01*
X166313564Y-59831115D01*
X166307048Y-59821195D01*
X166288580Y-59789967D01*
X166288578Y-59789964D01*
X166284542Y-59783140D01*
X166270221Y-59768819D01*
X166257380Y-59753785D01*
X166250132Y-59743809D01*
X166245472Y-59737395D01*
X166211401Y-59709209D01*
X166202622Y-59701220D01*
X166049536Y-59548134D01*
X221991500Y-59548134D01*
X221998255Y-59610316D01*
X222049385Y-59746705D01*
X222136739Y-59863261D01*
X222253295Y-59950615D01*
X222389684Y-60001745D01*
X222451866Y-60008500D01*
X225548134Y-60008500D01*
X225610316Y-60001745D01*
X225746705Y-59950615D01*
X225863261Y-59863261D01*
X225950615Y-59746705D01*
X226001745Y-59610316D01*
X226008500Y-59548134D01*
X226008500Y-56451866D01*
X226001745Y-56389684D01*
X225950615Y-56253295D01*
X225863261Y-56136739D01*
X225746705Y-56049385D01*
X225610316Y-55998255D01*
X225548134Y-55991500D01*
X222451866Y-55991500D01*
X222389684Y-55998255D01*
X222253295Y-56049385D01*
X222136739Y-56136739D01*
X222049385Y-56253295D01*
X221998255Y-56389684D01*
X221991500Y-56451866D01*
X221991500Y-59548134D01*
X166049536Y-59548134D01*
X165794604Y-59293202D01*
X165764708Y-59245545D01*
X165756922Y-59223187D01*
X165708866Y-59085189D01*
X165702303Y-59074685D01*
X165635048Y-58967057D01*
X165618690Y-58940879D01*
X165613727Y-58935881D01*
X165613722Y-58935875D01*
X165521775Y-58843283D01*
X165487968Y-58780853D01*
X165493280Y-58710055D01*
X165536025Y-58653368D01*
X165602632Y-58628790D01*
X165611181Y-58628500D01*
X166910786Y-58628500D01*
X166912106Y-58628507D01*
X167002221Y-58629451D01*
X167044597Y-58620289D01*
X167057163Y-58618231D01*
X167100255Y-58613397D01*
X167106906Y-58611081D01*
X167106910Y-58611080D01*
X167131930Y-58602367D01*
X167146742Y-58598204D01*
X167172619Y-58592609D01*
X167179510Y-58591119D01*
X167218813Y-58572792D01*
X167230589Y-58568010D01*
X167271552Y-58553745D01*
X167277527Y-58550011D01*
X167277530Y-58550010D01*
X167299995Y-58535973D01*
X167313512Y-58528634D01*
X167337514Y-58517441D01*
X167337515Y-58517440D01*
X167343902Y-58514462D01*
X167378153Y-58487894D01*
X167388612Y-58480598D01*
X167419404Y-58461358D01*
X167419407Y-58461356D01*
X167425376Y-58457626D01*
X167454179Y-58429024D01*
X167454804Y-58428439D01*
X167455470Y-58427922D01*
X167481458Y-58401934D01*
X167554082Y-58329815D01*
X167554740Y-58328778D01*
X167555843Y-58327549D01*
X169078839Y-56804552D01*
X169079776Y-56803623D01*
X169139251Y-56745381D01*
X169139252Y-56745380D01*
X169144283Y-56740453D01*
X169148098Y-56734534D01*
X169148104Y-56734526D01*
X169167770Y-56704010D01*
X169175203Y-56693665D01*
X169202252Y-56659781D01*
X169216849Y-56629586D01*
X169224378Y-56616169D01*
X169238724Y-56593908D01*
X169242541Y-56587986D01*
X169244949Y-56581369D01*
X169244952Y-56581364D01*
X169257368Y-56547251D01*
X169262329Y-56535508D01*
X169278129Y-56502824D01*
X169278132Y-56502815D01*
X169281197Y-56496475D01*
X169288742Y-56463796D01*
X169293110Y-56449049D01*
X169293201Y-56448800D01*
X169304579Y-56417539D01*
X169305461Y-56410554D01*
X169305463Y-56410547D01*
X169310013Y-56374532D01*
X169312248Y-56361981D01*
X169320416Y-56326602D01*
X169322001Y-56319739D01*
X169322031Y-56311313D01*
X169322143Y-56279150D01*
X169322172Y-56278281D01*
X169322276Y-56277455D01*
X169322276Y-56240938D01*
X169322401Y-56205189D01*
X169322622Y-56141888D01*
X169322622Y-56141882D01*
X169322634Y-56138354D01*
X169322365Y-56137151D01*
X169322276Y-56135507D01*
X169322276Y-49896099D01*
X169342278Y-49827978D01*
X169359181Y-49807004D01*
X170145158Y-49021027D01*
X170146095Y-49020099D01*
X170205475Y-48961950D01*
X170205476Y-48961949D01*
X170210507Y-48957022D01*
X170233998Y-48920572D01*
X170241417Y-48910247D01*
X170268476Y-48876350D01*
X170283073Y-48846155D01*
X170290602Y-48832738D01*
X170304948Y-48810477D01*
X170308765Y-48804555D01*
X170311173Y-48797938D01*
X170311176Y-48797933D01*
X170323592Y-48763820D01*
X170328553Y-48752077D01*
X170344353Y-48719393D01*
X170344356Y-48719384D01*
X170347421Y-48713044D01*
X170354966Y-48680365D01*
X170359334Y-48665618D01*
X170364333Y-48651884D01*
X170368552Y-48640293D01*
X222100095Y-48640293D01*
X222101669Y-48680365D01*
X222109586Y-48881851D01*
X222110636Y-48908588D01*
X222158875Y-49172720D01*
X222243850Y-49427421D01*
X222262641Y-49465027D01*
X222359074Y-49658019D01*
X222363865Y-49667608D01*
X222516524Y-49888488D01*
X222698783Y-50085655D01*
X222702237Y-50088467D01*
X222903548Y-50252360D01*
X222903552Y-50252363D01*
X222907005Y-50255174D01*
X223137035Y-50393664D01*
X223384284Y-50498360D01*
X223388577Y-50499498D01*
X223388582Y-50499500D01*
X223524080Y-50535426D01*
X223643818Y-50567174D01*
X223910458Y-50598733D01*
X224178885Y-50592407D01*
X224183279Y-50591676D01*
X224183286Y-50591675D01*
X224439341Y-50549056D01*
X224439345Y-50549055D01*
X224443743Y-50548323D01*
X224699747Y-50467359D01*
X224703758Y-50465433D01*
X224703763Y-50465431D01*
X224937770Y-50353062D01*
X224937771Y-50353061D01*
X224941789Y-50351132D01*
X224978434Y-50326647D01*
X225161332Y-50204439D01*
X225161336Y-50204436D01*
X225165040Y-50201961D01*
X225365045Y-50022821D01*
X225537814Y-49817287D01*
X225540313Y-49813281D01*
X225677542Y-49593242D01*
X225677542Y-49593241D01*
X225679900Y-49589461D01*
X225788467Y-49343888D01*
X225861349Y-49085467D01*
X225884216Y-48915221D01*
X225896665Y-48822537D01*
X225896666Y-48822529D01*
X225897092Y-48819355D01*
X225898041Y-48789160D01*
X225900742Y-48703222D01*
X225900742Y-48703217D01*
X225900843Y-48700000D01*
X225881880Y-48432169D01*
X225865250Y-48354923D01*
X225826304Y-48174029D01*
X225826304Y-48174027D01*
X225825368Y-48169682D01*
X225732435Y-47917776D01*
X225604935Y-47681477D01*
X225445412Y-47465501D01*
X225424410Y-47444166D01*
X225297150Y-47314892D01*
X225257050Y-47274157D01*
X225253510Y-47271456D01*
X225253504Y-47271450D01*
X225047147Y-47113963D01*
X225047143Y-47113960D01*
X225043606Y-47111261D01*
X224809340Y-46980066D01*
X224558924Y-46883188D01*
X224554599Y-46882185D01*
X224554594Y-46882184D01*
X224384816Y-46842832D01*
X224297357Y-46822560D01*
X224029857Y-46799392D01*
X224025422Y-46799636D01*
X224025418Y-46799636D01*
X223766204Y-46813901D01*
X223766197Y-46813902D01*
X223761761Y-46814146D01*
X223498419Y-46866528D01*
X223245084Y-46955493D01*
X223006812Y-47079265D01*
X223003197Y-47081848D01*
X223003191Y-47081852D01*
X222791978Y-47232787D01*
X222791974Y-47232790D01*
X222788357Y-47235375D01*
X222728544Y-47292434D01*
X222607401Y-47407999D01*
X222594077Y-47420709D01*
X222427850Y-47631568D01*
X222292991Y-47863745D01*
X222291323Y-47867862D01*
X222291320Y-47867869D01*
X222272693Y-47913858D01*
X222192191Y-48112607D01*
X222127462Y-48373190D01*
X222100095Y-48640293D01*
X170368552Y-48640293D01*
X170370803Y-48634108D01*
X170371685Y-48627123D01*
X170371687Y-48627116D01*
X170376237Y-48591101D01*
X170378472Y-48578550D01*
X170386640Y-48543171D01*
X170388225Y-48536308D01*
X170388367Y-48495721D01*
X170388396Y-48494851D01*
X170388500Y-48494024D01*
X170388500Y-48457383D01*
X170388572Y-48436621D01*
X170388845Y-48358450D01*
X170388845Y-48358445D01*
X170388857Y-48354923D01*
X170388589Y-48353723D01*
X170388500Y-48352085D01*
X170388500Y-46989260D01*
X170388507Y-46987941D01*
X170389377Y-46904826D01*
X170389451Y-46897779D01*
X170380289Y-46855403D01*
X170378230Y-46842832D01*
X170374182Y-46806744D01*
X170373397Y-46799745D01*
X170366337Y-46779469D01*
X170362367Y-46768070D01*
X170358204Y-46753258D01*
X170352609Y-46727381D01*
X170351119Y-46720490D01*
X170332793Y-46681189D01*
X170328008Y-46669406D01*
X170313745Y-46628448D01*
X170295979Y-46600016D01*
X170288640Y-46586499D01*
X170277440Y-46562481D01*
X170277438Y-46562477D01*
X170274463Y-46556098D01*
X170270146Y-46550532D01*
X170247891Y-46521840D01*
X170240597Y-46511385D01*
X170221359Y-46480598D01*
X170217626Y-46474624D01*
X170189024Y-46445821D01*
X170188439Y-46445196D01*
X170187922Y-46444530D01*
X170161932Y-46418540D01*
X170089815Y-46345918D01*
X170088778Y-46345260D01*
X170087549Y-46344157D01*
X169795405Y-46052013D01*
X169761379Y-45989701D01*
X169758500Y-45962918D01*
X169758500Y-45404390D01*
X169743397Y-45269745D01*
X169741080Y-45263091D01*
X169686064Y-45105106D01*
X169686062Y-45105103D01*
X169683745Y-45098448D01*
X169660694Y-45061558D01*
X169591359Y-44950598D01*
X169587626Y-44944624D01*
X169567965Y-44924825D01*
X169464778Y-44820915D01*
X169464774Y-44820912D01*
X169459815Y-44815918D01*
X169448697Y-44808862D01*
X169365892Y-44756313D01*
X169306666Y-44718727D01*
X169277463Y-44708328D01*
X169142425Y-44660243D01*
X169142420Y-44660242D01*
X169135790Y-44657881D01*
X169128802Y-44657048D01*
X169128799Y-44657047D01*
X169005698Y-44642368D01*
X168955680Y-44636404D01*
X168948677Y-44637140D01*
X168948676Y-44637140D01*
X168782288Y-44654628D01*
X168782286Y-44654629D01*
X168775288Y-44655364D01*
X168603579Y-44713818D01*
X168562710Y-44738961D01*
X168455095Y-44805166D01*
X168455092Y-44805168D01*
X168449088Y-44808862D01*
X168444053Y-44813793D01*
X168444050Y-44813795D01*
X168324525Y-44930843D01*
X168319493Y-44935771D01*
X168221235Y-45088238D01*
X168218826Y-45094858D01*
X168218824Y-45094861D01*
X168178450Y-45205787D01*
X168159197Y-45258685D01*
X168141500Y-45398769D01*
X168141500Y-46340786D01*
X168141493Y-46342106D01*
X168140549Y-46432221D01*
X168149711Y-46474597D01*
X168151769Y-46487163D01*
X168156603Y-46530255D01*
X168158919Y-46536906D01*
X168158920Y-46536910D01*
X168167633Y-46561930D01*
X168171796Y-46576742D01*
X168178881Y-46609510D01*
X168197208Y-46648813D01*
X168201990Y-46660589D01*
X168216255Y-46701552D01*
X168219989Y-46707527D01*
X168219990Y-46707530D01*
X168234027Y-46729995D01*
X168241366Y-46743512D01*
X168245911Y-46753258D01*
X168255538Y-46773902D01*
X168259855Y-46779467D01*
X168259856Y-46779469D01*
X168282106Y-46808153D01*
X168289402Y-46818612D01*
X168292498Y-46823566D01*
X168312374Y-46855376D01*
X168317334Y-46860371D01*
X168317335Y-46860372D01*
X168340976Y-46884179D01*
X168341561Y-46884804D01*
X168342078Y-46885470D01*
X168368063Y-46911455D01*
X168413830Y-46957542D01*
X168440185Y-46984082D01*
X168441221Y-46984740D01*
X168442451Y-46985843D01*
X168734595Y-47277987D01*
X168768621Y-47340299D01*
X168771500Y-47367082D01*
X168771500Y-48055711D01*
X168751498Y-48123832D01*
X168734595Y-48144806D01*
X168227517Y-48651884D01*
X168179026Y-48682067D01*
X168167355Y-48686040D01*
X168164920Y-48687538D01*
X168162224Y-48688477D01*
X168156749Y-48691898D01*
X168156745Y-48691900D01*
X168088013Y-48734847D01*
X168087282Y-48735301D01*
X168012864Y-48781084D01*
X168010825Y-48783081D01*
X168008400Y-48784596D01*
X168003804Y-48789160D01*
X167946283Y-48846281D01*
X167945657Y-48846898D01*
X167883269Y-48907993D01*
X167881723Y-48910392D01*
X167879694Y-48912407D01*
X167876231Y-48917863D01*
X167876230Y-48917865D01*
X167832822Y-48986267D01*
X167832364Y-48986983D01*
X167785011Y-49060460D01*
X167784035Y-49063143D01*
X167782503Y-49065556D01*
X167773227Y-49091607D01*
X167753174Y-49147921D01*
X167752876Y-49148748D01*
X167727462Y-49218574D01*
X167722973Y-49230907D01*
X167722615Y-49233742D01*
X167721657Y-49236432D01*
X167716119Y-49282877D01*
X167711297Y-49323308D01*
X167711198Y-49324110D01*
X167705276Y-49370991D01*
X167705276Y-49373120D01*
X167705013Y-49376011D01*
X167700180Y-49416542D01*
X167700916Y-49423545D01*
X167700916Y-49423546D01*
X167704586Y-49458462D01*
X167705276Y-49471633D01*
X167705276Y-50463094D01*
X167685274Y-50531215D01*
X167631618Y-50577708D01*
X167561344Y-50587812D01*
X167496764Y-50558318D01*
X167490181Y-50552189D01*
X166929445Y-49991453D01*
X166926702Y-49989264D01*
X166926695Y-49989257D01*
X166829061Y-49911318D01*
X166823557Y-49906924D01*
X166811080Y-49900892D01*
X166666593Y-49831045D01*
X166666594Y-49831045D01*
X166660251Y-49827979D01*
X166483515Y-49787176D01*
X166476477Y-49787151D01*
X166476473Y-49787151D01*
X166392822Y-49786859D01*
X166302130Y-49786543D01*
X166295265Y-49788078D01*
X166295261Y-49788078D01*
X166182511Y-49813281D01*
X166125113Y-49826111D01*
X165961261Y-49903914D01*
X165955725Y-49908270D01*
X165955724Y-49908271D01*
X165850018Y-49991453D01*
X165818717Y-50016084D01*
X165814285Y-50021557D01*
X165814282Y-50021560D01*
X165709002Y-50151571D01*
X165704567Y-50157048D01*
X165624484Y-50319797D01*
X165582449Y-50496245D01*
X165582375Y-50503288D01*
X165582375Y-50503290D01*
X165581596Y-50577708D01*
X165580549Y-50677621D01*
X165593345Y-50736802D01*
X165617391Y-50848021D01*
X165617392Y-50848025D01*
X165618881Y-50854910D01*
X165695538Y-51019302D01*
X165699851Y-51024862D01*
X165699852Y-51024864D01*
X165770051Y-51115365D01*
X165782078Y-51130870D01*
X166415155Y-51763947D01*
X166417906Y-51766143D01*
X166417916Y-51766152D01*
X166498286Y-51830311D01*
X166519236Y-51851555D01*
X166535937Y-51873086D01*
X166535944Y-51873094D01*
X166538368Y-51876219D01*
X166704595Y-52042446D01*
X166738621Y-52104758D01*
X166741500Y-52131541D01*
X166741500Y-55472918D01*
X166721498Y-55541039D01*
X166704595Y-55562014D01*
X166412012Y-55854596D01*
X166349700Y-55888621D01*
X166322917Y-55891500D01*
X165317283Y-55891500D01*
X165274188Y-55883901D01*
X165212934Y-55861606D01*
X165212933Y-55861606D01*
X165206315Y-55859197D01*
X165066231Y-55841500D01*
X164394581Y-55841500D01*
X164394141Y-55841499D01*
X164295657Y-55841155D01*
X164295652Y-55841155D01*
X164292130Y-55841143D01*
X164290930Y-55841411D01*
X164289293Y-55841500D01*
X163657082Y-55841500D01*
X163588961Y-55821498D01*
X163567987Y-55804595D01*
X161888234Y-54124842D01*
X161887306Y-54123905D01*
X161829157Y-54064525D01*
X161829156Y-54064524D01*
X161824229Y-54059493D01*
X161787779Y-54036002D01*
X161777454Y-54028583D01*
X161743557Y-54001524D01*
X161713362Y-53986927D01*
X161699945Y-53979398D01*
X161671762Y-53961235D01*
X161665145Y-53958827D01*
X161665140Y-53958824D01*
X161631027Y-53946408D01*
X161619284Y-53941447D01*
X161586597Y-53925646D01*
X161586592Y-53925644D01*
X161580251Y-53922579D01*
X161573393Y-53920996D01*
X161573391Y-53920995D01*
X161555108Y-53916774D01*
X161547572Y-53915035D01*
X161532831Y-53910668D01*
X161501315Y-53899197D01*
X161494325Y-53898314D01*
X161494317Y-53898312D01*
X161458299Y-53893762D01*
X161445747Y-53891526D01*
X161410386Y-53883362D01*
X161410383Y-53883362D01*
X161403515Y-53881776D01*
X161396469Y-53881751D01*
X161396466Y-53881751D01*
X161362944Y-53881634D01*
X161362062Y-53881605D01*
X161361231Y-53881500D01*
X161324581Y-53881500D01*
X161324141Y-53881499D01*
X161225657Y-53881155D01*
X161225652Y-53881155D01*
X161222130Y-53881143D01*
X161220930Y-53881411D01*
X161219293Y-53881500D01*
X158514471Y-53881500D01*
X158484841Y-53877967D01*
X158479232Y-53876610D01*
X158472608Y-53874199D01*
X158465616Y-53873316D01*
X158465609Y-53873314D01*
X158429592Y-53868764D01*
X158417040Y-53866528D01*
X158381679Y-53858364D01*
X158381676Y-53858364D01*
X158374808Y-53856778D01*
X158367762Y-53856753D01*
X158367759Y-53856753D01*
X158334237Y-53856636D01*
X158333355Y-53856607D01*
X158332524Y-53856502D01*
X158295874Y-53856502D01*
X158295434Y-53856501D01*
X158196950Y-53856157D01*
X158196945Y-53856157D01*
X158193423Y-53856145D01*
X158192223Y-53856413D01*
X158190586Y-53856502D01*
X157544871Y-53856502D01*
X157543552Y-53856495D01*
X157453486Y-53855552D01*
X157446600Y-53857041D01*
X157446598Y-53857041D01*
X157428298Y-53860998D01*
X157411121Y-53864712D01*
X157398542Y-53866772D01*
X157362448Y-53870820D01*
X157362445Y-53870821D01*
X157355452Y-53871605D01*
X157348807Y-53873919D01*
X157348798Y-53873921D01*
X157348595Y-53873992D01*
X157348172Y-53874064D01*
X157341928Y-53875482D01*
X157341849Y-53875133D01*
X157307160Y-53881000D01*
X155576582Y-53881000D01*
X155508461Y-53860998D01*
X155487487Y-53844095D01*
X155455405Y-53812013D01*
X155421379Y-53749701D01*
X155418500Y-53722918D01*
X155418500Y-51659264D01*
X155418507Y-51657945D01*
X155418688Y-51640644D01*
X155419451Y-51567783D01*
X155410289Y-51525407D01*
X155408230Y-51512836D01*
X155404182Y-51476748D01*
X155403397Y-51469749D01*
X155397112Y-51451699D01*
X155392367Y-51438074D01*
X155388204Y-51423262D01*
X155382609Y-51397385D01*
X155381119Y-51390494D01*
X155362793Y-51351193D01*
X155358008Y-51339410D01*
X155343745Y-51298452D01*
X155325979Y-51270020D01*
X155318640Y-51256503D01*
X155307440Y-51232485D01*
X155307438Y-51232481D01*
X155304463Y-51226102D01*
X155300146Y-51220536D01*
X155277891Y-51191844D01*
X155270597Y-51181389D01*
X155251359Y-51150602D01*
X155247626Y-51144628D01*
X155242663Y-51139630D01*
X155219024Y-51115825D01*
X155218439Y-51115200D01*
X155217922Y-51114534D01*
X155191932Y-51088544D01*
X155119815Y-51015922D01*
X155118778Y-51015264D01*
X155117549Y-51014161D01*
X153418230Y-49314842D01*
X153417302Y-49313905D01*
X153359153Y-49254525D01*
X153359152Y-49254524D01*
X153354225Y-49249493D01*
X153317775Y-49226002D01*
X153307450Y-49218583D01*
X153273553Y-49191524D01*
X153243358Y-49176927D01*
X153229941Y-49169398D01*
X153201758Y-49151235D01*
X153195141Y-49148827D01*
X153195136Y-49148824D01*
X153161023Y-49136408D01*
X153149280Y-49131447D01*
X153116593Y-49115646D01*
X153116588Y-49115644D01*
X153110247Y-49112579D01*
X153103389Y-49110996D01*
X153103387Y-49110995D01*
X153077570Y-49105035D01*
X153062827Y-49100668D01*
X153031311Y-49089197D01*
X153024321Y-49088314D01*
X153024313Y-49088312D01*
X152988295Y-49083762D01*
X152975743Y-49081526D01*
X152940382Y-49073362D01*
X152940379Y-49073362D01*
X152933511Y-49071776D01*
X152926465Y-49071751D01*
X152926462Y-49071751D01*
X152892940Y-49071634D01*
X152892058Y-49071605D01*
X152891227Y-49071500D01*
X152854577Y-49071500D01*
X152854137Y-49071499D01*
X152755653Y-49071155D01*
X152755648Y-49071155D01*
X152752126Y-49071143D01*
X152750926Y-49071411D01*
X152749289Y-49071500D01*
X135277082Y-49071500D01*
X135208961Y-49051498D01*
X135187987Y-49034595D01*
X132042676Y-45889284D01*
X132041748Y-45888347D01*
X131983599Y-45828967D01*
X131983598Y-45828966D01*
X131978671Y-45823935D01*
X131942221Y-45800444D01*
X131931896Y-45793025D01*
X131897999Y-45765966D01*
X131867804Y-45751369D01*
X131854387Y-45743840D01*
X131826204Y-45725677D01*
X131819587Y-45723269D01*
X131819582Y-45723266D01*
X131785469Y-45710850D01*
X131773726Y-45705889D01*
X131741039Y-45690088D01*
X131741034Y-45690086D01*
X131734693Y-45687021D01*
X131727835Y-45685438D01*
X131727833Y-45685437D01*
X131702016Y-45679477D01*
X131687273Y-45675110D01*
X131655757Y-45663639D01*
X131648767Y-45662756D01*
X131648759Y-45662754D01*
X131612741Y-45658204D01*
X131600189Y-45655968D01*
X131564828Y-45647804D01*
X131564825Y-45647804D01*
X131557957Y-45646218D01*
X131550911Y-45646193D01*
X131550908Y-45646193D01*
X131517386Y-45646076D01*
X131516504Y-45646047D01*
X131515673Y-45645942D01*
X131479023Y-45645942D01*
X131478583Y-45645941D01*
X131380099Y-45645597D01*
X131380094Y-45645597D01*
X131376572Y-45645585D01*
X131375372Y-45645853D01*
X131373735Y-45645942D01*
X130729153Y-45645942D01*
X130661032Y-45625940D01*
X130614539Y-45572284D01*
X130604435Y-45502010D01*
X130633929Y-45437430D01*
X130640058Y-45430847D01*
X131210500Y-44860405D01*
X131272812Y-44826379D01*
X131299595Y-44823500D01*
X157188243Y-44823500D01*
X157256364Y-44843502D01*
X157278879Y-44861972D01*
X157323455Y-44908132D01*
X157465846Y-45001310D01*
X157472450Y-45003766D01*
X157472452Y-45003767D01*
X157508844Y-45017301D01*
X157625341Y-45060626D01*
X157794015Y-45083132D01*
X157801026Y-45082494D01*
X157801030Y-45082494D01*
X157956462Y-45068348D01*
X157963483Y-45067709D01*
X157970185Y-45065531D01*
X157970187Y-45065531D01*
X158118623Y-45017301D01*
X158118626Y-45017300D01*
X158125322Y-45015124D01*
X158271490Y-44927990D01*
X158276584Y-44923139D01*
X158276588Y-44923136D01*
X158378192Y-44826379D01*
X158394721Y-44810639D01*
X158488891Y-44668902D01*
X158549319Y-44509825D01*
X158573001Y-44341313D01*
X158573299Y-44320000D01*
X158569210Y-44283545D01*
X158581494Y-44213619D01*
X158629633Y-44161435D01*
X158694425Y-44143500D01*
X159715406Y-44143500D01*
X159783527Y-44163502D01*
X159804501Y-44180405D01*
X160482627Y-44858531D01*
X160513089Y-44907852D01*
X160562094Y-45055167D01*
X160565741Y-45061189D01*
X160565742Y-45061191D01*
X160586134Y-45094861D01*
X160650246Y-45200723D01*
X160768455Y-45323132D01*
X160774351Y-45326990D01*
X160898016Y-45407914D01*
X160910846Y-45416310D01*
X160917450Y-45418766D01*
X160917452Y-45418767D01*
X160990593Y-45445968D01*
X161070341Y-45475626D01*
X161239015Y-45498132D01*
X161246026Y-45497494D01*
X161246030Y-45497494D01*
X161401462Y-45483348D01*
X161408483Y-45482709D01*
X161415185Y-45480531D01*
X161415187Y-45480531D01*
X161563623Y-45432301D01*
X161563626Y-45432300D01*
X161570322Y-45430124D01*
X161716490Y-45342990D01*
X161721584Y-45338139D01*
X161721588Y-45338136D01*
X161811970Y-45252066D01*
X161839721Y-45225639D01*
X161933891Y-45083902D01*
X161994319Y-44924825D01*
X162018001Y-44756313D01*
X162018299Y-44735000D01*
X161999331Y-44565892D01*
X161943368Y-44405189D01*
X161853192Y-44260879D01*
X161733286Y-44140132D01*
X161589608Y-44048951D01*
X161429300Y-43991868D01*
X161429814Y-43990424D01*
X161376850Y-43960946D01*
X161356197Y-43940293D01*
X222100095Y-43940293D01*
X222102007Y-43988954D01*
X222108865Y-44163502D01*
X222110636Y-44208588D01*
X222158875Y-44472720D01*
X222187740Y-44559238D01*
X222224327Y-44668902D01*
X222243850Y-44727421D01*
X222291858Y-44823500D01*
X222355366Y-44950598D01*
X222363865Y-44967608D01*
X222516524Y-45188488D01*
X222698783Y-45385655D01*
X222702237Y-45388467D01*
X222903548Y-45552360D01*
X222903552Y-45552363D01*
X222907005Y-45555174D01*
X223137035Y-45693664D01*
X223141130Y-45695398D01*
X223141132Y-45695399D01*
X223371664Y-45793016D01*
X223384284Y-45798360D01*
X223388577Y-45799498D01*
X223388582Y-45799500D01*
X223499719Y-45828967D01*
X223643818Y-45867174D01*
X223910458Y-45898733D01*
X224178885Y-45892407D01*
X224183279Y-45891676D01*
X224183286Y-45891675D01*
X224439341Y-45849056D01*
X224439345Y-45849055D01*
X224443743Y-45848323D01*
X224618621Y-45793016D01*
X224695501Y-45768702D01*
X224695503Y-45768701D01*
X224699747Y-45767359D01*
X224703758Y-45765433D01*
X224703763Y-45765431D01*
X224937770Y-45653062D01*
X224937771Y-45653061D01*
X224941789Y-45651132D01*
X224946770Y-45647804D01*
X225161332Y-45504439D01*
X225161336Y-45504436D01*
X225165040Y-45501961D01*
X225347946Y-45338136D01*
X225361727Y-45325793D01*
X225361728Y-45325792D01*
X225365045Y-45322821D01*
X225537814Y-45117287D01*
X225549564Y-45098448D01*
X225677542Y-44893242D01*
X225677542Y-44893241D01*
X225679900Y-44889461D01*
X225788467Y-44643888D01*
X225861349Y-44385467D01*
X225884431Y-44213619D01*
X225896665Y-44122537D01*
X225896666Y-44122529D01*
X225897092Y-44119355D01*
X225900843Y-44000000D01*
X225881880Y-43732169D01*
X225825368Y-43469682D01*
X225732435Y-43217776D01*
X225645338Y-43056357D01*
X225607048Y-42985393D01*
X225604935Y-42981477D01*
X225445412Y-42765501D01*
X225442111Y-42762147D01*
X225352928Y-42671553D01*
X225257050Y-42574157D01*
X225253510Y-42571456D01*
X225253504Y-42571450D01*
X225047147Y-42413963D01*
X225047143Y-42413960D01*
X225043606Y-42411261D01*
X224809340Y-42280066D01*
X224558924Y-42183188D01*
X224554599Y-42182185D01*
X224554594Y-42182184D01*
X224552700Y-42181745D01*
X232903795Y-42181745D01*
X232903871Y-42182815D01*
X232907055Y-42187648D01*
X233187342Y-42402720D01*
X233192972Y-42406575D01*
X233497929Y-42591992D01*
X233503931Y-42595210D01*
X233827139Y-42746611D01*
X233833444Y-42749159D01*
X234171117Y-42864771D01*
X234177668Y-42866624D01*
X234525838Y-42945087D01*
X234532557Y-42946224D01*
X234887174Y-42986628D01*
X234893964Y-42987031D01*
X235250865Y-42988899D01*
X235257666Y-42988567D01*
X235612686Y-42951880D01*
X235619414Y-42950814D01*
X235968402Y-42875997D01*
X235974950Y-42874218D01*
X236313820Y-42762147D01*
X236320162Y-42759661D01*
X236644921Y-42611660D01*
X236650975Y-42608495D01*
X236957839Y-42426293D01*
X236963520Y-42422490D01*
X237248918Y-42208207D01*
X237254145Y-42203821D01*
X237266988Y-42191803D01*
X237275057Y-42178123D01*
X237275029Y-42177398D01*
X237269887Y-42169097D01*
X235102812Y-40002022D01*
X235088868Y-39994408D01*
X235087035Y-39994539D01*
X235080420Y-39998790D01*
X232911409Y-42167801D01*
X232903795Y-42181745D01*
X224552700Y-42181745D01*
X224410944Y-42148888D01*
X224297357Y-42122560D01*
X224029857Y-42099392D01*
X224025422Y-42099636D01*
X224025418Y-42099636D01*
X223766204Y-42113901D01*
X223766197Y-42113902D01*
X223761761Y-42114146D01*
X223498419Y-42166528D01*
X223245084Y-42255493D01*
X223006812Y-42379265D01*
X223003197Y-42381848D01*
X223003191Y-42381852D01*
X222791978Y-42532787D01*
X222791974Y-42532790D01*
X222788357Y-42535375D01*
X222594077Y-42720709D01*
X222591321Y-42724205D01*
X222435573Y-42921772D01*
X222427850Y-42931568D01*
X222292991Y-43163745D01*
X222291323Y-43167862D01*
X222291320Y-43167869D01*
X222272693Y-43213858D01*
X222192191Y-43412607D01*
X222127462Y-43673190D01*
X222100095Y-43940293D01*
X161356197Y-43940293D01*
X160533647Y-43117742D01*
X160526113Y-43109463D01*
X160522000Y-43102982D01*
X160472348Y-43056356D01*
X160469507Y-43053602D01*
X160449770Y-43033865D01*
X160446573Y-43031385D01*
X160437551Y-43023680D01*
X160424122Y-43011069D01*
X160405321Y-42993414D01*
X160398375Y-42989595D01*
X160398372Y-42989593D01*
X160387566Y-42983652D01*
X160371047Y-42972801D01*
X160370583Y-42972441D01*
X160355041Y-42960386D01*
X160347772Y-42957241D01*
X160347768Y-42957238D01*
X160314463Y-42942826D01*
X160303813Y-42937609D01*
X160265060Y-42916305D01*
X160245437Y-42911267D01*
X160226734Y-42904863D01*
X160215420Y-42899967D01*
X160215419Y-42899967D01*
X160208145Y-42896819D01*
X160200322Y-42895580D01*
X160200312Y-42895577D01*
X160164476Y-42889901D01*
X160152856Y-42887495D01*
X160117711Y-42878472D01*
X160117710Y-42878472D01*
X160110030Y-42876500D01*
X160089776Y-42876500D01*
X160070065Y-42874949D01*
X160057886Y-42873020D01*
X160050057Y-42871780D01*
X160020786Y-42874547D01*
X160006039Y-42875941D01*
X159994181Y-42876500D01*
X130698767Y-42876500D01*
X130687584Y-42875973D01*
X130680091Y-42874298D01*
X130672165Y-42874547D01*
X130672164Y-42874547D01*
X130612014Y-42876438D01*
X130608055Y-42876500D01*
X130580144Y-42876500D01*
X130576210Y-42876997D01*
X130576209Y-42876997D01*
X130576144Y-42877005D01*
X130564307Y-42877938D01*
X130532490Y-42878938D01*
X130528029Y-42879078D01*
X130520110Y-42879327D01*
X130502454Y-42884456D01*
X130500658Y-42884978D01*
X130481306Y-42888986D01*
X130474235Y-42889880D01*
X130461203Y-42891526D01*
X130453834Y-42894443D01*
X130453832Y-42894444D01*
X130420097Y-42907800D01*
X130408869Y-42911645D01*
X130366407Y-42923982D01*
X130359584Y-42928017D01*
X130359582Y-42928018D01*
X130348972Y-42934293D01*
X130331224Y-42942988D01*
X130312383Y-42950448D01*
X130305967Y-42955110D01*
X130305966Y-42955110D01*
X130276613Y-42976436D01*
X130266693Y-42982952D01*
X130235465Y-43001420D01*
X130235462Y-43001422D01*
X130228638Y-43005458D01*
X130214317Y-43019779D01*
X130199284Y-43032619D01*
X130182893Y-43044528D01*
X130174217Y-43055016D01*
X130154702Y-43078605D01*
X130146712Y-43087384D01*
X126087747Y-47146348D01*
X126079461Y-47153888D01*
X126072982Y-47158000D01*
X126067557Y-47163777D01*
X126026357Y-47207651D01*
X126023602Y-47210493D01*
X126003865Y-47230230D01*
X126001385Y-47233427D01*
X125993682Y-47242447D01*
X125963414Y-47274679D01*
X125959595Y-47281625D01*
X125959593Y-47281628D01*
X125953652Y-47292434D01*
X125942801Y-47308953D01*
X125930386Y-47324959D01*
X125927241Y-47332228D01*
X125927238Y-47332232D01*
X125912826Y-47365537D01*
X125907609Y-47376187D01*
X125886305Y-47414940D01*
X125884334Y-47422615D01*
X125884334Y-47422616D01*
X125881267Y-47434562D01*
X125874863Y-47453266D01*
X125870946Y-47462319D01*
X125866819Y-47471855D01*
X125865580Y-47479678D01*
X125865577Y-47479688D01*
X125859901Y-47515524D01*
X125857495Y-47527144D01*
X125846500Y-47569970D01*
X125846500Y-47590224D01*
X125844949Y-47609934D01*
X125841780Y-47629943D01*
X125842526Y-47637835D01*
X125845941Y-47673961D01*
X125846500Y-47685819D01*
X125846500Y-51232943D01*
X125831563Y-51291544D01*
X125829516Y-51294440D01*
X125763402Y-51458489D01*
X125736801Y-51633349D01*
X125737394Y-51640641D01*
X125737394Y-51640644D01*
X125738856Y-51658614D01*
X125751140Y-51809637D01*
X125753394Y-51816596D01*
X125753395Y-51816599D01*
X125772709Y-51876219D01*
X125805649Y-51977899D01*
X125809445Y-51984154D01*
X125809446Y-51984157D01*
X125894496Y-52124314D01*
X125894499Y-52124318D01*
X125897405Y-52129107D01*
X125901114Y-52133306D01*
X125901117Y-52133311D01*
X125903509Y-52136019D01*
X125904803Y-52137484D01*
X127196230Y-53428911D01*
X127208616Y-53443323D01*
X127217149Y-53454918D01*
X127217154Y-53454923D01*
X127221492Y-53460818D01*
X127227070Y-53465557D01*
X127227073Y-53465560D01*
X127261768Y-53495035D01*
X127269284Y-53501965D01*
X127274979Y-53507660D01*
X127277861Y-53509940D01*
X127297251Y-53525281D01*
X127300655Y-53528072D01*
X127350703Y-53570591D01*
X127356285Y-53575333D01*
X127362801Y-53578661D01*
X127367850Y-53582028D01*
X127372979Y-53585195D01*
X127378716Y-53589734D01*
X127444875Y-53620655D01*
X127448769Y-53622558D01*
X127513808Y-53655769D01*
X127520916Y-53657508D01*
X127526559Y-53659607D01*
X127532322Y-53661524D01*
X127538950Y-53664622D01*
X127602744Y-53677891D01*
X127610412Y-53679486D01*
X127614696Y-53680456D01*
X127685610Y-53697808D01*
X127691212Y-53698156D01*
X127691215Y-53698156D01*
X127696764Y-53698500D01*
X127696762Y-53698536D01*
X127700755Y-53698775D01*
X127704947Y-53699149D01*
X127712115Y-53700640D01*
X127789520Y-53698546D01*
X127792928Y-53698500D01*
X128265195Y-53698500D01*
X128333316Y-53718502D01*
X128346858Y-53728546D01*
X128422313Y-53792764D01*
X128599237Y-53891644D01*
X128791997Y-53954275D01*
X128993251Y-53978273D01*
X128999386Y-53977801D01*
X128999388Y-53977801D01*
X129189192Y-53963197D01*
X129189196Y-53963196D01*
X129195334Y-53962724D01*
X129201266Y-53961068D01*
X129201270Y-53961067D01*
X129366616Y-53914901D01*
X129437606Y-53915847D01*
X129496816Y-53955023D01*
X129525445Y-54019991D01*
X129526500Y-54036259D01*
X129526500Y-55754598D01*
X129529248Y-55778167D01*
X129538976Y-55861606D01*
X129541818Y-55885986D01*
X129544313Y-55892861D01*
X129544314Y-55892863D01*
X129594342Y-56030685D01*
X129602167Y-56052242D01*
X129606178Y-56058359D01*
X129606179Y-56058362D01*
X129657565Y-56136739D01*
X129699144Y-56200157D01*
X129827547Y-56321795D01*
X129980490Y-56410631D01*
X129987494Y-56412752D01*
X129987498Y-56412754D01*
X130106514Y-56448800D01*
X130159086Y-56480295D01*
X135300195Y-61621405D01*
X135334221Y-61683717D01*
X135329156Y-61754532D01*
X135286609Y-61811368D01*
X135220089Y-61836179D01*
X135211100Y-61836500D01*
X132384595Y-61836500D01*
X132316474Y-61816498D01*
X132295500Y-61799595D01*
X124511924Y-54016019D01*
X124477898Y-53953707D01*
X124476245Y-53909390D01*
X124482451Y-53865226D01*
X124483001Y-53861313D01*
X124483299Y-53840000D01*
X124464331Y-53670892D01*
X124460174Y-53658953D01*
X124416405Y-53533269D01*
X124408368Y-53510189D01*
X124402383Y-53500610D01*
X124357579Y-53428911D01*
X124318192Y-53365879D01*
X124198286Y-53245132D01*
X124182039Y-53234821D01*
X124089241Y-53175930D01*
X124054608Y-53153951D01*
X123894300Y-53096868D01*
X123725329Y-53076720D01*
X123718326Y-53077456D01*
X123718325Y-53077456D01*
X123563101Y-53093770D01*
X123563097Y-53093771D01*
X123556093Y-53094507D01*
X123549422Y-53096778D01*
X123401673Y-53147075D01*
X123401670Y-53147076D01*
X123395003Y-53149346D01*
X123389005Y-53153036D01*
X123389003Y-53153037D01*
X123256065Y-53234821D01*
X123256063Y-53234823D01*
X123250066Y-53238512D01*
X123128486Y-53357573D01*
X123036304Y-53500610D01*
X122978103Y-53660516D01*
X122956775Y-53829343D01*
X87408500Y-53829343D01*
X87408500Y-48640293D01*
X102100095Y-48640293D01*
X102101669Y-48680365D01*
X102109586Y-48881851D01*
X102110636Y-48908588D01*
X102158875Y-49172720D01*
X102243850Y-49427421D01*
X102262641Y-49465027D01*
X102359074Y-49658019D01*
X102363865Y-49667608D01*
X102516524Y-49888488D01*
X102698783Y-50085655D01*
X102702237Y-50088467D01*
X102903548Y-50252360D01*
X102903552Y-50252363D01*
X102907005Y-50255174D01*
X103137035Y-50393664D01*
X103384284Y-50498360D01*
X103388577Y-50499498D01*
X103388582Y-50499500D01*
X103524080Y-50535426D01*
X103643818Y-50567174D01*
X103910458Y-50598733D01*
X104178885Y-50592407D01*
X104183279Y-50591676D01*
X104183286Y-50591675D01*
X104439341Y-50549056D01*
X104439345Y-50549055D01*
X104443743Y-50548323D01*
X104699747Y-50467359D01*
X104703758Y-50465433D01*
X104703763Y-50465431D01*
X104937770Y-50353062D01*
X104937771Y-50353061D01*
X104941789Y-50351132D01*
X104978434Y-50326647D01*
X105161332Y-50204439D01*
X105161336Y-50204436D01*
X105165040Y-50201961D01*
X105365045Y-50022821D01*
X105537814Y-49817287D01*
X105540313Y-49813281D01*
X105677542Y-49593242D01*
X105677542Y-49593241D01*
X105679900Y-49589461D01*
X105788467Y-49343888D01*
X105861349Y-49085467D01*
X105884216Y-48915221D01*
X105896665Y-48822537D01*
X105896666Y-48822529D01*
X105897092Y-48819355D01*
X105898041Y-48789160D01*
X105900742Y-48703222D01*
X105900742Y-48703217D01*
X105900843Y-48700000D01*
X105881880Y-48432169D01*
X105865250Y-48354923D01*
X105826304Y-48174029D01*
X105826304Y-48174027D01*
X105825368Y-48169682D01*
X105732435Y-47917776D01*
X105604935Y-47681477D01*
X105445412Y-47465501D01*
X105424410Y-47444166D01*
X105297150Y-47314892D01*
X105257050Y-47274157D01*
X105253510Y-47271456D01*
X105253504Y-47271450D01*
X105047147Y-47113963D01*
X105047143Y-47113960D01*
X105043606Y-47111261D01*
X104809340Y-46980066D01*
X104558924Y-46883188D01*
X104554599Y-46882185D01*
X104554594Y-46882184D01*
X104384816Y-46842832D01*
X104297357Y-46822560D01*
X104029857Y-46799392D01*
X104025422Y-46799636D01*
X104025418Y-46799636D01*
X103766204Y-46813901D01*
X103766197Y-46813902D01*
X103761761Y-46814146D01*
X103498419Y-46866528D01*
X103245084Y-46955493D01*
X103006812Y-47079265D01*
X103003197Y-47081848D01*
X103003191Y-47081852D01*
X102791978Y-47232787D01*
X102791974Y-47232790D01*
X102788357Y-47235375D01*
X102728544Y-47292434D01*
X102607401Y-47407999D01*
X102594077Y-47420709D01*
X102427850Y-47631568D01*
X102292991Y-47863745D01*
X102291323Y-47867862D01*
X102291320Y-47867869D01*
X102272693Y-47913858D01*
X102192191Y-48112607D01*
X102127462Y-48373190D01*
X102100095Y-48640293D01*
X87408500Y-48640293D01*
X87408500Y-43940293D01*
X102100095Y-43940293D01*
X102102007Y-43988954D01*
X102108865Y-44163502D01*
X102110636Y-44208588D01*
X102158875Y-44472720D01*
X102187740Y-44559238D01*
X102224327Y-44668902D01*
X102243850Y-44727421D01*
X102291858Y-44823500D01*
X102355366Y-44950598D01*
X102363865Y-44967608D01*
X102516524Y-45188488D01*
X102698783Y-45385655D01*
X102702237Y-45388467D01*
X102903548Y-45552360D01*
X102903552Y-45552363D01*
X102907005Y-45555174D01*
X103137035Y-45693664D01*
X103141130Y-45695398D01*
X103141132Y-45695399D01*
X103371664Y-45793016D01*
X103384284Y-45798360D01*
X103388577Y-45799498D01*
X103388582Y-45799500D01*
X103499719Y-45828967D01*
X103643818Y-45867174D01*
X103910458Y-45898733D01*
X104178885Y-45892407D01*
X104183279Y-45891676D01*
X104183286Y-45891675D01*
X104439341Y-45849056D01*
X104439345Y-45849055D01*
X104443743Y-45848323D01*
X104618621Y-45793016D01*
X104695501Y-45768702D01*
X104695503Y-45768701D01*
X104699747Y-45767359D01*
X104703758Y-45765433D01*
X104703763Y-45765431D01*
X104937770Y-45653062D01*
X104937771Y-45653061D01*
X104941789Y-45651132D01*
X104946770Y-45647804D01*
X105161332Y-45504439D01*
X105161336Y-45504436D01*
X105165040Y-45501961D01*
X105347946Y-45338136D01*
X105361727Y-45325793D01*
X105361728Y-45325792D01*
X105365045Y-45322821D01*
X105537814Y-45117287D01*
X105549564Y-45098448D01*
X105677542Y-44893242D01*
X105677542Y-44893241D01*
X105679900Y-44889461D01*
X105788467Y-44643888D01*
X105861349Y-44385467D01*
X105884431Y-44213619D01*
X105896665Y-44122537D01*
X105896666Y-44122529D01*
X105897092Y-44119355D01*
X105900843Y-44000000D01*
X105881880Y-43732169D01*
X105825368Y-43469682D01*
X105732435Y-43217776D01*
X105645338Y-43056357D01*
X105607048Y-42985393D01*
X105604935Y-42981477D01*
X105445412Y-42765501D01*
X105442111Y-42762147D01*
X105352928Y-42671553D01*
X105257050Y-42574157D01*
X105253510Y-42571456D01*
X105253504Y-42571450D01*
X105047147Y-42413963D01*
X105047143Y-42413960D01*
X105043606Y-42411261D01*
X104809340Y-42280066D01*
X104558924Y-42183188D01*
X104554599Y-42182185D01*
X104554594Y-42182184D01*
X104410944Y-42148888D01*
X104297357Y-42122560D01*
X104029857Y-42099392D01*
X104025422Y-42099636D01*
X104025418Y-42099636D01*
X103766204Y-42113901D01*
X103766197Y-42113902D01*
X103761761Y-42114146D01*
X103498419Y-42166528D01*
X103245084Y-42255493D01*
X103006812Y-42379265D01*
X103003197Y-42381848D01*
X103003191Y-42381852D01*
X102791978Y-42532787D01*
X102791974Y-42532790D01*
X102788357Y-42535375D01*
X102594077Y-42720709D01*
X102591321Y-42724205D01*
X102435573Y-42921772D01*
X102427850Y-42931568D01*
X102292991Y-43163745D01*
X102291323Y-43167862D01*
X102291320Y-43167869D01*
X102272693Y-43213858D01*
X102192191Y-43412607D01*
X102127462Y-43673190D01*
X102100095Y-43940293D01*
X87408500Y-43940293D01*
X87408500Y-41411745D01*
X89783795Y-41411745D01*
X89783871Y-41412815D01*
X89787055Y-41417648D01*
X90067342Y-41632720D01*
X90072972Y-41636575D01*
X90377929Y-41821992D01*
X90383931Y-41825210D01*
X90707139Y-41976611D01*
X90713444Y-41979159D01*
X91051117Y-42094771D01*
X91057668Y-42096624D01*
X91405838Y-42175087D01*
X91412557Y-42176224D01*
X91767174Y-42216628D01*
X91773964Y-42217031D01*
X92130865Y-42218899D01*
X92137666Y-42218567D01*
X92492686Y-42181880D01*
X92499414Y-42180814D01*
X92848402Y-42105997D01*
X92854950Y-42104218D01*
X93193820Y-41992147D01*
X93200162Y-41989661D01*
X93524921Y-41841660D01*
X93530975Y-41838495D01*
X93837839Y-41656293D01*
X93843520Y-41652490D01*
X94128918Y-41438207D01*
X94134145Y-41433821D01*
X94146988Y-41421803D01*
X94155057Y-41408123D01*
X94155029Y-41407398D01*
X94149887Y-41399097D01*
X91982812Y-39232022D01*
X91968868Y-39224408D01*
X91967035Y-39224539D01*
X91960420Y-39228790D01*
X89791409Y-41397801D01*
X89783795Y-41411745D01*
X87408500Y-41411745D01*
X87408500Y-38851657D01*
X88607260Y-38851657D01*
X88625318Y-39208127D01*
X88626028Y-39214883D01*
X88682478Y-39567305D01*
X88683917Y-39573960D01*
X88778094Y-39918215D01*
X88780243Y-39924676D01*
X88911053Y-40256756D01*
X88913884Y-40262939D01*
X89079792Y-40578949D01*
X89083275Y-40584791D01*
X89282340Y-40881031D01*
X89286442Y-40886475D01*
X89410942Y-41034322D01*
X89423680Y-41042764D01*
X89434124Y-41036666D01*
X91597978Y-38872812D01*
X91604356Y-38861132D01*
X92334408Y-38861132D01*
X92334539Y-38862965D01*
X92338790Y-38869580D01*
X94504463Y-41035253D01*
X94518060Y-41042678D01*
X94527669Y-41035981D01*
X94632197Y-40914457D01*
X94636346Y-40909069D01*
X94755545Y-40735634D01*
X102104000Y-40735634D01*
X102110755Y-40797816D01*
X102161885Y-40934205D01*
X102249239Y-41050761D01*
X102365795Y-41138115D01*
X102502184Y-41189245D01*
X102564366Y-41196000D01*
X105435634Y-41196000D01*
X105497816Y-41189245D01*
X105634205Y-41138115D01*
X105750761Y-41050761D01*
X105838115Y-40934205D01*
X105889245Y-40797816D01*
X105896000Y-40735634D01*
X222104000Y-40735634D01*
X222110755Y-40797816D01*
X222161885Y-40934205D01*
X222249239Y-41050761D01*
X222365795Y-41138115D01*
X222502184Y-41189245D01*
X222564366Y-41196000D01*
X225435634Y-41196000D01*
X225497816Y-41189245D01*
X225634205Y-41138115D01*
X225750761Y-41050761D01*
X225838115Y-40934205D01*
X225889245Y-40797816D01*
X225896000Y-40735634D01*
X225896000Y-39621657D01*
X231727260Y-39621657D01*
X231745318Y-39978127D01*
X231746028Y-39984883D01*
X231802478Y-40337305D01*
X231803917Y-40343960D01*
X231898094Y-40688215D01*
X231900243Y-40694676D01*
X232031053Y-41026756D01*
X232033884Y-41032939D01*
X232199792Y-41348949D01*
X232203275Y-41354791D01*
X232402340Y-41651031D01*
X232406442Y-41656475D01*
X232530942Y-41804322D01*
X232543680Y-41812764D01*
X232554124Y-41806666D01*
X234717978Y-39642812D01*
X234724356Y-39631132D01*
X235454408Y-39631132D01*
X235454539Y-39632965D01*
X235458790Y-39639580D01*
X237624463Y-41805253D01*
X237638060Y-41812678D01*
X237647669Y-41805981D01*
X237752197Y-41684457D01*
X237756346Y-41679069D01*
X237958503Y-41384929D01*
X237962050Y-41379118D01*
X238131250Y-41064879D01*
X238134157Y-41058701D01*
X238268435Y-40728016D01*
X238270649Y-40721586D01*
X238368427Y-40378331D01*
X238369934Y-40371701D01*
X238430073Y-40019873D01*
X238430853Y-40013133D01*
X238452740Y-39655275D01*
X238452856Y-39651673D01*
X238452926Y-39631820D01*
X238452834Y-39628193D01*
X238433446Y-39270208D01*
X238432711Y-39263442D01*
X238375034Y-38911233D01*
X238373567Y-38904561D01*
X238278194Y-38560655D01*
X238276020Y-38554192D01*
X238144053Y-38222575D01*
X238141197Y-38216395D01*
X237974194Y-37900981D01*
X237970682Y-37895137D01*
X237770588Y-37599598D01*
X237766467Y-37594170D01*
X237649041Y-37455704D01*
X237636215Y-37447267D01*
X237625890Y-37453320D01*
X235462022Y-39617188D01*
X235454408Y-39631132D01*
X234724356Y-39631132D01*
X234725592Y-39628868D01*
X234725461Y-39627035D01*
X234721210Y-39620420D01*
X232555527Y-37454737D01*
X232541990Y-37447345D01*
X232532289Y-37454132D01*
X232420649Y-37584847D01*
X232416515Y-37590255D01*
X232215394Y-37885086D01*
X232211859Y-37890923D01*
X232043754Y-38205757D01*
X232040878Y-38211926D01*
X231907754Y-38543081D01*
X231905561Y-38549521D01*
X231808979Y-38893121D01*
X231807496Y-38899756D01*
X231748589Y-39251773D01*
X231747830Y-39258545D01*
X231727284Y-39614862D01*
X231727260Y-39621657D01*
X225896000Y-39621657D01*
X225896000Y-37864366D01*
X225889245Y-37802184D01*
X225838115Y-37665795D01*
X225750761Y-37549239D01*
X225634205Y-37461885D01*
X225497816Y-37410755D01*
X225435634Y-37404000D01*
X222564366Y-37404000D01*
X222502184Y-37410755D01*
X222365795Y-37461885D01*
X222249239Y-37549239D01*
X222161885Y-37665795D01*
X222110755Y-37802184D01*
X222104000Y-37864366D01*
X222104000Y-40735634D01*
X105896000Y-40735634D01*
X105896000Y-37864366D01*
X105889245Y-37802184D01*
X105838115Y-37665795D01*
X105750761Y-37549239D01*
X105634205Y-37461885D01*
X105497816Y-37410755D01*
X105435634Y-37404000D01*
X102564366Y-37404000D01*
X102502184Y-37410755D01*
X102365795Y-37461885D01*
X102249239Y-37549239D01*
X102161885Y-37665795D01*
X102110755Y-37802184D01*
X102104000Y-37864366D01*
X102104000Y-40735634D01*
X94755545Y-40735634D01*
X94838503Y-40614929D01*
X94842050Y-40609118D01*
X95011250Y-40294879D01*
X95014157Y-40288701D01*
X95148435Y-39958016D01*
X95150649Y-39951586D01*
X95248427Y-39608331D01*
X95249934Y-39601701D01*
X95310073Y-39249873D01*
X95310853Y-39243133D01*
X95332740Y-38885275D01*
X95332856Y-38881673D01*
X95332926Y-38861820D01*
X95332834Y-38858193D01*
X95313446Y-38500208D01*
X95312711Y-38493442D01*
X95255034Y-38141233D01*
X95253567Y-38134561D01*
X95158194Y-37790655D01*
X95156020Y-37784192D01*
X95024053Y-37452575D01*
X95021197Y-37446395D01*
X94854194Y-37130981D01*
X94850682Y-37125137D01*
X94821132Y-37081492D01*
X232904580Y-37081492D01*
X232904615Y-37082333D01*
X232909667Y-37090457D01*
X235077188Y-39257978D01*
X235091132Y-39265592D01*
X235092965Y-39265461D01*
X235099580Y-39261210D01*
X237268166Y-37092624D01*
X237275780Y-37078680D01*
X237275712Y-37077723D01*
X237270771Y-37070251D01*
X237266870Y-37066931D01*
X236982958Y-36850649D01*
X236977332Y-36846825D01*
X236671722Y-36662469D01*
X236665710Y-36659272D01*
X236341966Y-36508995D01*
X236335666Y-36506475D01*
X235997595Y-36392045D01*
X235991017Y-36390209D01*
X235642592Y-36312965D01*
X235635857Y-36311850D01*
X235281106Y-36272685D01*
X235274324Y-36272306D01*
X234917395Y-36271683D01*
X234910622Y-36272038D01*
X234555714Y-36309966D01*
X234549005Y-36311053D01*
X234200289Y-36387086D01*
X234193714Y-36388897D01*
X233855250Y-36502145D01*
X233848928Y-36504648D01*
X233524680Y-36653785D01*
X233518637Y-36656971D01*
X233212404Y-36840248D01*
X233206744Y-36844066D01*
X232922094Y-37059346D01*
X232916891Y-37063742D01*
X232912601Y-37067785D01*
X232904580Y-37081492D01*
X94821132Y-37081492D01*
X94650588Y-36829598D01*
X94646467Y-36824170D01*
X94529041Y-36685704D01*
X94516215Y-36677267D01*
X94505890Y-36683320D01*
X92342022Y-38847188D01*
X92334408Y-38861132D01*
X91604356Y-38861132D01*
X91605592Y-38858868D01*
X91605461Y-38857035D01*
X91601210Y-38850420D01*
X89435527Y-36684737D01*
X89421990Y-36677345D01*
X89412289Y-36684132D01*
X89300649Y-36814847D01*
X89296515Y-36820255D01*
X89095394Y-37115086D01*
X89091859Y-37120923D01*
X88923754Y-37435757D01*
X88920878Y-37441925D01*
X88787754Y-37773081D01*
X88785561Y-37779521D01*
X88688979Y-38123121D01*
X88687496Y-38129756D01*
X88628589Y-38481773D01*
X88627830Y-38488545D01*
X88607284Y-38844862D01*
X88607260Y-38851657D01*
X87408500Y-38851657D01*
X87408500Y-36311492D01*
X89784580Y-36311492D01*
X89784615Y-36312333D01*
X89789667Y-36320457D01*
X91957188Y-38487978D01*
X91971132Y-38495592D01*
X91972965Y-38495461D01*
X91979580Y-38491210D01*
X94148166Y-36322624D01*
X94155780Y-36308680D01*
X94155712Y-36307723D01*
X94150771Y-36300251D01*
X94146870Y-36296931D01*
X93862958Y-36080649D01*
X93857332Y-36076825D01*
X93551722Y-35892469D01*
X93545710Y-35889272D01*
X93221966Y-35738995D01*
X93215666Y-35736475D01*
X92877595Y-35622045D01*
X92871017Y-35620209D01*
X92522592Y-35542965D01*
X92515857Y-35541850D01*
X92161106Y-35502685D01*
X92154324Y-35502306D01*
X91797395Y-35501683D01*
X91790622Y-35502038D01*
X91435714Y-35539966D01*
X91429005Y-35541053D01*
X91080289Y-35617086D01*
X91073714Y-35618897D01*
X90735250Y-35732145D01*
X90728928Y-35734648D01*
X90404680Y-35883785D01*
X90398637Y-35886971D01*
X90092404Y-36070248D01*
X90086744Y-36074066D01*
X89802094Y-36289346D01*
X89796891Y-36293742D01*
X89792601Y-36297785D01*
X89784580Y-36311492D01*
X87408500Y-36311492D01*
X87408500Y-33134500D01*
X87428502Y-33066379D01*
X87482158Y-33019886D01*
X87534500Y-33008500D01*
X239145500Y-33008500D01*
X239213621Y-33028502D01*
G37*
%TD.AperFunction*%
%TA.AperFunction,Conductor*%
G36*
X164634714Y-60069068D02*
G01*
X164676344Y-60096310D01*
X164682948Y-60098766D01*
X164682950Y-60098767D01*
X164829231Y-60153169D01*
X164829235Y-60153170D01*
X164835839Y-60155626D01*
X164840755Y-60156282D01*
X164898608Y-60189015D01*
X165109595Y-60400002D01*
X165143621Y-60462314D01*
X165146500Y-60489097D01*
X165146500Y-61615575D01*
X165126498Y-61683696D01*
X165072842Y-61730189D01*
X165002568Y-61740293D01*
X164952989Y-61721962D01*
X164924608Y-61703951D01*
X164764300Y-61646868D01*
X164595329Y-61626720D01*
X164588326Y-61627456D01*
X164588325Y-61627456D01*
X164433101Y-61643770D01*
X164433097Y-61643771D01*
X164426093Y-61644507D01*
X164265003Y-61699346D01*
X164202468Y-61737818D01*
X164136448Y-61756500D01*
X161803141Y-61756500D01*
X161735020Y-61736498D01*
X161688527Y-61682842D01*
X161678423Y-61612568D01*
X161707917Y-61547988D01*
X161714046Y-61541405D01*
X162357898Y-60897554D01*
X163170047Y-60085405D01*
X163232359Y-60051379D01*
X163259142Y-60048500D01*
X164565721Y-60048500D01*
X164634714Y-60069068D01*
G37*
%TD.AperFunction*%
%TA.AperFunction,Conductor*%
G36*
X152521035Y-50708502D02*
G01*
X152542009Y-50725405D01*
X153764595Y-51947990D01*
X153798620Y-52010302D01*
X153801500Y-52037085D01*
X153801500Y-54100786D01*
X153801493Y-54102106D01*
X153800549Y-54192221D01*
X153809711Y-54234597D01*
X153811769Y-54247163D01*
X153816603Y-54290255D01*
X153818919Y-54296906D01*
X153818920Y-54296910D01*
X153827633Y-54321930D01*
X153831796Y-54336742D01*
X153838881Y-54369510D01*
X153857208Y-54408813D01*
X153861990Y-54420589D01*
X153876255Y-54461552D01*
X153879989Y-54467527D01*
X153879990Y-54467530D01*
X153894027Y-54489995D01*
X153901366Y-54503512D01*
X153911705Y-54525683D01*
X153915538Y-54533902D01*
X153919855Y-54539467D01*
X153919856Y-54539469D01*
X153942106Y-54568153D01*
X153949402Y-54578612D01*
X153972374Y-54615376D01*
X153977334Y-54620371D01*
X153977335Y-54620372D01*
X154000976Y-54644179D01*
X154001561Y-54644804D01*
X154002078Y-54645470D01*
X154028068Y-54671460D01*
X154100185Y-54744082D01*
X154101222Y-54744740D01*
X154102451Y-54745843D01*
X154611266Y-55254658D01*
X154612194Y-55255595D01*
X154675271Y-55320007D01*
X154711721Y-55343498D01*
X154722046Y-55350917D01*
X154755943Y-55377976D01*
X154762284Y-55381041D01*
X154762285Y-55381042D01*
X154786137Y-55392572D01*
X154799554Y-55400101D01*
X154827738Y-55418265D01*
X154834355Y-55420673D01*
X154834360Y-55420676D01*
X154868473Y-55433092D01*
X154880216Y-55438053D01*
X154912900Y-55453853D01*
X154912909Y-55453856D01*
X154919249Y-55456921D01*
X154949451Y-55463894D01*
X155011322Y-55498706D01*
X155044554Y-55561445D01*
X155038590Y-55632190D01*
X155010198Y-55675758D01*
X153704437Y-56981518D01*
X152406360Y-58279595D01*
X152344048Y-58313621D01*
X152317265Y-58316500D01*
X142934595Y-58316500D01*
X142866474Y-58296498D01*
X142845500Y-58279595D01*
X135469500Y-50903595D01*
X135435474Y-50841283D01*
X135440539Y-50770468D01*
X135483086Y-50713632D01*
X135549606Y-50688821D01*
X135558595Y-50688500D01*
X152452914Y-50688500D01*
X152521035Y-50708502D01*
G37*
%TD.AperFunction*%
%TA.AperFunction,Conductor*%
G36*
X132018527Y-52448502D02*
G01*
X132039501Y-52465405D01*
X132299595Y-52725499D01*
X132333621Y-52787811D01*
X132336500Y-52814594D01*
X132336500Y-54581902D01*
X132316498Y-54650023D01*
X132264148Y-54695910D01*
X132261668Y-54697077D01*
X132255003Y-54699346D01*
X132249007Y-54703035D01*
X132116065Y-54784821D01*
X132116063Y-54784823D01*
X132110066Y-54788512D01*
X131988486Y-54907573D01*
X131896304Y-55050610D01*
X131838103Y-55210516D01*
X131816775Y-55379343D01*
X131833381Y-55548699D01*
X131835605Y-55555384D01*
X131835605Y-55555385D01*
X131843812Y-55580055D01*
X131887094Y-55710167D01*
X131890741Y-55716189D01*
X131890742Y-55716191D01*
X131928276Y-55778167D01*
X131946500Y-55843438D01*
X131946500Y-56171710D01*
X131926498Y-56239831D01*
X131872842Y-56286324D01*
X131802568Y-56296428D01*
X131737988Y-56266934D01*
X131731405Y-56260805D01*
X131080405Y-55609805D01*
X131046379Y-55547493D01*
X131043500Y-55520710D01*
X131043500Y-53689873D01*
X131063502Y-53621752D01*
X131074119Y-53607542D01*
X131089491Y-53589734D01*
X131133606Y-53538626D01*
X131233718Y-53362396D01*
X131297694Y-53170078D01*
X131323096Y-52968997D01*
X131323501Y-52940000D01*
X131303723Y-52738287D01*
X131293816Y-52705473D01*
X131259230Y-52590918D01*
X131258689Y-52519923D01*
X131296617Y-52459907D01*
X131360971Y-52429923D01*
X131379852Y-52428500D01*
X131950406Y-52428500D01*
X132018527Y-52448502D01*
G37*
%TD.AperFunction*%
%TD*%
M02*
