%TF.GenerationSoftware,KiCad,Pcbnew,(6.0.9)*%
%TF.CreationDate,2024-05-17T13:50:49+01:00*%
%TF.ProjectId,Controller,436f6e74-726f-46c6-9c65-722e6b696361,rev?*%
%TF.SameCoordinates,Original*%
%TF.FileFunction,Soldermask,Bot*%
%TF.FilePolarity,Negative*%
%FSLAX46Y46*%
G04 Gerber Fmt 4.6, Leading zero omitted, Abs format (unit mm)*
G04 Created by KiCad (PCBNEW (6.0.9)) date 2024-05-17 13:50:49*
%MOMM*%
%LPD*%
G01*
G04 APERTURE LIST*
G04 Aperture macros list*
%AMRoundRect*
0 Rectangle with rounded corners*
0 $1 Rounding radius*
0 $2 $3 $4 $5 $6 $7 $8 $9 X,Y pos of 4 corners*
0 Add a 4 corners polygon primitive as box body*
4,1,4,$2,$3,$4,$5,$6,$7,$8,$9,$2,$3,0*
0 Add four circle primitives for the rounded corners*
1,1,$1+$1,$2,$3*
1,1,$1+$1,$4,$5*
1,1,$1+$1,$6,$7*
1,1,$1+$1,$8,$9*
0 Add four rect primitives between the rounded corners*
20,1,$1+$1,$2,$3,$4,$5,0*
20,1,$1+$1,$4,$5,$6,$7,0*
20,1,$1+$1,$6,$7,$8,$9,0*
20,1,$1+$1,$8,$9,$2,$3,0*%
G04 Aperture macros list end*
%ADD10C,5.700000*%
%ADD11C,3.600000*%
%ADD12RoundRect,0.102000X-1.387500X-1.387500X1.387500X-1.387500X1.387500X1.387500X-1.387500X1.387500X0*%
%ADD13C,2.979000*%
%ADD14C,2.154000*%
%ADD15C,1.800000*%
%ADD16C,4.050000*%
%ADD17RoundRect,0.102000X-0.825000X2.800000X-0.825000X-2.800000X0.825000X-2.800000X0.825000X2.800000X0*%
%ADD18R,3.000000X3.000000*%
%ADD19C,3.000000*%
%ADD20RoundRect,0.102000X-0.525000X0.525000X-0.525000X-0.525000X0.525000X-0.525000X0.525000X0.525000X0*%
%ADD21C,1.254000*%
%ADD22R,1.800000X1.800000*%
%ADD23RoundRect,0.750000X0.750000X-1.250000X0.750000X1.250000X-0.750000X1.250000X-0.750000X-1.250000X0*%
G04 APERTURE END LIST*
D10*
%TO.C,H2*%
X235090000Y-39630000D03*
D11*
X235090000Y-39630000D03*
%TD*%
D12*
%TO.C,S3*%
X104000000Y-39300000D03*
D13*
X104000000Y-44000000D03*
X104000000Y-48700000D03*
%TD*%
D12*
%TO.C,S4*%
X224000000Y-39300000D03*
D13*
X224000000Y-44000000D03*
X224000000Y-48700000D03*
%TD*%
D10*
%TO.C,H4*%
X91970000Y-38860000D03*
D11*
X91970000Y-38860000D03*
%TD*%
D14*
%TO.C,J1*%
X107830000Y-105370000D03*
X112830000Y-105370000D03*
%TD*%
D11*
%TO.C,H5*%
X161880000Y-121550000D03*
D10*
X161880000Y-121550000D03*
%TD*%
D15*
%TO.C,21111111*%
X131500000Y-79255000D03*
X134040000Y-79255000D03*
X136580000Y-79255000D03*
X139120000Y-79255000D03*
X141660000Y-79255000D03*
X144200000Y-79255000D03*
X146740000Y-79255000D03*
X149280000Y-79255000D03*
X151820000Y-79255000D03*
X154360000Y-79255000D03*
X156900000Y-79255000D03*
X159440000Y-79255000D03*
X161980000Y-79255000D03*
X164520000Y-79255000D03*
X167060000Y-79255000D03*
X169600000Y-79255000D03*
D16*
X126500000Y-79755000D03*
X126500000Y-110755000D03*
X201500000Y-79755000D03*
X201500000Y-110755000D03*
%TD*%
D17*
%TO.C,J3*%
X167545000Y-35650000D03*
X159295000Y-35650000D03*
%TD*%
D18*
%TO.C,RV3*%
X224000000Y-58000000D03*
D19*
X224000000Y-63000000D03*
X224000000Y-68000000D03*
%TD*%
D18*
%TO.C,RV2*%
X104000000Y-68000000D03*
D19*
X104000000Y-63000000D03*
X104000000Y-58000000D03*
%TD*%
D20*
%TO.C,J2*%
X129015000Y-47860000D03*
D21*
X130285000Y-47860000D03*
X129015000Y-49130000D03*
X130285000Y-49130000D03*
X129015000Y-50400000D03*
X130285000Y-50400000D03*
X129015000Y-51670000D03*
X130285000Y-51670000D03*
X129015000Y-52940000D03*
X130285000Y-52940000D03*
%TD*%
D10*
%TO.C,H1*%
X90960000Y-121050000D03*
D11*
X90960000Y-121050000D03*
%TD*%
D22*
%TO.C,RV1*%
X129450000Y-72200000D03*
D15*
X131950000Y-72200000D03*
X134450000Y-72200000D03*
D23*
X136350000Y-65200000D03*
X127550000Y-65200000D03*
%TD*%
D11*
%TO.C,H3*%
X234450000Y-121050000D03*
D10*
X234450000Y-121050000D03*
%TD*%
M02*
