%TF.GenerationSoftware,KiCad,Pcbnew,(6.0.9)*%
%TF.CreationDate,2024-05-17T13:50:49+01:00*%
%TF.ProjectId,Controller,436f6e74-726f-46c6-9c65-722e6b696361,rev?*%
%TF.SameCoordinates,Original*%
%TF.FileFunction,Soldermask,Top*%
%TF.FilePolarity,Negative*%
%FSLAX46Y46*%
G04 Gerber Fmt 4.6, Leading zero omitted, Abs format (unit mm)*
G04 Created by KiCad (PCBNEW (6.0.9)) date 2024-05-17 13:50:49*
%MOMM*%
%LPD*%
G01*
G04 APERTURE LIST*
G04 Aperture macros list*
%AMRoundRect*
0 Rectangle with rounded corners*
0 $1 Rounding radius*
0 $2 $3 $4 $5 $6 $7 $8 $9 X,Y pos of 4 corners*
0 Add a 4 corners polygon primitive as box body*
4,1,4,$2,$3,$4,$5,$6,$7,$8,$9,$2,$3,0*
0 Add four circle primitives for the rounded corners*
1,1,$1+$1,$2,$3*
1,1,$1+$1,$4,$5*
1,1,$1+$1,$6,$7*
1,1,$1+$1,$8,$9*
0 Add four rect primitives between the rounded corners*
20,1,$1+$1,$2,$3,$4,$5,0*
20,1,$1+$1,$4,$5,$6,$7,0*
20,1,$1+$1,$6,$7,$8,$9,0*
20,1,$1+$1,$8,$9,$2,$3,0*%
G04 Aperture macros list end*
%ADD10R,1.000000X1.000000*%
%ADD11RoundRect,0.237500X0.250000X0.237500X-0.250000X0.237500X-0.250000X-0.237500X0.250000X-0.237500X0*%
%ADD12C,5.700000*%
%ADD13C,3.600000*%
%ADD14RoundRect,0.155000X0.212500X0.155000X-0.212500X0.155000X-0.212500X-0.155000X0.212500X-0.155000X0*%
%ADD15RoundRect,0.102000X-1.387500X-1.387500X1.387500X-1.387500X1.387500X1.387500X-1.387500X1.387500X0*%
%ADD16C,2.979000*%
%ADD17RoundRect,0.155000X0.155000X-0.212500X0.155000X0.212500X-0.155000X0.212500X-0.155000X-0.212500X0*%
%ADD18RoundRect,0.102000X-0.250000X0.300000X-0.250000X-0.300000X0.250000X-0.300000X0.250000X0.300000X0*%
%ADD19C,2.154000*%
%ADD20RoundRect,0.237500X-0.250000X-0.237500X0.250000X-0.237500X0.250000X0.237500X-0.250000X0.237500X0*%
%ADD21RoundRect,0.250000X0.375000X0.625000X-0.375000X0.625000X-0.375000X-0.625000X0.375000X-0.625000X0*%
%ADD22RoundRect,0.155000X-0.212500X-0.155000X0.212500X-0.155000X0.212500X0.155000X-0.212500X0.155000X0*%
%ADD23RoundRect,0.237500X-0.237500X0.250000X-0.237500X-0.250000X0.237500X-0.250000X0.237500X0.250000X0*%
%ADD24RoundRect,0.237500X-0.300000X-0.237500X0.300000X-0.237500X0.300000X0.237500X-0.300000X0.237500X0*%
%ADD25R,1.100000X1.900000*%
%ADD26C,1.800000*%
%ADD27C,4.050000*%
%ADD28RoundRect,0.102000X1.100000X0.600000X-1.100000X0.600000X-1.100000X-0.600000X1.100000X-0.600000X0*%
%ADD29RoundRect,0.102000X1.100000X1.750000X-1.100000X1.750000X-1.100000X-1.750000X1.100000X-1.750000X0*%
%ADD30RoundRect,0.102000X0.485000X-0.500000X0.485000X0.500000X-0.485000X0.500000X-0.485000X-0.500000X0*%
%ADD31RoundRect,0.102000X0.500000X-1.650000X0.500000X1.650000X-0.500000X1.650000X-0.500000X-1.650000X0*%
%ADD32RoundRect,0.102000X-1.650000X-0.500000X1.650000X-0.500000X1.650000X0.500000X-1.650000X0.500000X0*%
%ADD33RoundRect,0.102000X-1.300000X-0.500000X1.300000X-0.500000X1.300000X0.500000X-1.300000X0.500000X0*%
%ADD34RoundRect,0.102000X0.500000X-1.300000X0.500000X1.300000X-0.500000X1.300000X-0.500000X-1.300000X0*%
%ADD35R,0.889000X1.244600*%
%ADD36RoundRect,0.250000X-0.375000X-0.625000X0.375000X-0.625000X0.375000X0.625000X-0.375000X0.625000X0*%
%ADD37RoundRect,0.237500X0.237500X-0.250000X0.237500X0.250000X-0.237500X0.250000X-0.237500X-0.250000X0*%
%ADD38RoundRect,0.155000X-0.155000X0.212500X-0.155000X-0.212500X0.155000X-0.212500X0.155000X0.212500X0*%
%ADD39RoundRect,0.102000X-0.500000X2.800000X-0.500000X-2.800000X0.500000X-2.800000X0.500000X2.800000X0*%
%ADD40RoundRect,0.102000X-0.825000X2.800000X-0.825000X-2.800000X0.825000X-2.800000X0.825000X2.800000X0*%
%ADD41RoundRect,0.102000X0.850000X0.400000X-0.850000X0.400000X-0.850000X-0.400000X0.850000X-0.400000X0*%
%ADD42R,3.000000X3.000000*%
%ADD43C,3.000000*%
%ADD44R,0.457200X0.254000*%
%ADD45RoundRect,0.102000X-1.100000X-0.600000X1.100000X-0.600000X1.100000X0.600000X-1.100000X0.600000X0*%
%ADD46RoundRect,0.102000X-1.100000X-1.750000X1.100000X-1.750000X1.100000X1.750000X-1.100000X1.750000X0*%
%ADD47RoundRect,0.237500X0.237500X-0.300000X0.237500X0.300000X-0.237500X0.300000X-0.237500X-0.300000X0*%
%ADD48RoundRect,0.102000X-0.525000X0.525000X-0.525000X-0.525000X0.525000X-0.525000X0.525000X0.525000X0*%
%ADD49C,1.254000*%
%ADD50R,0.300000X0.900000*%
%ADD51R,0.900000X0.300000*%
%ADD52R,5.250000X5.250000*%
%ADD53R,1.800000X1.800000*%
%ADD54RoundRect,0.750000X0.750000X-1.250000X0.750000X1.250000X-0.750000X1.250000X-0.750000X-1.250000X0*%
G04 APERTURE END LIST*
D10*
%TO.C,TP2*%
X170210000Y-43870000D03*
%TD*%
D11*
%TO.C,R12*%
X102902500Y-51660000D03*
X101077500Y-51660000D03*
%TD*%
D12*
%TO.C,H2*%
X235090000Y-39630000D03*
D13*
X235090000Y-39630000D03*
%TD*%
D14*
%TO.C,C17*%
X171857500Y-54880000D03*
X170722500Y-54880000D03*
%TD*%
D15*
%TO.C,S3*%
X104000000Y-39300000D03*
D16*
X104000000Y-44000000D03*
X104000000Y-48700000D03*
%TD*%
D15*
%TO.C,S4*%
X224000000Y-39300000D03*
D16*
X224000000Y-44000000D03*
X224000000Y-48700000D03*
%TD*%
D17*
%TO.C,C12*%
X163420000Y-41837500D03*
X163420000Y-40702500D03*
%TD*%
D11*
%TO.C,R14*%
X223202500Y-51720000D03*
X221377500Y-51720000D03*
%TD*%
D13*
%TO.C,H4*%
X91970000Y-38860000D03*
D12*
X91970000Y-38860000D03*
%TD*%
D10*
%TO.C,TP1*%
X109530000Y-78930000D03*
%TD*%
D11*
%TO.C,R13*%
X106662500Y-51710000D03*
X104837500Y-51710000D03*
%TD*%
D18*
%TO.C,D2*%
X219240000Y-84357500D03*
X219240000Y-85357500D03*
%TD*%
D19*
%TO.C,J1*%
X107830000Y-105370000D03*
X112830000Y-105370000D03*
%TD*%
D17*
%TO.C,C19*%
X160770000Y-42747500D03*
X160770000Y-41612500D03*
%TD*%
D13*
%TO.C,H5*%
X161880000Y-121550000D03*
D12*
X161880000Y-121550000D03*
%TD*%
D20*
%TO.C,R3*%
X188697500Y-35000000D03*
X190522500Y-35000000D03*
%TD*%
D14*
%TO.C,C6*%
X105197500Y-92530000D03*
X104062500Y-92530000D03*
%TD*%
%TO.C,C3*%
X156837500Y-46300000D03*
X155702500Y-46300000D03*
%TD*%
D21*
%TO.C,D3*%
X195400000Y-35000000D03*
X192600000Y-35000000D03*
%TD*%
D22*
%TO.C,C5*%
X166322500Y-49540000D03*
X167457500Y-49540000D03*
%TD*%
D23*
%TO.C,R5*%
X167900000Y-72487500D03*
X167900000Y-74312500D03*
%TD*%
D11*
%TO.C,R9*%
X216152500Y-43960000D03*
X214327500Y-43960000D03*
%TD*%
D24*
%TO.C,C8*%
X116167500Y-86130000D03*
X117892500Y-86130000D03*
%TD*%
D25*
%TO.C,31111111*%
X158650000Y-42020000D03*
X156150000Y-42020000D03*
%TD*%
D22*
%TO.C,C18*%
X169392500Y-48180000D03*
X170527500Y-48180000D03*
%TD*%
D26*
%TO.C,21111111*%
X131500000Y-79255000D03*
X134040000Y-79255000D03*
X136580000Y-79255000D03*
X139120000Y-79255000D03*
X141660000Y-79255000D03*
X144200000Y-79255000D03*
X146740000Y-79255000D03*
X149280000Y-79255000D03*
X151820000Y-79255000D03*
X154360000Y-79255000D03*
X156900000Y-79255000D03*
X159440000Y-79255000D03*
X161980000Y-79255000D03*
X164520000Y-79255000D03*
X167060000Y-79255000D03*
X169600000Y-79255000D03*
D27*
X126500000Y-79755000D03*
X126500000Y-110755000D03*
X201500000Y-79755000D03*
X201500000Y-110755000D03*
%TD*%
D11*
%TO.C,R15*%
X226692500Y-51740000D03*
X224867500Y-51740000D03*
%TD*%
D28*
%TO.C,U2*%
X113970000Y-87130000D03*
X113970000Y-84830000D03*
X113970000Y-82530000D03*
D29*
X107770000Y-84830000D03*
%TD*%
D20*
%TO.C,R4*%
X128227500Y-35000000D03*
X130052500Y-35000000D03*
%TD*%
D22*
%TO.C,C13*%
X166362500Y-48140000D03*
X167497500Y-48140000D03*
%TD*%
D30*
%TO.C,FL1*%
X113410000Y-80485000D03*
X113410000Y-79015000D03*
%TD*%
D22*
%TO.C,C15*%
X166372500Y-46330000D03*
X167507500Y-46330000D03*
%TD*%
D14*
%TO.C,C1*%
X105197500Y-94930000D03*
X104062500Y-94930000D03*
%TD*%
D31*
%TO.C,U4*%
X152920000Y-40520000D03*
D32*
X154070000Y-39370000D03*
D33*
X159420000Y-39370000D03*
X166920000Y-39370000D03*
D32*
X172270000Y-39370000D03*
D31*
X173420000Y-40520000D03*
D34*
X173420000Y-45870000D03*
X173420000Y-53370000D03*
D31*
X173420000Y-58720000D03*
D32*
X172270000Y-59870000D03*
D33*
X166920000Y-59870000D03*
X159420000Y-59870000D03*
D32*
X154070000Y-59870000D03*
D31*
X152920000Y-58720000D03*
D34*
X152920000Y-53370000D03*
X152920000Y-45870000D03*
%TD*%
D35*
%TO.C,Y1*%
X171980000Y-49706600D03*
X171980000Y-53313400D03*
X169680000Y-53313400D03*
X169680000Y-49706600D03*
%TD*%
D36*
%TO.C,D4*%
X122600000Y-35000000D03*
X125400000Y-35000000D03*
%TD*%
D37*
%TO.C,R1*%
X221340000Y-91432500D03*
X221340000Y-89607500D03*
%TD*%
D38*
%TO.C,C4*%
X155760000Y-51532500D03*
X155760000Y-52667500D03*
%TD*%
D20*
%TO.C,R11*%
X120237500Y-52000000D03*
X122062500Y-52000000D03*
%TD*%
%TO.C,R6*%
X165217500Y-70270000D03*
X167042500Y-70270000D03*
%TD*%
D38*
%TO.C,C11*%
X162690000Y-57572500D03*
X162690000Y-58707500D03*
%TD*%
D37*
%TO.C,R2*%
X221950000Y-83267500D03*
X221950000Y-81442500D03*
%TD*%
D11*
%TO.C,R10*%
X201062500Y-62990000D03*
X199237500Y-62990000D03*
%TD*%
D39*
%TO.C,J3*%
X163420000Y-35650000D03*
D40*
X167545000Y-35650000D03*
X159295000Y-35650000D03*
%TD*%
D41*
%TO.C,S2*%
X225270000Y-86867500D03*
X225270000Y-83467500D03*
%TD*%
D38*
%TO.C,C16*%
X156710000Y-52432500D03*
X156710000Y-53567500D03*
%TD*%
D42*
%TO.C,RV3*%
X224000000Y-58000000D03*
D43*
X224000000Y-63000000D03*
X224000000Y-68000000D03*
%TD*%
D20*
%TO.C,R8*%
X108847500Y-44000000D03*
X110672500Y-44000000D03*
%TD*%
D17*
%TO.C,C20*%
X154030000Y-41867500D03*
X154030000Y-40732500D03*
%TD*%
D44*
%TO.C,U3*%
X163760300Y-43832000D03*
X163760300Y-44340000D03*
X163760300Y-44848000D03*
X164598500Y-44848000D03*
X164598500Y-44340000D03*
X164598500Y-43832000D03*
%TD*%
D20*
%TO.C,R7*%
X168747500Y-70310000D03*
X170572500Y-70310000D03*
%TD*%
D45*
%TO.C,U1*%
X107770000Y-90150000D03*
X107770000Y-92450000D03*
X107770000Y-94750000D03*
D46*
X113970000Y-92450000D03*
%TD*%
D42*
%TO.C,RV2*%
X104000000Y-68000000D03*
D43*
X104000000Y-63000000D03*
X104000000Y-58000000D03*
%TD*%
D38*
%TO.C,C9*%
X221860000Y-85120000D03*
X221860000Y-86255000D03*
%TD*%
D22*
%TO.C,C7*%
X164272500Y-55460000D03*
X165407500Y-55460000D03*
%TD*%
D47*
%TO.C,C14*%
X116300000Y-82555000D03*
X116300000Y-80830000D03*
%TD*%
D48*
%TO.C,J2*%
X129015000Y-47860000D03*
D49*
X130285000Y-47860000D03*
X129015000Y-49130000D03*
X130285000Y-49130000D03*
X129015000Y-50400000D03*
X130285000Y-50400000D03*
X129015000Y-51670000D03*
X130285000Y-51670000D03*
X129015000Y-52940000D03*
X130285000Y-52940000D03*
%TD*%
D22*
%TO.C,C10*%
X164282500Y-54470000D03*
X165417500Y-54470000D03*
%TD*%
D12*
%TO.C,H1*%
X90960000Y-121050000D03*
D13*
X90960000Y-121050000D03*
%TD*%
D50*
%TO.C,11111111*%
X164280000Y-45930000D03*
X163780000Y-45930000D03*
X163280000Y-45930000D03*
X162780000Y-45930000D03*
X162280000Y-45930000D03*
X161780000Y-45930000D03*
X161280000Y-45930000D03*
X160780000Y-45930000D03*
X160280000Y-45930000D03*
X159780000Y-45930000D03*
X159280000Y-45930000D03*
X158780000Y-45930000D03*
D51*
X158080000Y-46630000D03*
X158080000Y-47130000D03*
X158080000Y-47630000D03*
X158080000Y-48130000D03*
X158080000Y-48630000D03*
X158080000Y-49130000D03*
X158080000Y-49630000D03*
X158080000Y-50130000D03*
X158080000Y-50630000D03*
X158080000Y-51130000D03*
X158080000Y-51630000D03*
X158080000Y-52130000D03*
D50*
X158780000Y-52830000D03*
X159280000Y-52830000D03*
X159780000Y-52830000D03*
X160280000Y-52830000D03*
X160780000Y-52830000D03*
X161280000Y-52830000D03*
X161780000Y-52830000D03*
X162280000Y-52830000D03*
X162780000Y-52830000D03*
X163280000Y-52830000D03*
X163780000Y-52830000D03*
X164280000Y-52830000D03*
D51*
X164980000Y-52130000D03*
X164980000Y-51630000D03*
X164980000Y-51130000D03*
X164980000Y-50630000D03*
X164980000Y-50130000D03*
X164980000Y-49630000D03*
X164980000Y-49130000D03*
X164980000Y-48630000D03*
X164980000Y-48130000D03*
X164980000Y-47630000D03*
X164980000Y-47130000D03*
X164980000Y-46630000D03*
D52*
X161530000Y-49380000D03*
%TD*%
D23*
%TO.C,L1*%
X162700000Y-54457500D03*
X162700000Y-56282500D03*
%TD*%
D38*
%TO.C,C2*%
X220950000Y-93910000D03*
X220950000Y-95045000D03*
%TD*%
D18*
%TO.C,D1*%
X218750000Y-92567500D03*
X218750000Y-93567500D03*
%TD*%
D53*
%TO.C,RV1*%
X129450000Y-72200000D03*
D26*
X131950000Y-72200000D03*
X134450000Y-72200000D03*
D54*
X136350000Y-65200000D03*
X127550000Y-65200000D03*
%TD*%
D41*
%TO.C,S1*%
X225210000Y-94687500D03*
X225210000Y-91287500D03*
%TD*%
D12*
%TO.C,H3*%
X234450000Y-121050000D03*
D13*
X234450000Y-121050000D03*
%TD*%
M02*
