%TF.GenerationSoftware,KiCad,Pcbnew,(6.0.9)*%
%TF.CreationDate,2024-05-17T13:50:49+01:00*%
%TF.ProjectId,Controller,436f6e74-726f-46c6-9c65-722e6b696361,rev?*%
%TF.SameCoordinates,Original*%
%TF.FileFunction,Legend,Bot*%
%TF.FilePolarity,Positive*%
%FSLAX46Y46*%
G04 Gerber Fmt 4.6, Leading zero omitted, Abs format (unit mm)*
G04 Created by KiCad (PCBNEW (6.0.9)) date 2024-05-17 13:50:49*
%MOMM*%
%LPD*%
G01*
G04 APERTURE LIST*
%ADD10C,0.500000*%
%ADD11C,0.250000*%
G04 APERTURE END LIST*
D10*
X96300000Y-71850000D02*
X122800000Y-71850000D01*
X122800000Y-71850000D02*
X122800000Y-121850000D01*
X122800000Y-121850000D02*
X96300000Y-121850000D01*
X96300000Y-121850000D02*
X96300000Y-71850000D01*
D11*
X105218095Y-123418571D02*
X105075238Y-123466190D01*
X105027619Y-123513809D01*
X104980000Y-123609047D01*
X104980000Y-123751904D01*
X105027619Y-123847142D01*
X105075238Y-123894761D01*
X105170476Y-123942380D01*
X105551428Y-123942380D01*
X105551428Y-122942380D01*
X105218095Y-122942380D01*
X105122857Y-122990000D01*
X105075238Y-123037619D01*
X105027619Y-123132857D01*
X105027619Y-123228095D01*
X105075238Y-123323333D01*
X105122857Y-123370952D01*
X105218095Y-123418571D01*
X105551428Y-123418571D01*
X104122857Y-123942380D02*
X104122857Y-123418571D01*
X104170476Y-123323333D01*
X104265714Y-123275714D01*
X104456190Y-123275714D01*
X104551428Y-123323333D01*
X104122857Y-123894761D02*
X104218095Y-123942380D01*
X104456190Y-123942380D01*
X104551428Y-123894761D01*
X104599047Y-123799523D01*
X104599047Y-123704285D01*
X104551428Y-123609047D01*
X104456190Y-123561428D01*
X104218095Y-123561428D01*
X104122857Y-123513809D01*
X103789523Y-123275714D02*
X103408571Y-123275714D01*
X103646666Y-122942380D02*
X103646666Y-123799523D01*
X103599047Y-123894761D01*
X103503809Y-123942380D01*
X103408571Y-123942380D01*
X103218095Y-123275714D02*
X102837142Y-123275714D01*
X103075238Y-122942380D02*
X103075238Y-123799523D01*
X103027619Y-123894761D01*
X102932380Y-123942380D01*
X102837142Y-123942380D01*
X102122857Y-123894761D02*
X102218095Y-123942380D01*
X102408571Y-123942380D01*
X102503809Y-123894761D01*
X102551428Y-123799523D01*
X102551428Y-123418571D01*
X102503809Y-123323333D01*
X102408571Y-123275714D01*
X102218095Y-123275714D01*
X102122857Y-123323333D01*
X102075238Y-123418571D01*
X102075238Y-123513809D01*
X102551428Y-123609047D01*
X101646666Y-123942380D02*
X101646666Y-123275714D01*
X101646666Y-123466190D02*
X101599047Y-123370952D01*
X101551428Y-123323333D01*
X101456190Y-123275714D01*
X101360952Y-123275714D01*
X101122857Y-123275714D02*
X100884761Y-123942380D01*
X100646666Y-123275714D02*
X100884761Y-123942380D01*
X100980000Y-124180476D01*
X101027619Y-124228095D01*
X101122857Y-124275714D01*
X99503809Y-123942380D02*
X99503809Y-122942380D01*
X99122857Y-122942380D01*
X99027619Y-122990000D01*
X98980000Y-123037619D01*
X98932380Y-123132857D01*
X98932380Y-123275714D01*
X98980000Y-123370952D01*
X99027619Y-123418571D01*
X99122857Y-123466190D01*
X99503809Y-123466190D01*
X98075238Y-123942380D02*
X98075238Y-123418571D01*
X98122857Y-123323333D01*
X98218095Y-123275714D01*
X98408571Y-123275714D01*
X98503809Y-123323333D01*
X98075238Y-123894761D02*
X98170476Y-123942380D01*
X98408571Y-123942380D01*
X98503809Y-123894761D01*
X98551428Y-123799523D01*
X98551428Y-123704285D01*
X98503809Y-123609047D01*
X98408571Y-123561428D01*
X98170476Y-123561428D01*
X98075238Y-123513809D01*
X97170476Y-123894761D02*
X97265714Y-123942380D01*
X97456190Y-123942380D01*
X97551428Y-123894761D01*
X97599047Y-123847142D01*
X97646666Y-123751904D01*
X97646666Y-123466190D01*
X97599047Y-123370952D01*
X97551428Y-123323333D01*
X97456190Y-123275714D01*
X97265714Y-123275714D01*
X97170476Y-123323333D01*
X96741904Y-123942380D02*
X96741904Y-122942380D01*
X96646666Y-123561428D02*
X96360952Y-123942380D01*
X96360952Y-123275714D02*
X96741904Y-123656666D01*
%TO.C,G\u002A\u002A\u002A*%
G36*
X164209817Y-97508797D02*
G01*
X164396865Y-97557219D01*
X164607861Y-97631086D01*
X164780297Y-97707321D01*
X164851666Y-97762846D01*
X164809995Y-97809456D01*
X164661166Y-97855278D01*
X164561713Y-97883715D01*
X164498628Y-97962947D01*
X164464715Y-98131770D01*
X164444977Y-98430054D01*
X164440210Y-98544454D01*
X164440182Y-98920392D01*
X164478013Y-99170834D01*
X164562304Y-99329267D01*
X164701659Y-99429177D01*
X164773007Y-99472706D01*
X164752033Y-99504088D01*
X164602343Y-99520716D01*
X164303660Y-99527603D01*
X164177308Y-99528626D01*
X163928306Y-99525884D01*
X163815567Y-99508876D01*
X163814745Y-99469969D01*
X163901494Y-99401532D01*
X163914012Y-99392634D01*
X163994562Y-99319472D01*
X164045909Y-99217239D01*
X164074547Y-99050876D01*
X164086968Y-98785327D01*
X164089666Y-98385532D01*
X164092442Y-98105443D01*
X164103577Y-97793207D01*
X164121253Y-97580147D01*
X164143343Y-97501333D01*
X164209817Y-97508797D01*
G37*
G36*
X183816999Y-101567990D02*
G01*
X183802692Y-101605691D01*
X183689999Y-101650000D01*
X183632136Y-101646322D01*
X183562999Y-101616725D01*
X183578598Y-101594811D01*
X183689999Y-101534715D01*
X183754938Y-101521406D01*
X183816999Y-101567990D01*
G37*
G36*
X163184478Y-97200023D02*
G01*
X163306082Y-97367661D01*
X163475832Y-97563705D01*
X163515168Y-97605256D01*
X163639362Y-97754181D01*
X163645290Y-97823173D01*
X163539332Y-97840000D01*
X163476749Y-97869543D01*
X163437491Y-97979664D01*
X163417755Y-98199871D01*
X163412332Y-98559667D01*
X163412307Y-98591646D01*
X163405168Y-98950425D01*
X163379880Y-99184983D01*
X163328478Y-99337128D01*
X163242999Y-99448667D01*
X163092243Y-99561168D01*
X162923171Y-99618000D01*
X162847012Y-99609155D01*
X162639501Y-99519902D01*
X162467841Y-99373647D01*
X162396332Y-99219077D01*
X162399086Y-99159951D01*
X162436458Y-99132403D01*
X162551166Y-99223878D01*
X162690353Y-99334390D01*
X162803712Y-99343626D01*
X162940618Y-99230952D01*
X163017426Y-99094917D01*
X163060531Y-98852624D01*
X163073666Y-98474317D01*
X163073666Y-97850729D01*
X162805019Y-97824198D01*
X162797287Y-97823408D01*
X162578989Y-97769352D01*
X162498492Y-97689627D01*
X162560640Y-97617441D01*
X162770277Y-97586000D01*
X162790077Y-97585968D01*
X162982057Y-97570281D01*
X163060893Y-97494055D01*
X163078645Y-97310833D01*
X163086788Y-97144848D01*
X163116042Y-97106256D01*
X163184478Y-97200023D01*
G37*
G36*
X181937927Y-98182417D02*
G01*
X182084060Y-98225456D01*
X182123666Y-98333889D01*
X182115711Y-98421051D01*
X182067221Y-98545555D01*
X182046161Y-98562848D01*
X181881539Y-98603527D01*
X181696473Y-98567065D01*
X181582391Y-98468075D01*
X181576973Y-98453777D01*
X181538320Y-98279840D01*
X181612846Y-98198685D01*
X181827332Y-98178667D01*
X181937927Y-98182417D01*
G37*
G36*
X148065455Y-97588661D02*
G01*
X148110863Y-97632196D01*
X148141655Y-97747970D01*
X148160431Y-97960244D01*
X148169790Y-98293279D01*
X148172332Y-98771333D01*
X148172047Y-98959147D01*
X148167383Y-99382948D01*
X148154979Y-99670341D01*
X148132235Y-99845584D01*
X148096553Y-99932939D01*
X148045332Y-99956667D01*
X148025210Y-99954006D01*
X147979802Y-99910471D01*
X147949010Y-99794696D01*
X147930234Y-99582422D01*
X147920875Y-99249388D01*
X147918332Y-98771333D01*
X147918618Y-98583519D01*
X147923282Y-98159718D01*
X147935686Y-97872326D01*
X147958430Y-97697082D01*
X147994112Y-97609727D01*
X148045332Y-97586000D01*
X148065455Y-97588661D01*
G37*
G36*
X184683903Y-101059793D02*
G01*
X184748332Y-101142000D01*
X184745872Y-101162237D01*
X184663666Y-101226667D01*
X184643428Y-101224206D01*
X184578999Y-101142000D01*
X184581459Y-101121762D01*
X184663666Y-101057333D01*
X184683903Y-101059793D01*
G37*
G36*
X155015586Y-98277213D02*
G01*
X155238879Y-98475195D01*
X155380490Y-98759788D01*
X155435990Y-99088236D01*
X155400952Y-99417780D01*
X155270949Y-99705664D01*
X155041554Y-99909130D01*
X154832371Y-99977253D01*
X154566409Y-99992848D01*
X154386652Y-99934610D01*
X154202815Y-99814479D01*
X154049922Y-99665369D01*
X153954590Y-99519264D01*
X153943436Y-99408146D01*
X154043076Y-99364000D01*
X154144662Y-99419447D01*
X154252927Y-99575667D01*
X154286740Y-99640547D01*
X154416673Y-99756592D01*
X154642716Y-99787333D01*
X154708898Y-99784429D01*
X154976720Y-99687528D01*
X155142723Y-99459783D01*
X155199666Y-99110000D01*
X155199524Y-99092757D01*
X155135920Y-98771119D01*
X154978811Y-98545386D01*
X154760804Y-98432898D01*
X154514506Y-98450991D01*
X154272525Y-98617005D01*
X154199802Y-98684168D01*
X154070153Y-98741682D01*
X154013549Y-98686742D01*
X154067470Y-98534439D01*
X154268021Y-98342652D01*
X154561406Y-98225836D01*
X154866883Y-98222292D01*
X155015586Y-98277213D01*
G37*
G36*
X183446568Y-101672588D02*
G01*
X183391968Y-101779046D01*
X183322791Y-101846532D01*
X183246123Y-101869346D01*
X183232885Y-101808015D01*
X183298110Y-101702902D01*
X183409030Y-101650000D01*
X183446568Y-101672588D01*
G37*
G36*
X183393666Y-97332000D02*
G01*
X183387556Y-97376822D01*
X183337221Y-97388444D01*
X183327088Y-97376035D01*
X183337221Y-97275555D01*
X183362688Y-97262310D01*
X183393666Y-97332000D01*
G37*
G36*
X179308238Y-102677207D02*
G01*
X179207301Y-102991364D01*
X179041824Y-103196009D01*
X179016119Y-103211055D01*
X178811156Y-103229799D01*
X178553115Y-103140196D01*
X178281935Y-102966863D01*
X178037556Y-102734420D01*
X177859914Y-102467483D01*
X177852681Y-102452031D01*
X177732022Y-102039039D01*
X177741475Y-101887541D01*
X178069813Y-101887541D01*
X178090441Y-102213603D01*
X178191258Y-102568122D01*
X178304952Y-102786165D01*
X178489352Y-102972176D01*
X178685223Y-103020151D01*
X178866869Y-102916829D01*
X178970105Y-102697393D01*
X178986603Y-102397683D01*
X178927592Y-102069790D01*
X178807052Y-101762809D01*
X178638958Y-101525834D01*
X178437289Y-101407960D01*
X178420143Y-101405103D01*
X178241557Y-101450792D01*
X178122483Y-101622438D01*
X178069813Y-101887541D01*
X177741475Y-101887541D01*
X177755773Y-101658405D01*
X177922235Y-101340825D01*
X178123471Y-101106875D01*
X178485613Y-101270179D01*
X178722829Y-101406487D01*
X179038592Y-101702896D01*
X179251555Y-102058842D01*
X179322813Y-102397683D01*
X179329666Y-102430269D01*
X179308238Y-102677207D01*
G37*
G36*
X165527684Y-102645141D02*
G01*
X165308021Y-102952998D01*
X164939181Y-103193711D01*
X164898492Y-103207350D01*
X164697957Y-103230239D01*
X164439200Y-103224117D01*
X164389211Y-103219127D01*
X164073875Y-103132320D01*
X163804200Y-102927611D01*
X163743894Y-102865521D01*
X163612175Y-102690680D01*
X163553025Y-102495317D01*
X163541717Y-102255999D01*
X163889343Y-102255999D01*
X163927796Y-102597396D01*
X164116111Y-102898833D01*
X164190729Y-102969995D01*
X164444656Y-103083516D01*
X164712054Y-103038605D01*
X164963967Y-102837361D01*
X165136970Y-102581924D01*
X165251624Y-102205595D01*
X165204961Y-101839137D01*
X164996509Y-101501833D01*
X164794654Y-101358434D01*
X164542550Y-101333975D01*
X164295841Y-101445180D01*
X164083547Y-101677937D01*
X163934689Y-102018137D01*
X163889343Y-102255999D01*
X163541717Y-102255999D01*
X163539332Y-102205526D01*
X163553627Y-101922061D01*
X163615159Y-101707173D01*
X163744712Y-101529692D01*
X164003029Y-101327290D01*
X164353476Y-101205421D01*
X164716461Y-101204020D01*
X165057979Y-101311435D01*
X165344023Y-101516015D01*
X165540587Y-101806108D01*
X165613666Y-102170062D01*
X165612852Y-102205595D01*
X165611848Y-102249379D01*
X165527684Y-102645141D01*
G37*
G36*
X168778708Y-101204905D02*
G01*
X169027368Y-101293540D01*
X169187813Y-101422463D01*
X169203078Y-101447876D01*
X169264235Y-101710821D01*
X169160368Y-101982565D01*
X168894499Y-102254531D01*
X168755934Y-102365172D01*
X168570989Y-102523068D01*
X168472462Y-102621479D01*
X168423462Y-102721486D01*
X168431986Y-102929549D01*
X168570866Y-103086051D01*
X168726876Y-103135656D01*
X168942054Y-103072967D01*
X169126499Y-102846461D01*
X169247553Y-102623667D01*
X169250943Y-102923175D01*
X169250952Y-103024772D01*
X169225086Y-103163044D01*
X169124811Y-103219451D01*
X168902685Y-103236707D01*
X168604805Y-103223423D01*
X168329562Y-103120795D01*
X168148407Y-102910174D01*
X168104046Y-102802548D01*
X168108321Y-102558424D01*
X168265459Y-102307141D01*
X168582013Y-102035481D01*
X168813927Y-101849265D01*
X168960027Y-101660047D01*
X168955382Y-101502613D01*
X168804702Y-101362741D01*
X168718979Y-101325092D01*
X168600105Y-101354763D01*
X168444869Y-101506554D01*
X168238332Y-101744109D01*
X168238332Y-101494566D01*
X168239334Y-101448672D01*
X168289638Y-101275237D01*
X168444123Y-101193373D01*
X168522239Y-101181327D01*
X168778708Y-101204905D01*
G37*
G36*
X176319191Y-99914768D02*
G01*
X176563703Y-100045214D01*
X176573998Y-100053492D01*
X176761472Y-100254970D01*
X176940818Y-100523126D01*
X177075338Y-100795322D01*
X177128332Y-101008923D01*
X177128336Y-101009647D01*
X177197162Y-101136668D01*
X177361166Y-101262906D01*
X177512389Y-101349774D01*
X177522686Y-101384608D01*
X177397794Y-101392610D01*
X177395331Y-101392656D01*
X177254067Y-101428196D01*
X177246154Y-101544167D01*
X177274493Y-101669279D01*
X177324676Y-101928734D01*
X177388175Y-102279349D01*
X177457680Y-102681808D01*
X177504891Y-102954500D01*
X177588623Y-103382506D01*
X177667713Y-103684055D01*
X177752291Y-103886866D01*
X177852482Y-104018661D01*
X177978414Y-104107161D01*
X178145721Y-104150504D01*
X178333979Y-104066768D01*
X178482020Y-103981509D01*
X178628838Y-103936000D01*
X178662770Y-103940064D01*
X178732242Y-104018484D01*
X178705008Y-104148377D01*
X178588832Y-104265751D01*
X178518016Y-104296805D01*
X178250210Y-104307375D01*
X177953595Y-104197271D01*
X177669594Y-103986994D01*
X177439632Y-103697044D01*
X177397967Y-103609987D01*
X177305471Y-103344845D01*
X177208063Y-102992519D01*
X177120983Y-102605228D01*
X177077546Y-102387081D01*
X177006159Y-102032197D01*
X176948436Y-101749713D01*
X176913904Y-101586500D01*
X176843709Y-101450429D01*
X176661053Y-101396000D01*
X176523406Y-101375156D01*
X176450999Y-101311333D01*
X176504394Y-101255449D01*
X176664279Y-101226667D01*
X176768774Y-101220560D01*
X176844086Y-101160802D01*
X176826008Y-100993833D01*
X176739335Y-100647504D01*
X176618857Y-100324190D01*
X176481854Y-100146379D01*
X176316493Y-100100490D01*
X176110941Y-100172937D01*
X176052695Y-100204483D01*
X175869553Y-100280976D01*
X175790319Y-100249596D01*
X175788944Y-100104833D01*
X175789528Y-100100929D01*
X175884985Y-99946252D01*
X176077245Y-99882989D01*
X176319191Y-99914768D01*
G37*
G36*
X181869666Y-101480667D02*
G01*
X181863556Y-101525489D01*
X181813221Y-101537111D01*
X181803088Y-101524702D01*
X181813221Y-101424222D01*
X181838688Y-101410976D01*
X181869666Y-101480667D01*
G37*
G36*
X150608827Y-101612467D02*
G01*
X150739949Y-101679554D01*
X150796999Y-101654801D01*
X150800221Y-101630396D01*
X150881666Y-101565333D01*
X150901206Y-101583305D01*
X150935761Y-101734316D01*
X150958283Y-102018680D01*
X150966332Y-102412000D01*
X150964535Y-102607397D01*
X150949434Y-102952950D01*
X150920998Y-103178171D01*
X150881666Y-103258667D01*
X150843816Y-103206193D01*
X150809978Y-103024513D01*
X150796999Y-102756178D01*
X150790097Y-102537917D01*
X150759967Y-102240903D01*
X150714032Y-102035471D01*
X150693683Y-101988291D01*
X150520623Y-101779350D01*
X150286930Y-101684779D01*
X150045709Y-101728935D01*
X149999767Y-101756429D01*
X149928405Y-101832697D01*
X149887908Y-101963569D01*
X149869816Y-102187258D01*
X149865666Y-102541979D01*
X149860535Y-102892821D01*
X149841150Y-103115762D01*
X149802272Y-103227864D01*
X149738666Y-103258667D01*
X149676082Y-103229123D01*
X149636825Y-103119002D01*
X149617088Y-102898795D01*
X149611666Y-102539000D01*
X149611692Y-102507020D01*
X149618830Y-102148241D01*
X149644119Y-101913683D01*
X149695521Y-101761538D01*
X149780999Y-101650000D01*
X150020760Y-101511919D01*
X150320085Y-101495814D01*
X150608827Y-101612467D01*
G37*
G36*
X174351732Y-97504928D02*
G01*
X174545542Y-97563370D01*
X174779779Y-97670667D01*
X174858492Y-97712156D01*
X175043990Y-97803546D01*
X175138359Y-97840000D01*
X175163068Y-97808458D01*
X175180999Y-97670667D01*
X175180999Y-97668517D01*
X175185166Y-97554918D01*
X175224839Y-97514323D01*
X175340549Y-97543463D01*
X175572826Y-97639069D01*
X175664474Y-97678084D01*
X175807564Y-97750631D01*
X175816954Y-97798386D01*
X175710166Y-97848008D01*
X175659593Y-97869292D01*
X175583696Y-97930886D01*
X175541599Y-98046716D01*
X175523518Y-98255129D01*
X175519666Y-98594471D01*
X175519942Y-98702412D01*
X175528427Y-99009251D01*
X175556055Y-99200105D01*
X175612601Y-99316892D01*
X175707838Y-99401532D01*
X175732944Y-99419300D01*
X175805884Y-99482680D01*
X175782693Y-99516817D01*
X175638974Y-99530703D01*
X175350332Y-99533333D01*
X175276862Y-99533270D01*
X175020508Y-99529032D01*
X174903981Y-99511659D01*
X174902886Y-99472157D01*
X174992827Y-99401532D01*
X174998830Y-99397293D01*
X175094894Y-99307913D01*
X175150003Y-99181557D01*
X175175068Y-98974172D01*
X175180999Y-98641706D01*
X175180236Y-98441202D01*
X175169268Y-98194039D01*
X175133701Y-98047955D01*
X175059144Y-97959320D01*
X174931204Y-97884507D01*
X174922717Y-97880137D01*
X174620998Y-97759557D01*
X174405220Y-97761858D01*
X174264529Y-97897296D01*
X174188073Y-98176126D01*
X174164999Y-98608606D01*
X174165122Y-98679472D01*
X174172857Y-98992015D01*
X174200170Y-99186129D01*
X174257553Y-99304938D01*
X174355499Y-99391565D01*
X174384366Y-99411936D01*
X174456085Y-99474584D01*
X174431413Y-99508078D01*
X174286043Y-99521307D01*
X173995666Y-99523162D01*
X173768503Y-99520408D01*
X173596936Y-99507425D01*
X173559426Y-99479026D01*
X173635832Y-99429998D01*
X173706179Y-99389994D01*
X173771346Y-99313918D01*
X173807494Y-99179791D01*
X173823023Y-98950531D01*
X173826332Y-98589062D01*
X173826521Y-98500534D01*
X173834774Y-98153448D01*
X173860715Y-97926560D01*
X173911846Y-97779192D01*
X173995666Y-97670667D01*
X174146213Y-97558129D01*
X174314420Y-97501333D01*
X174351732Y-97504928D01*
G37*
G36*
X149919677Y-99723014D02*
G01*
X149669876Y-99918345D01*
X149339623Y-99996908D01*
X148988967Y-99935131D01*
X148692294Y-99723275D01*
X148661065Y-99687775D01*
X148557302Y-99528850D01*
X148519071Y-99340187D01*
X148527149Y-99124711D01*
X148764999Y-99124711D01*
X148801780Y-99445999D01*
X148919833Y-99647211D01*
X149097305Y-99742983D01*
X149338365Y-99787333D01*
X149394891Y-99784660D01*
X149647251Y-99684930D01*
X149808767Y-99454147D01*
X149865666Y-99110000D01*
X149863524Y-99034997D01*
X149785136Y-98709167D01*
X149601659Y-98503991D01*
X149323654Y-98432667D01*
X149222906Y-98438356D01*
X148965604Y-98537629D01*
X148814423Y-98764612D01*
X148764999Y-99124711D01*
X148527149Y-99124711D01*
X148529817Y-99053556D01*
X148546813Y-98905902D01*
X148651836Y-98554155D01*
X148848362Y-98330037D01*
X149150421Y-98214584D01*
X149224271Y-98203393D01*
X149572474Y-98236842D01*
X149845292Y-98419346D01*
X150029632Y-98743034D01*
X150096608Y-99058686D01*
X150092280Y-99110000D01*
X150065821Y-99423719D01*
X149919677Y-99723014D01*
G37*
G36*
X182208332Y-99406333D02*
G01*
X182165999Y-99448667D01*
X182123666Y-99406333D01*
X182165999Y-99364000D01*
X182208332Y-99406333D01*
G37*
G36*
X133186332Y-117059333D02*
G01*
X133186332Y-116890000D01*
X133355666Y-116890000D01*
X193214999Y-116890000D01*
X193214999Y-83870000D01*
X133355666Y-83870000D01*
X133355666Y-116890000D01*
X133186332Y-116890000D01*
X133186332Y-83700667D01*
X193384332Y-83700667D01*
X193384332Y-117059333D01*
X133186332Y-117059333D01*
G37*
G36*
X147481546Y-102380403D02*
G01*
X147482435Y-102661610D01*
X147435642Y-102855106D01*
X147327792Y-103025833D01*
X147211254Y-103150455D01*
X147035532Y-103236854D01*
X146769187Y-103258667D01*
X146610743Y-103245937D01*
X146332979Y-103159123D01*
X146132647Y-103013174D01*
X146055666Y-102835333D01*
X146058282Y-102808943D01*
X146128292Y-102750939D01*
X146252347Y-102792891D01*
X146374684Y-102920000D01*
X146475320Y-103024941D01*
X146694247Y-103091778D01*
X146937224Y-103037631D01*
X147150187Y-102866248D01*
X147269239Y-102701008D01*
X147325561Y-102552618D01*
X147257775Y-102464742D01*
X147051077Y-102422747D01*
X146690666Y-102412000D01*
X146055666Y-102412000D01*
X146055666Y-102154151D01*
X146224999Y-102154151D01*
X146276883Y-102194771D01*
X146467672Y-102229790D01*
X146767406Y-102242667D01*
X146793554Y-102242654D01*
X147074840Y-102237641D01*
X147224027Y-102215310D01*
X147275802Y-102163674D01*
X147264854Y-102070743D01*
X147264163Y-102068156D01*
X147148509Y-101876776D01*
X146953090Y-101716926D01*
X146752645Y-101650000D01*
X146745580Y-101650330D01*
X146605511Y-101716799D01*
X146433086Y-101860161D01*
X146286764Y-102024563D01*
X146224999Y-102154151D01*
X146055666Y-102154151D01*
X146093347Y-101953237D01*
X146273769Y-101678200D01*
X146410134Y-101559827D01*
X146585553Y-101493990D01*
X146835751Y-101506221D01*
X147111219Y-101569053D01*
X147310736Y-101703153D01*
X147423619Y-101936949D01*
X147456328Y-102163674D01*
X147476515Y-102303602D01*
X147481546Y-102380403D01*
G37*
G36*
X156898282Y-97594855D02*
G01*
X157143812Y-97728820D01*
X157316409Y-97919296D01*
X157384051Y-98150986D01*
X157314716Y-98408596D01*
X157133668Y-98603673D01*
X156849049Y-98754679D01*
X156646042Y-98826106D01*
X156309092Y-98957912D01*
X156099395Y-99068142D01*
X155991928Y-99171711D01*
X155961666Y-99283529D01*
X155962691Y-99333353D01*
X156026934Y-99596078D01*
X156203304Y-99742148D01*
X156508930Y-99787333D01*
X156801151Y-99754481D01*
X157045545Y-99618345D01*
X157189492Y-99363499D01*
X157192893Y-99353096D01*
X157279737Y-99212574D01*
X157363491Y-99226739D01*
X157400999Y-99390151D01*
X157397434Y-99452328D01*
X157283761Y-99726104D01*
X157019999Y-99943566D01*
X156801454Y-100016730D01*
X156485743Y-100027773D01*
X156170396Y-99963089D01*
X155910279Y-99835177D01*
X155760259Y-99656540D01*
X155744755Y-99612440D01*
X155717089Y-99284150D01*
X155836609Y-98993218D01*
X156083772Y-98768898D01*
X156439040Y-98640441D01*
X156570189Y-98613628D01*
X156905137Y-98492987D01*
X157094795Y-98328808D01*
X157131321Y-98131174D01*
X157006877Y-97910167D01*
X156999346Y-97902081D01*
X156795101Y-97782977D01*
X156545612Y-97760041D01*
X156302944Y-97820688D01*
X156119163Y-97952330D01*
X156046332Y-98142381D01*
X156031651Y-98198661D01*
X155919332Y-98263333D01*
X155844499Y-98238505D01*
X155796390Y-98116194D01*
X155835200Y-97938924D01*
X155956943Y-97760056D01*
X156044325Y-97684980D01*
X156316517Y-97557640D01*
X156611843Y-97532697D01*
X156898282Y-97594855D01*
G37*
G36*
X182038999Y-98983000D02*
G01*
X181996666Y-99025333D01*
X181954332Y-98983000D01*
X181996666Y-98940667D01*
X182038999Y-98983000D01*
G37*
G36*
X149272925Y-102413248D02*
G01*
X149229788Y-102773266D01*
X149097521Y-103035582D01*
X148991220Y-103149342D01*
X148815373Y-103236293D01*
X148547187Y-103258667D01*
X148388743Y-103245937D01*
X148110979Y-103159123D01*
X147910647Y-103013174D01*
X147833666Y-102835333D01*
X147862029Y-102761680D01*
X147968924Y-102780153D01*
X148129999Y-102920000D01*
X148286847Y-103035579D01*
X148532077Y-103080640D01*
X148769218Y-103013205D01*
X148948211Y-102850698D01*
X149018999Y-102610544D01*
X149016897Y-102549055D01*
X148988063Y-102472399D01*
X148896699Y-102431424D01*
X148707210Y-102415001D01*
X148383999Y-102412000D01*
X148380610Y-102411999D01*
X148048775Y-102400839D01*
X147828708Y-102370399D01*
X147748999Y-102324614D01*
X147749884Y-102311883D01*
X147789203Y-102163229D01*
X147793230Y-102152467D01*
X148015729Y-102152467D01*
X148068295Y-102208973D01*
X148221960Y-102235842D01*
X148510680Y-102242667D01*
X148527564Y-102242662D01*
X148805513Y-102237765D01*
X148952878Y-102213998D01*
X149006625Y-102157138D01*
X149003721Y-102052960D01*
X148923739Y-101893812D01*
X148734116Y-101747349D01*
X148592551Y-101689027D01*
X148443900Y-101690078D01*
X148268449Y-101797862D01*
X148264847Y-101800565D01*
X148101502Y-101957909D01*
X148017958Y-102103473D01*
X148015729Y-102152467D01*
X147793230Y-102152467D01*
X147868831Y-101950429D01*
X147922148Y-101841356D01*
X148144536Y-101589593D01*
X148424218Y-101482643D01*
X148728706Y-101526749D01*
X149025512Y-101728154D01*
X149176780Y-101907326D01*
X149253891Y-102107155D01*
X149257220Y-102157138D01*
X149272999Y-102394069D01*
X149272925Y-102413248D01*
G37*
G36*
X167657165Y-97589298D02*
G01*
X167752889Y-97618147D01*
X167938375Y-97697109D01*
X167975387Y-97777265D01*
X167878366Y-97877423D01*
X167795873Y-98012425D01*
X167740167Y-98268730D01*
X167719488Y-98587274D01*
X167734121Y-98914273D01*
X167784349Y-99195943D01*
X167870455Y-99378500D01*
X167902384Y-99414771D01*
X167940020Y-99480763D01*
X167891667Y-99514846D01*
X167729565Y-99526077D01*
X167425955Y-99523512D01*
X167380986Y-99522622D01*
X167134722Y-99511376D01*
X167001980Y-99493372D01*
X167010666Y-99472068D01*
X167114998Y-99437510D01*
X167285832Y-99344522D01*
X167292945Y-99338100D01*
X167359316Y-99181989D01*
X167387803Y-98922007D01*
X167379635Y-98614431D01*
X167336042Y-98315536D01*
X167258252Y-98081598D01*
X167208687Y-97992941D01*
X167100909Y-97882315D01*
X166950319Y-97875880D01*
X166704091Y-97962260D01*
X166614302Y-97975219D01*
X166510724Y-97872801D01*
X166506949Y-97862287D01*
X166520426Y-97712636D01*
X166643137Y-97617861D01*
X166824147Y-97587216D01*
X167012518Y-97629956D01*
X167157315Y-97755333D01*
X167280848Y-97902359D01*
X167362397Y-97890217D01*
X167391666Y-97718910D01*
X167403871Y-97590059D01*
X167475705Y-97549156D01*
X167657165Y-97589298D01*
G37*
G36*
X143382457Y-101505315D02*
G01*
X143614832Y-101620789D01*
X143720758Y-101693390D01*
X143769666Y-101663122D01*
X143784108Y-101617969D01*
X143896666Y-101565333D01*
X143923096Y-101569340D01*
X143973362Y-101623703D01*
X144004094Y-101763700D01*
X144019469Y-102017182D01*
X144023666Y-102412000D01*
X144023065Y-102588199D01*
X144014910Y-102923306D01*
X143993911Y-103128185D01*
X143955889Y-103230688D01*
X143896666Y-103258667D01*
X143851153Y-103246515D01*
X143801665Y-103161837D01*
X143776611Y-102969891D01*
X143769666Y-102639849D01*
X143769136Y-102552254D01*
X143744927Y-102173403D01*
X143674353Y-101924322D01*
X143543221Y-101773854D01*
X143337337Y-101690844D01*
X143223401Y-101672396D01*
X143041203Y-101710485D01*
X142922395Y-101864715D01*
X142857823Y-102151532D01*
X142838332Y-102587381D01*
X142838086Y-102643484D01*
X142825200Y-102963642D01*
X142795697Y-103179508D01*
X142753666Y-103258667D01*
X142741668Y-103252652D01*
X142703533Y-103132448D01*
X142678192Y-102880034D01*
X142668999Y-102524500D01*
X142671671Y-102279779D01*
X142691493Y-101964608D01*
X142735428Y-101761784D01*
X142809121Y-101635500D01*
X142866975Y-101584313D01*
X143107527Y-101493625D01*
X143382457Y-101505315D01*
G37*
G36*
X164472365Y-96432551D02*
G01*
X164512999Y-96564111D01*
X164512917Y-96572865D01*
X164463191Y-96702962D01*
X164295124Y-96739333D01*
X164156403Y-96704641D01*
X164099034Y-96602610D01*
X164156321Y-96487676D01*
X164323364Y-96415945D01*
X164324206Y-96415825D01*
X164472365Y-96432551D01*
G37*
G36*
X155025537Y-101622303D02*
G01*
X155037911Y-101630864D01*
X155153133Y-101693961D01*
X155166379Y-101664637D01*
X155151067Y-101609339D01*
X155237002Y-101565333D01*
X155271339Y-101571234D01*
X155320754Y-101627709D01*
X155350530Y-101767593D01*
X155365125Y-102019489D01*
X155368999Y-102412000D01*
X155368605Y-102553645D01*
X155360958Y-102902869D01*
X155340524Y-103118657D01*
X155303335Y-103228195D01*
X155245423Y-103258667D01*
X155196709Y-103240094D01*
X155147868Y-103137705D01*
X155116675Y-102921243D01*
X155097257Y-102563129D01*
X155088026Y-102334237D01*
X155067267Y-102071463D01*
X155028802Y-101912423D01*
X154960340Y-101816397D01*
X154849589Y-101742666D01*
X154725025Y-101680795D01*
X154580828Y-101669597D01*
X154405089Y-101762822D01*
X154337224Y-101810107D01*
X154252762Y-101898873D01*
X154206695Y-102028867D01*
X154187503Y-102242775D01*
X154183666Y-102583285D01*
X154183395Y-102642426D01*
X154170438Y-102963328D01*
X154140961Y-103179469D01*
X154098999Y-103258667D01*
X154085333Y-103250671D01*
X154047976Y-103124016D01*
X154023265Y-102864945D01*
X154014332Y-102501467D01*
X154015630Y-102254603D01*
X154026717Y-101973587D01*
X154056082Y-101798764D01*
X154111940Y-101691327D01*
X154202505Y-101612467D01*
X154386297Y-101520673D01*
X154711909Y-101495031D01*
X155025537Y-101622303D01*
G37*
G36*
X153416943Y-103094056D02*
G01*
X153374699Y-103128947D01*
X153151789Y-103221911D01*
X152871585Y-103260578D01*
X152604913Y-103240459D01*
X152422599Y-103157067D01*
X152394859Y-103131949D01*
X152336662Y-103132033D01*
X152320999Y-103279266D01*
X152326698Y-103344682D01*
X152431037Y-103552771D01*
X152628240Y-103698972D01*
X152867802Y-103766394D01*
X153099217Y-103738145D01*
X153271981Y-103597333D01*
X153360171Y-103492788D01*
X153484365Y-103428000D01*
X153534633Y-103436544D01*
X153589031Y-103522995D01*
X153541466Y-103662295D01*
X153402827Y-103804199D01*
X153317936Y-103849713D01*
X153040829Y-103919999D01*
X152723478Y-103933615D01*
X152451792Y-103883406D01*
X152379837Y-103846927D01*
X152235766Y-103686797D01*
X152138804Y-103413879D01*
X152084150Y-103010388D01*
X152066999Y-102458538D01*
X152067239Y-102403700D01*
X152304923Y-102403700D01*
X152349169Y-102710414D01*
X152459000Y-102932156D01*
X152504320Y-102974978D01*
X152743232Y-103076170D01*
X153015376Y-103057495D01*
X153252332Y-102920000D01*
X153331360Y-102818020D01*
X153423052Y-102532904D01*
X153404688Y-102216995D01*
X153285165Y-101929473D01*
X153073377Y-101729517D01*
X152970071Y-101694433D01*
X152721630Y-101712058D01*
X152491858Y-101829971D01*
X152353463Y-102018939D01*
X152334870Y-102086504D01*
X152304923Y-102403700D01*
X152067239Y-102403700D01*
X152068048Y-102218605D01*
X152077025Y-101891871D01*
X152098423Y-101692271D01*
X152136121Y-101592520D01*
X152193999Y-101565333D01*
X152252499Y-101575455D01*
X152320999Y-101654801D01*
X152373065Y-101680675D01*
X152509171Y-101612467D01*
X152687884Y-101522890D01*
X153010291Y-101492305D01*
X153311681Y-101607929D01*
X153492255Y-101808551D01*
X153614339Y-102125204D01*
X153645149Y-102482660D01*
X153635672Y-102532904D01*
X153580684Y-102824437D01*
X153416943Y-103094056D01*
G37*
G36*
X144580876Y-100919753D02*
G01*
X144616332Y-101057333D01*
X144600456Y-101155754D01*
X144531666Y-101226667D01*
X144482455Y-101194914D01*
X144446999Y-101057333D01*
X144462876Y-100958912D01*
X144531666Y-100888000D01*
X144580876Y-100919753D01*
G37*
G36*
X158877898Y-98668502D02*
G01*
X158881639Y-98902441D01*
X158884487Y-99271163D01*
X158886300Y-99766429D01*
X158886937Y-100380000D01*
X158886912Y-100507734D01*
X158886036Y-101099026D01*
X158884011Y-101570417D01*
X158880979Y-101913668D01*
X158877083Y-102120540D01*
X158872465Y-102182796D01*
X158867268Y-102092195D01*
X158861635Y-101840500D01*
X158859270Y-101689842D01*
X158852949Y-101021712D01*
X158851236Y-100284258D01*
X158854132Y-99557009D01*
X158861635Y-98919500D01*
X158862754Y-98857763D01*
X158868313Y-98637924D01*
X158873409Y-98577583D01*
X158877898Y-98668502D01*
G37*
G36*
X185848999Y-103793074D02*
G01*
X185847569Y-103850836D01*
X185844603Y-103970609D01*
X185823674Y-104193194D01*
X185791318Y-104304125D01*
X185779124Y-104308578D01*
X185636010Y-104321651D01*
X185351560Y-104331945D01*
X184947262Y-104339163D01*
X184444603Y-104343009D01*
X183865070Y-104343188D01*
X183230152Y-104339403D01*
X180726666Y-104317000D01*
X180712312Y-104041833D01*
X180939629Y-104041833D01*
X180970583Y-104078717D01*
X181107666Y-104105333D01*
X181212691Y-104093909D01*
X181269245Y-104017586D01*
X181191036Y-103851333D01*
X181179743Y-103834391D01*
X181163922Y-103820295D01*
X181327777Y-103820295D01*
X181336570Y-103933843D01*
X181373809Y-104017586D01*
X181394888Y-104064988D01*
X181483212Y-104090641D01*
X181557303Y-103957167D01*
X181569026Y-103912944D01*
X181594018Y-103852819D01*
X181605844Y-103957167D01*
X181632725Y-104055367D01*
X181722079Y-104100003D01*
X181813593Y-103999500D01*
X181845963Y-103937108D01*
X181862982Y-103999500D01*
X181903054Y-104098087D01*
X181992988Y-104099945D01*
X182082613Y-104011058D01*
X182099621Y-103945744D01*
X182400278Y-103945744D01*
X182416066Y-104085415D01*
X182514993Y-104137162D01*
X182737499Y-104123899D01*
X182744855Y-104122957D01*
X182916614Y-104093340D01*
X182961396Y-104035521D01*
X182930509Y-103937355D01*
X183054999Y-103937355D01*
X183080018Y-104035521D01*
X183090103Y-104075090D01*
X183173956Y-104089658D01*
X183250636Y-103957167D01*
X183259838Y-103923087D01*
X183286401Y-103869128D01*
X183300474Y-103978333D01*
X183303281Y-104014586D01*
X183330202Y-104094490D01*
X183401408Y-104020667D01*
X183475960Y-103945590D01*
X183534167Y-103999500D01*
X183551828Y-104032968D01*
X183659594Y-104102935D01*
X183768280Y-104075474D01*
X183801702Y-103961427D01*
X183792973Y-103936000D01*
X183901666Y-103936000D01*
X183905768Y-103961427D01*
X183917542Y-104034421D01*
X183986332Y-104105333D01*
X184035543Y-104073580D01*
X184070999Y-103936000D01*
X184063038Y-103886650D01*
X184178326Y-103886650D01*
X184178594Y-103888816D01*
X184198427Y-103936000D01*
X184243331Y-104042828D01*
X184348986Y-104077591D01*
X184441568Y-103974987D01*
X184454732Y-103936000D01*
X184723800Y-103936000D01*
X184724714Y-104066770D01*
X184849984Y-104105333D01*
X184962478Y-104079693D01*
X184969058Y-103971408D01*
X184944005Y-103901599D01*
X184935243Y-103868491D01*
X185104410Y-103868491D01*
X185111050Y-103971408D01*
X185115593Y-104041833D01*
X185144992Y-104056195D01*
X185158297Y-103936000D01*
X185153296Y-103886650D01*
X185278992Y-103886650D01*
X185279261Y-103888816D01*
X185299094Y-103936000D01*
X185343997Y-104042828D01*
X185449653Y-104077591D01*
X185542234Y-103974987D01*
X185584155Y-103850836D01*
X185575394Y-103783287D01*
X185476233Y-103844500D01*
X185379877Y-103898890D01*
X185308392Y-103833700D01*
X185282261Y-103801070D01*
X185278992Y-103886650D01*
X185153296Y-103886650D01*
X185146495Y-103819530D01*
X185115593Y-103830167D01*
X185104410Y-103868491D01*
X184935243Y-103868491D01*
X184917666Y-103802075D01*
X184917057Y-103790357D01*
X184870118Y-103755308D01*
X184787330Y-103816546D01*
X184769093Y-103850836D01*
X184723800Y-103936000D01*
X184454732Y-103936000D01*
X184483489Y-103850836D01*
X184474727Y-103783287D01*
X184375566Y-103844500D01*
X184279211Y-103898890D01*
X184207726Y-103833700D01*
X184181595Y-103801070D01*
X184178326Y-103886650D01*
X184063038Y-103886650D01*
X184055123Y-103837579D01*
X183986332Y-103766667D01*
X183937122Y-103798419D01*
X183901666Y-103936000D01*
X183792973Y-103936000D01*
X183787767Y-103920835D01*
X183669561Y-103834338D01*
X183414494Y-103793449D01*
X183397021Y-103792305D01*
X183177431Y-103789950D01*
X183078213Y-103832380D01*
X183054999Y-103937355D01*
X182930509Y-103937355D01*
X182918941Y-103900591D01*
X182850623Y-103795895D01*
X182759509Y-103779563D01*
X182716332Y-103893667D01*
X182706780Y-103952090D01*
X182631666Y-104020667D01*
X182603688Y-104014755D01*
X182568166Y-103925417D01*
X182570398Y-103894420D01*
X182501594Y-103797392D01*
X182447014Y-103811095D01*
X182429265Y-103858389D01*
X182401148Y-103933309D01*
X182400278Y-103945744D01*
X182099621Y-103945744D01*
X182122369Y-103858389D01*
X182107962Y-103774331D01*
X182048286Y-103839206D01*
X182003749Y-103887640D01*
X181928528Y-103878078D01*
X181922403Y-103870425D01*
X181797203Y-103815434D01*
X181586641Y-103782215D01*
X181410933Y-103778880D01*
X181327777Y-103820295D01*
X181163922Y-103820295D01*
X181103994Y-103766903D01*
X181024296Y-103851333D01*
X180982376Y-103923514D01*
X180939629Y-104041833D01*
X180712312Y-104041833D01*
X180701277Y-103830275D01*
X180692335Y-103568565D01*
X180703533Y-103474525D01*
X180910886Y-103474525D01*
X180944058Y-103531098D01*
X181086499Y-103582055D01*
X181235629Y-103566041D01*
X181276999Y-103436617D01*
X181276502Y-103409867D01*
X181236654Y-103308156D01*
X181101386Y-103329087D01*
X180993243Y-103384119D01*
X180910886Y-103474525D01*
X180703533Y-103474525D01*
X180712020Y-103403246D01*
X180779598Y-103311074D01*
X180912944Y-103242404D01*
X181109168Y-103142605D01*
X181308510Y-103009462D01*
X181362766Y-102965772D01*
X181428635Y-102937321D01*
X181439247Y-103018396D01*
X181406901Y-103237500D01*
X181373634Y-103436617D01*
X181346782Y-103597333D01*
X185193308Y-103597333D01*
X185164264Y-103415704D01*
X185256332Y-103415704D01*
X185284310Y-103509235D01*
X185411769Y-103568924D01*
X185594071Y-103513240D01*
X185599638Y-103447005D01*
X185470402Y-103359833D01*
X185371155Y-103318304D01*
X185277154Y-103314850D01*
X185256332Y-103415704D01*
X185164264Y-103415704D01*
X185136530Y-103242265D01*
X185120093Y-103136339D01*
X185105915Y-102978988D01*
X185139075Y-102947860D01*
X185231543Y-103014227D01*
X185388588Y-103122052D01*
X185616166Y-103240480D01*
X185707776Y-103284424D01*
X185800946Y-103372191D01*
X185820483Y-103447005D01*
X185840664Y-103524282D01*
X185848999Y-103793074D01*
G37*
G36*
X174674063Y-100162446D02*
G01*
X175075028Y-100374300D01*
X175093584Y-100387935D01*
X175439633Y-100737419D01*
X175657171Y-101152194D01*
X175748315Y-101600787D01*
X175715184Y-102051725D01*
X175559896Y-102473536D01*
X175284568Y-102834746D01*
X174891321Y-103103883D01*
X174848984Y-103123260D01*
X174603532Y-103206392D01*
X174327508Y-103237356D01*
X173953332Y-103224868D01*
X173637404Y-103191908D01*
X173313734Y-103137195D01*
X173085499Y-103075392D01*
X172952883Y-103017345D01*
X172856148Y-102931176D01*
X172817401Y-102782406D01*
X172810332Y-102517709D01*
X172809378Y-102408119D01*
X172790322Y-102183122D01*
X172733090Y-102060626D01*
X172619832Y-101991305D01*
X172578852Y-101968947D01*
X172614037Y-101939045D01*
X172801277Y-101923402D01*
X173148999Y-101920897D01*
X173306975Y-101923262D01*
X173551386Y-101932830D01*
X173676380Y-101947064D01*
X173656999Y-101963853D01*
X173443676Y-102046488D01*
X173285285Y-102256678D01*
X173233666Y-102594537D01*
X173253754Y-102784190D01*
X173363468Y-102971836D01*
X173588953Y-103075135D01*
X173952941Y-103110387D01*
X174306034Y-103063974D01*
X174675760Y-102883262D01*
X174967553Y-102592515D01*
X175167296Y-102219727D01*
X175260872Y-101792893D01*
X175234164Y-101340009D01*
X175073056Y-100889068D01*
X174995037Y-100759976D01*
X174713866Y-100464008D01*
X174372421Y-100276789D01*
X174005275Y-100201863D01*
X173647003Y-100242774D01*
X173332181Y-100403069D01*
X173095381Y-100686292D01*
X173065898Y-100739603D01*
X172961308Y-100905733D01*
X172896912Y-100972667D01*
X172884419Y-100957506D01*
X172861679Y-100825336D01*
X172852666Y-100601443D01*
X172852666Y-100230220D01*
X173430020Y-100127041D01*
X173647161Y-100093374D01*
X174207008Y-100070142D01*
X174674063Y-100162446D01*
G37*
G36*
X182086225Y-99113810D02*
G01*
X182165999Y-99194667D01*
X182181769Y-99224643D01*
X182175993Y-99279333D01*
X182161107Y-99275523D01*
X182081332Y-99194667D01*
X182065562Y-99164690D01*
X182071339Y-99110000D01*
X182086225Y-99113810D01*
G37*
G36*
X185848275Y-99239565D02*
G01*
X185848054Y-99364000D01*
X185847814Y-99498945D01*
X185847199Y-99575667D01*
X185846287Y-99689362D01*
X185844985Y-99851758D01*
X185843666Y-100016194D01*
X185840554Y-100159145D01*
X185834992Y-100414617D01*
X185820242Y-100717692D01*
X185797868Y-100948896D01*
X185766320Y-101131707D01*
X185724049Y-101289601D01*
X185686810Y-101396418D01*
X185669505Y-101446055D01*
X185646343Y-101503518D01*
X185432518Y-101880567D01*
X185118179Y-102286701D01*
X184744753Y-102677806D01*
X184585505Y-102812978D01*
X184353662Y-103009769D01*
X183986332Y-103238477D01*
X183530138Y-103391373D01*
X183057444Y-103397461D01*
X182567243Y-103241647D01*
X182211606Y-103024008D01*
X182135848Y-102961255D01*
X183000536Y-102961255D01*
X183043233Y-103016381D01*
X183203692Y-103080051D01*
X183392217Y-103078288D01*
X183521134Y-103003909D01*
X183531825Y-102983714D01*
X183539320Y-102812978D01*
X183453635Y-102652447D01*
X183313661Y-102581333D01*
X183135360Y-102639855D01*
X183010808Y-102787188D01*
X183000536Y-102961255D01*
X182135848Y-102961255D01*
X181820994Y-102700450D01*
X181441723Y-102316984D01*
X181118576Y-101918906D01*
X180896336Y-101551516D01*
X180838491Y-101423932D01*
X180788746Y-101294365D01*
X180751178Y-101152786D01*
X180724067Y-100976721D01*
X180709396Y-100790655D01*
X180980666Y-100790655D01*
X181255832Y-100974642D01*
X181308292Y-101010975D01*
X181467075Y-101140587D01*
X181530999Y-101227054D01*
X181574804Y-101260985D01*
X181721499Y-101253729D01*
X181749752Y-101247760D01*
X181846025Y-101241099D01*
X181793828Y-101295444D01*
X181755432Y-101338105D01*
X181725460Y-101471105D01*
X181759722Y-101594950D01*
X181846143Y-101631957D01*
X181846352Y-101631895D01*
X181956742Y-101660917D01*
X182129166Y-101757644D01*
X182211519Y-101806814D01*
X182612106Y-101937551D01*
X183090932Y-101958122D01*
X183605047Y-101865392D01*
X183824188Y-101807173D01*
X184123948Y-101743316D01*
X184340592Y-101715676D01*
X184522533Y-101687706D01*
X184637434Y-101623948D01*
X184649485Y-101584591D01*
X184570914Y-101607006D01*
X184497581Y-101638621D01*
X184550424Y-101568229D01*
X184611868Y-101520322D01*
X184750565Y-101495522D01*
X184783589Y-101519137D01*
X184768035Y-101622370D01*
X184652104Y-101770668D01*
X184466832Y-101934713D01*
X184243259Y-102085186D01*
X184012421Y-102192771D01*
X183650548Y-102286098D01*
X183085984Y-102312302D01*
X182561616Y-102190971D01*
X182105128Y-101925976D01*
X181827332Y-101700460D01*
X182026196Y-101922422D01*
X182236463Y-102107367D01*
X182470696Y-102246131D01*
X182477855Y-102249127D01*
X182646528Y-102341538D01*
X182716332Y-102422272D01*
X182727106Y-102443391D01*
X182852188Y-102479374D01*
X183081535Y-102484273D01*
X183369787Y-102458946D01*
X183671584Y-102404246D01*
X183711619Y-102394475D01*
X184169188Y-102227560D01*
X184532263Y-101991677D01*
X184775938Y-101707679D01*
X184875308Y-101396418D01*
X184862488Y-101222245D01*
X184786285Y-101054589D01*
X184671235Y-100990369D01*
X184548671Y-101061693D01*
X184546549Y-101064407D01*
X184435014Y-101174713D01*
X184284670Y-101290210D01*
X184138487Y-101383419D01*
X184039434Y-101426863D01*
X184030481Y-101393063D01*
X184046515Y-101348660D01*
X183981477Y-101320640D01*
X183779544Y-101347165D01*
X183750237Y-101352608D01*
X183563534Y-101377159D01*
X183498602Y-101344601D01*
X183516748Y-101239009D01*
X183534441Y-101132781D01*
X183499482Y-101028071D01*
X183476761Y-101005277D01*
X183426049Y-100849123D01*
X183409733Y-100621951D01*
X183429107Y-100396224D01*
X183485468Y-100244402D01*
X183516015Y-100189500D01*
X184596893Y-100189500D01*
X184607471Y-100316834D01*
X184636239Y-100456970D01*
X184672034Y-100443500D01*
X184691673Y-100339104D01*
X184699261Y-100159145D01*
X184692948Y-99971540D01*
X184674998Y-99835232D01*
X184669165Y-99829667D01*
X184917666Y-99829667D01*
X184959999Y-99872000D01*
X185002332Y-99829667D01*
X184993512Y-99820847D01*
X185109930Y-99820847D01*
X185110330Y-99829667D01*
X185111241Y-99849749D01*
X185221055Y-99865316D01*
X185304278Y-99851758D01*
X185272207Y-99814163D01*
X185223247Y-99800636D01*
X185109930Y-99820847D01*
X184993512Y-99820847D01*
X184959999Y-99787333D01*
X184917666Y-99829667D01*
X184669165Y-99829667D01*
X184647674Y-99809165D01*
X184647033Y-99810178D01*
X184641727Y-99829667D01*
X184604757Y-99965465D01*
X184596893Y-100189500D01*
X183516015Y-100189500D01*
X183538396Y-100149276D01*
X183488121Y-100010794D01*
X183460031Y-99962848D01*
X183435211Y-99829667D01*
X184070999Y-99829667D01*
X184113332Y-99872000D01*
X184155666Y-99829667D01*
X184324999Y-99829667D01*
X184367332Y-99872000D01*
X184409666Y-99829667D01*
X184367332Y-99787333D01*
X184324999Y-99829667D01*
X184155666Y-99829667D01*
X184113332Y-99787333D01*
X184070999Y-99829667D01*
X183435211Y-99829667D01*
X183421220Y-99754593D01*
X183435541Y-99549685D01*
X183941759Y-99549685D01*
X183942503Y-99587817D01*
X184046181Y-99654890D01*
X184062244Y-99660917D01*
X184147081Y-99678682D01*
X184093577Y-99607494D01*
X184031324Y-99559182D01*
X183941759Y-99549685D01*
X183435541Y-99549685D01*
X183438731Y-99504038D01*
X183484934Y-99369512D01*
X184515091Y-99369512D01*
X184536666Y-99448667D01*
X184554061Y-99473730D01*
X184631326Y-99533333D01*
X184642907Y-99527821D01*
X184626732Y-99468480D01*
X184775025Y-99468480D01*
X184832999Y-99505188D01*
X184876674Y-99527821D01*
X184891274Y-99535387D01*
X185029945Y-99651862D01*
X185057406Y-99678682D01*
X185068341Y-99689362D01*
X185065262Y-99618000D01*
X185038842Y-99575667D01*
X185340999Y-99575667D01*
X185383332Y-99618000D01*
X185425666Y-99575667D01*
X185383332Y-99533333D01*
X185340999Y-99575667D01*
X185038842Y-99575667D01*
X185020202Y-99545799D01*
X184868316Y-99471326D01*
X184775025Y-99468480D01*
X184626732Y-99468480D01*
X184621332Y-99448667D01*
X184603938Y-99423603D01*
X184526672Y-99364000D01*
X184515091Y-99369512D01*
X183484934Y-99369512D01*
X183501366Y-99321667D01*
X183901666Y-99321667D01*
X183943999Y-99364000D01*
X183986332Y-99321667D01*
X184917666Y-99321667D01*
X184959999Y-99364000D01*
X185086999Y-99364000D01*
X185090445Y-99387206D01*
X185176663Y-99448667D01*
X185207286Y-99442019D01*
X185213999Y-99364000D01*
X185196622Y-99338662D01*
X185148912Y-99299504D01*
X185375897Y-99299504D01*
X185390748Y-99361233D01*
X185471481Y-99273700D01*
X185488435Y-99239565D01*
X185486937Y-99143049D01*
X185458783Y-99141142D01*
X185451218Y-99152333D01*
X185396449Y-99233348D01*
X185375897Y-99299504D01*
X185148912Y-99299504D01*
X185124336Y-99279333D01*
X185115886Y-99281534D01*
X185101828Y-99321667D01*
X185086999Y-99364000D01*
X184959999Y-99364000D01*
X185002332Y-99321667D01*
X184959999Y-99279333D01*
X184917666Y-99321667D01*
X183986332Y-99321667D01*
X183943999Y-99279333D01*
X183901666Y-99321667D01*
X183501366Y-99321667D01*
X183509951Y-99296671D01*
X183529677Y-99247345D01*
X183516787Y-99152333D01*
X183816999Y-99152333D01*
X183859332Y-99194667D01*
X183901666Y-99152333D01*
X184578999Y-99152333D01*
X184621332Y-99194667D01*
X184663666Y-99152333D01*
X184621332Y-99110000D01*
X184578999Y-99152333D01*
X183901666Y-99152333D01*
X183859332Y-99110000D01*
X183816999Y-99152333D01*
X183516787Y-99152333D01*
X183508338Y-99090052D01*
X183502671Y-99067667D01*
X185171666Y-99067667D01*
X185213999Y-99110000D01*
X185256332Y-99067667D01*
X185213999Y-99025333D01*
X185171666Y-99067667D01*
X183502671Y-99067667D01*
X183469550Y-98936850D01*
X183468688Y-98861512D01*
X184769091Y-98861512D01*
X184790666Y-98940667D01*
X184808061Y-98965730D01*
X184885326Y-99025333D01*
X184896907Y-99019821D01*
X184875332Y-98940667D01*
X184857938Y-98915603D01*
X184780672Y-98856000D01*
X184769091Y-98861512D01*
X183468688Y-98861512D01*
X183468270Y-98825022D01*
X183916642Y-98825022D01*
X183986332Y-98856000D01*
X184031155Y-98849890D01*
X184039519Y-98813667D01*
X185086999Y-98813667D01*
X185129332Y-98856000D01*
X185171666Y-98813667D01*
X185164535Y-98806536D01*
X185302777Y-98806536D01*
X185303260Y-98813667D01*
X185308694Y-98893936D01*
X185336023Y-98955481D01*
X185395881Y-99019821D01*
X185398458Y-99022591D01*
X185425666Y-98945663D01*
X185422657Y-98922667D01*
X185341969Y-98814266D01*
X185302777Y-98806536D01*
X185164535Y-98806536D01*
X185129332Y-98771333D01*
X185101111Y-98799555D01*
X185086999Y-98813667D01*
X184039519Y-98813667D01*
X184042777Y-98799555D01*
X184030368Y-98789422D01*
X183929888Y-98799555D01*
X183916642Y-98825022D01*
X183468270Y-98825022D01*
X183467301Y-98740355D01*
X184763309Y-98740355D01*
X184832999Y-98771333D01*
X184877821Y-98765223D01*
X184889444Y-98714889D01*
X184877034Y-98704756D01*
X184776555Y-98714889D01*
X184763309Y-98740355D01*
X183467301Y-98740355D01*
X183467008Y-98714698D01*
X183460259Y-98557965D01*
X184089088Y-98557965D01*
X184099221Y-98658444D01*
X184124688Y-98671690D01*
X184155666Y-98602000D01*
X184149556Y-98557178D01*
X184099221Y-98545555D01*
X184089088Y-98557965D01*
X183460259Y-98557965D01*
X183456870Y-98479268D01*
X183451134Y-98459390D01*
X184776555Y-98459390D01*
X184806075Y-98523506D01*
X184941347Y-98580504D01*
X185032012Y-98584071D01*
X185075403Y-98573501D01*
X185055761Y-98559667D01*
X185171666Y-98559667D01*
X185213999Y-98602000D01*
X185256332Y-98559667D01*
X185213999Y-98517333D01*
X185171666Y-98559667D01*
X185055761Y-98559667D01*
X185035374Y-98545308D01*
X184910610Y-98452386D01*
X184804239Y-98393788D01*
X184776555Y-98459390D01*
X183451134Y-98459390D01*
X183414923Y-98333889D01*
X184240332Y-98333889D01*
X184253241Y-98365227D01*
X184363608Y-98404444D01*
X184417377Y-98395734D01*
X184437368Y-98348000D01*
X184917666Y-98348000D01*
X184920126Y-98368237D01*
X185002332Y-98432667D01*
X185022570Y-98430206D01*
X185086999Y-98348000D01*
X185084539Y-98327762D01*
X185002332Y-98263333D01*
X184982095Y-98265793D01*
X184928725Y-98333889D01*
X184917666Y-98348000D01*
X184437368Y-98348000D01*
X184443278Y-98333889D01*
X184436373Y-98323990D01*
X184320002Y-98263333D01*
X184304477Y-98264687D01*
X184240332Y-98333889D01*
X183414923Y-98333889D01*
X183395618Y-98266980D01*
X183355863Y-98197583D01*
X183278546Y-98139810D01*
X183171505Y-98219399D01*
X183087397Y-98380042D01*
X183065174Y-98668257D01*
X183067555Y-98710580D01*
X183058108Y-98946655D01*
X183016351Y-99104037D01*
X182993944Y-99189574D01*
X183089464Y-99326383D01*
X183170288Y-99407776D01*
X183139733Y-99490958D01*
X183088279Y-99561190D01*
X183068554Y-99731920D01*
X183069013Y-99854406D01*
X183018285Y-100033011D01*
X182992918Y-100117341D01*
X182998617Y-100126000D01*
X183081451Y-100251857D01*
X183148652Y-100325289D01*
X183147417Y-100429513D01*
X183129612Y-100457526D01*
X183074976Y-100625802D01*
X183031419Y-100866833D01*
X183024681Y-100922627D01*
X183013604Y-101121534D01*
X183053597Y-101207882D01*
X183160845Y-101226667D01*
X183251226Y-101229961D01*
X183285654Y-101267903D01*
X183192993Y-101383852D01*
X183077445Y-101472821D01*
X182832198Y-101499260D01*
X182672643Y-101496079D01*
X182553537Y-101554755D01*
X182540737Y-101572215D01*
X182432953Y-101609458D01*
X182223876Y-101558065D01*
X182128713Y-101523753D01*
X181991057Y-101446904D01*
X181981639Y-101338261D01*
X182081332Y-101142000D01*
X182117445Y-101076559D01*
X182201751Y-100865619D01*
X182167252Y-100773145D01*
X182013514Y-100796928D01*
X181936848Y-100817073D01*
X181688822Y-100840057D01*
X181399681Y-100830826D01*
X180980666Y-100790655D01*
X180709396Y-100790655D01*
X180705693Y-100743696D01*
X180694335Y-100431236D01*
X180688274Y-100016866D01*
X180687184Y-99780506D01*
X181136935Y-99780506D01*
X181729361Y-99805086D01*
X181989276Y-99823051D01*
X182249928Y-99868952D01*
X182356782Y-99935500D01*
X182353211Y-99992129D01*
X182258921Y-100037370D01*
X182110066Y-100020141D01*
X181971266Y-99939733D01*
X181894196Y-99882363D01*
X181869666Y-99948792D01*
X181850820Y-100002131D01*
X181738268Y-100009028D01*
X181672226Y-99994191D01*
X181658599Y-100042303D01*
X181704590Y-100071830D01*
X181883924Y-100110756D01*
X182139602Y-100126000D01*
X182568879Y-100126000D01*
X182509669Y-99512167D01*
X182508660Y-99501852D01*
X182463303Y-99172618D01*
X182402115Y-98893521D01*
X182338044Y-98724011D01*
X182276252Y-98559325D01*
X182269184Y-98321844D01*
X182272547Y-98304161D01*
X182285425Y-98183443D01*
X182240391Y-98120965D01*
X182112075Y-98099512D01*
X184599758Y-98099512D01*
X184621332Y-98178667D01*
X184638727Y-98203730D01*
X184715993Y-98263333D01*
X184727574Y-98257821D01*
X184705999Y-98178667D01*
X184688604Y-98153603D01*
X184611339Y-98094000D01*
X184599758Y-98099512D01*
X182112075Y-98099512D01*
X182100304Y-98097544D01*
X181828024Y-98094000D01*
X181803314Y-98094005D01*
X181542128Y-98098492D01*
X181411465Y-98123607D01*
X181375115Y-98187270D01*
X181396870Y-98307404D01*
X181409391Y-98478127D01*
X181354943Y-98699228D01*
X181318022Y-98789217D01*
X181251067Y-99036098D01*
X181198195Y-99329077D01*
X181136935Y-99780506D01*
X180687184Y-99780506D01*
X180685789Y-99478112D01*
X180685160Y-98792500D01*
X180684864Y-97967000D01*
X183224332Y-97967000D01*
X183266666Y-98009333D01*
X183308999Y-97967000D01*
X184748332Y-97967000D01*
X184790666Y-98009333D01*
X184832999Y-97967000D01*
X184790666Y-97924667D01*
X184748332Y-97967000D01*
X183308999Y-97967000D01*
X183266666Y-97924667D01*
X183224332Y-97967000D01*
X180684864Y-97967000D01*
X180684675Y-97440827D01*
X182571999Y-97440827D01*
X182592209Y-97605300D01*
X182606785Y-97631271D01*
X182755891Y-97721558D01*
X183004836Y-97774435D01*
X183300657Y-97789756D01*
X183590387Y-97767379D01*
X183821063Y-97707161D01*
X183939719Y-97608956D01*
X183949632Y-97571863D01*
X183959589Y-97391082D01*
X184517806Y-97391082D01*
X184568072Y-97570398D01*
X184709380Y-97741183D01*
X184976129Y-97883616D01*
X185032019Y-97906746D01*
X185184996Y-97967000D01*
X185217653Y-97979863D01*
X185308177Y-98009333D01*
X185316735Y-98000401D01*
X185262436Y-97915911D01*
X185129737Y-97771718D01*
X184953692Y-97604224D01*
X184769356Y-97449830D01*
X184753669Y-97437818D01*
X184589156Y-97321652D01*
X184520618Y-97308428D01*
X184518483Y-97371183D01*
X184517806Y-97391082D01*
X183959589Y-97391082D01*
X183960685Y-97371183D01*
X183938780Y-97115041D01*
X183885261Y-96758148D01*
X182648071Y-96758148D01*
X182594552Y-97115041D01*
X182584324Y-97194166D01*
X182571999Y-97440827D01*
X180684675Y-97440827D01*
X180684332Y-96485333D01*
X185848999Y-96485333D01*
X185848999Y-98725824D01*
X185848985Y-98839395D01*
X185848796Y-98945663D01*
X185848580Y-99067667D01*
X185848275Y-99239565D01*
G37*
G36*
X160586926Y-97591628D02*
G01*
X160770570Y-97602997D01*
X160816265Y-97632078D01*
X160745332Y-97685728D01*
X160635976Y-97747880D01*
X160552326Y-97798548D01*
X160553440Y-97844821D01*
X160601525Y-98010448D01*
X160687646Y-98250953D01*
X160793186Y-98519513D01*
X160899526Y-98769311D01*
X160988050Y-98953524D01*
X161040140Y-99025333D01*
X161050186Y-99020581D01*
X161125341Y-98915784D01*
X161240891Y-98701710D01*
X161376261Y-98415676D01*
X161460985Y-98224284D01*
X161556747Y-97987997D01*
X161590663Y-97846182D01*
X161569098Y-97761350D01*
X161498414Y-97696009D01*
X161443333Y-97645796D01*
X161464698Y-97608909D01*
X161606592Y-97593026D01*
X161893317Y-97591730D01*
X162060060Y-97594793D01*
X162263360Y-97608535D01*
X162325019Y-97636329D01*
X162263183Y-97682634D01*
X162182242Y-97756617D01*
X162030775Y-97968598D01*
X161843765Y-98284863D01*
X161639305Y-98676588D01*
X161190910Y-99585368D01*
X161372009Y-99940350D01*
X161433495Y-100049844D01*
X161564509Y-100225873D01*
X161668020Y-100295333D01*
X161694929Y-100297652D01*
X161828851Y-100364791D01*
X161920589Y-100479013D01*
X161915820Y-100578290D01*
X161822561Y-100625809D01*
X161633577Y-100615417D01*
X161472320Y-100515821D01*
X161440943Y-100463911D01*
X161346273Y-100268222D01*
X161210458Y-99962465D01*
X161046596Y-99576451D01*
X160867786Y-99139987D01*
X160834757Y-99058452D01*
X160622524Y-98558803D01*
X160434642Y-98158260D01*
X160281212Y-97877213D01*
X160172332Y-97736049D01*
X160171512Y-97735414D01*
X160072600Y-97652284D01*
X160069551Y-97609005D01*
X160186855Y-97592692D01*
X160448999Y-97590457D01*
X160586926Y-97591628D01*
G37*
G36*
X146629148Y-99459244D02*
G01*
X146466837Y-99765877D01*
X146182666Y-99956577D01*
X145950716Y-100010867D01*
X145629214Y-99966420D01*
X145366520Y-99788453D01*
X145189328Y-99498151D01*
X145124332Y-99116697D01*
X145135915Y-98975598D01*
X145341008Y-98975598D01*
X145355715Y-99332901D01*
X145525051Y-99639167D01*
X145637159Y-99720310D01*
X145880163Y-99780960D01*
X146134021Y-99756898D01*
X146320466Y-99647320D01*
X146352441Y-99593400D01*
X146412738Y-99379610D01*
X146436666Y-99110000D01*
X146423748Y-98878506D01*
X146339793Y-98616145D01*
X146161879Y-98474868D01*
X145871645Y-98432667D01*
X145855051Y-98432697D01*
X145637473Y-98451941D01*
X145512742Y-98538976D01*
X145410185Y-98741025D01*
X145341008Y-98975598D01*
X145135915Y-98975598D01*
X145143696Y-98880812D01*
X145269685Y-98534663D01*
X145496709Y-98305869D01*
X145805823Y-98209798D01*
X146178082Y-98261821D01*
X146211729Y-98273689D01*
X146474488Y-98448917D01*
X146625185Y-98739962D01*
X146664363Y-99110000D01*
X146669324Y-99156852D01*
X146629148Y-99459244D01*
G37*
G36*
X170009128Y-98664659D02*
G01*
X169920414Y-99033015D01*
X169734982Y-99340748D01*
X169465999Y-99541164D01*
X169327854Y-99577110D01*
X169032794Y-99562211D01*
X168730176Y-99463405D01*
X168478717Y-99303386D01*
X168337134Y-99104848D01*
X168328298Y-99073409D01*
X168346259Y-99037085D01*
X168458796Y-99119226D01*
X168558368Y-99192731D01*
X168867182Y-99307102D01*
X169168819Y-99280034D01*
X169427978Y-99128797D01*
X169609361Y-98870662D01*
X169677666Y-98522899D01*
X169677666Y-98263333D01*
X168957999Y-98263333D01*
X168825341Y-98262690D01*
X168525142Y-98255743D01*
X168316514Y-98242784D01*
X168238332Y-98225839D01*
X168242856Y-98209739D01*
X168304244Y-98084940D01*
X168323040Y-98051667D01*
X168746332Y-98051667D01*
X168786594Y-98127257D01*
X168931174Y-98167265D01*
X169211999Y-98178667D01*
X169394958Y-98172189D01*
X169600087Y-98140723D01*
X169677666Y-98090151D01*
X169676877Y-98080573D01*
X169605780Y-97950365D01*
X169459890Y-97786237D01*
X169296653Y-97645633D01*
X169173514Y-97586000D01*
X169099762Y-97608297D01*
X168943572Y-97729571D01*
X168805682Y-97899250D01*
X168746332Y-98051667D01*
X168323040Y-98051667D01*
X168414524Y-97889723D01*
X168486648Y-97787209D01*
X168744565Y-97589684D01*
X169055039Y-97517802D01*
X169377382Y-97567977D01*
X169670908Y-97736625D01*
X169894931Y-98020160D01*
X169919761Y-98090151D01*
X169987955Y-98282376D01*
X170009128Y-98664659D01*
G37*
G36*
X167899666Y-103840746D02*
G01*
X167837925Y-104021826D01*
X167652419Y-104195611D01*
X167391666Y-104296416D01*
X167249386Y-104310408D01*
X166921911Y-104299028D01*
X166587318Y-104247943D01*
X166333332Y-104167812D01*
X166180914Y-104079396D01*
X165935614Y-103855215D01*
X165848737Y-103693324D01*
X166065668Y-103693324D01*
X166211893Y-103895379D01*
X166283682Y-103956989D01*
X166560775Y-104099790D01*
X166871381Y-104165414D01*
X167137666Y-104133816D01*
X167303790Y-104042541D01*
X167488192Y-103860989D01*
X167560999Y-103670829D01*
X167536031Y-103549143D01*
X167378975Y-103395462D01*
X167089375Y-103320351D01*
X166680922Y-103329125D01*
X166587846Y-103340917D01*
X166251540Y-103418633D01*
X166078182Y-103535256D01*
X166065668Y-103693324D01*
X165848737Y-103693324D01*
X165801726Y-103605720D01*
X165792834Y-103364116D01*
X165922522Y-103163607D01*
X165936261Y-103153881D01*
X166107665Y-103092041D01*
X166388160Y-103036882D01*
X166725835Y-102999038D01*
X166801717Y-102993129D01*
X167110217Y-102961773D01*
X167339661Y-102926838D01*
X167445044Y-102894844D01*
X167468464Y-102799753D01*
X167369631Y-102694699D01*
X167179168Y-102612757D01*
X166936799Y-102578640D01*
X166718860Y-102555253D01*
X166401785Y-102414510D01*
X166195371Y-102164262D01*
X166157250Y-101988738D01*
X166478857Y-101988738D01*
X166578899Y-102284011D01*
X166691908Y-102410797D01*
X166902675Y-102494462D01*
X167119466Y-102440085D01*
X167308685Y-102260085D01*
X167436736Y-101966883D01*
X167453702Y-101838172D01*
X167392864Y-101576488D01*
X167223002Y-101385373D01*
X166976748Y-101311333D01*
X166750794Y-101353520D01*
X166590519Y-101509575D01*
X166492783Y-101805247D01*
X166478857Y-101988738D01*
X166157250Y-101988738D01*
X166121666Y-101824899D01*
X166075028Y-101688776D01*
X165909999Y-101650000D01*
X165905281Y-101649987D01*
X165743581Y-101610119D01*
X165698332Y-101471244D01*
X165711166Y-101369215D01*
X165789133Y-101322992D01*
X165981193Y-101345553D01*
X166210857Y-101356099D01*
X166568595Y-101271372D01*
X166603556Y-101257461D01*
X166947714Y-101191043D01*
X167263083Y-101240833D01*
X167526708Y-101382350D01*
X167715629Y-101591114D01*
X167805267Y-101838172D01*
X167806890Y-101842646D01*
X167777534Y-102112466D01*
X167604603Y-102376093D01*
X167394206Y-102586490D01*
X167604603Y-102666483D01*
X167691858Y-102711200D01*
X167804457Y-102864102D01*
X167774085Y-103041272D01*
X167601054Y-103196022D01*
X167387109Y-103308119D01*
X167643387Y-103497594D01*
X167678742Y-103525201D01*
X167815610Y-103670829D01*
X167835847Y-103692361D01*
X167899666Y-103840746D01*
G37*
G36*
X165862276Y-97560066D02*
G01*
X166115471Y-97719103D01*
X166260572Y-97984295D01*
X166266799Y-98011119D01*
X166271688Y-98135676D01*
X166213789Y-98261449D01*
X166070050Y-98423410D01*
X165817416Y-98656530D01*
X165794044Y-98677384D01*
X165552184Y-98902439D01*
X165421168Y-99053857D01*
X165380887Y-99161227D01*
X165411227Y-99254140D01*
X165514865Y-99354363D01*
X165722960Y-99409748D01*
X165934773Y-99362192D01*
X166078243Y-99215833D01*
X166149285Y-99093661D01*
X166236284Y-99025333D01*
X166272092Y-99070005D01*
X166259697Y-99215833D01*
X166228841Y-99347095D01*
X166207443Y-99491000D01*
X166155949Y-99531380D01*
X165982083Y-99562543D01*
X165736204Y-99569388D01*
X165471547Y-99547804D01*
X165311364Y-99470380D01*
X165164185Y-99272889D01*
X165105666Y-99019286D01*
X165106982Y-98970874D01*
X165140388Y-98814848D01*
X165238157Y-98662128D01*
X165425969Y-98480556D01*
X165729499Y-98237971D01*
X165746290Y-98225037D01*
X165924561Y-98069965D01*
X165984316Y-97955130D01*
X165950087Y-97835805D01*
X165922803Y-97791674D01*
X165762705Y-97682160D01*
X165567680Y-97720666D01*
X165369410Y-97903500D01*
X165195697Y-98136333D01*
X165193015Y-97865003D01*
X165206211Y-97691974D01*
X165287331Y-97593043D01*
X165487039Y-97538010D01*
X165540186Y-97529800D01*
X165862276Y-97560066D01*
G37*
G36*
X182180110Y-98799555D02*
G01*
X182193356Y-98825022D01*
X182123666Y-98856000D01*
X182078844Y-98849890D01*
X182067221Y-98799555D01*
X182079631Y-98789422D01*
X182180110Y-98799555D01*
G37*
G36*
X184917666Y-97713000D02*
G01*
X184875332Y-97755333D01*
X184832999Y-97713000D01*
X184875332Y-97670667D01*
X184917666Y-97713000D01*
G37*
G36*
X171781470Y-99874113D02*
G01*
X171924919Y-99907984D01*
X172144343Y-99970068D01*
X172319535Y-100034250D01*
X172451625Y-100119411D01*
X172450110Y-100184641D01*
X172302332Y-100210667D01*
X172193746Y-100238124D01*
X172130353Y-100380000D01*
X172130149Y-100396470D01*
X172129194Y-100570622D01*
X172128418Y-100869480D01*
X172127898Y-101255799D01*
X172127707Y-101692333D01*
X172127718Y-101795245D01*
X172127988Y-102211856D01*
X172128565Y-102561356D01*
X172129378Y-102809672D01*
X172130353Y-102922728D01*
X172175705Y-102995806D01*
X172323499Y-103086695D01*
X172364747Y-103106350D01*
X172364719Y-103139589D01*
X172221164Y-103157752D01*
X171921332Y-103163266D01*
X171771658Y-103162278D01*
X171540982Y-103151590D01*
X171461067Y-103127205D01*
X171519166Y-103086695D01*
X171544992Y-103076001D01*
X171605237Y-103040575D01*
X171648642Y-102978830D01*
X171677969Y-102866929D01*
X171695975Y-102681037D01*
X171705421Y-102397319D01*
X171709064Y-101991939D01*
X171709666Y-101441061D01*
X171709666Y-101440067D01*
X171712422Y-100945776D01*
X171720069Y-100515493D01*
X171731705Y-100175550D01*
X171746430Y-99952276D01*
X171763343Y-99872000D01*
X171781470Y-99874113D01*
G37*
G36*
X171061544Y-103103833D02*
G01*
X170917621Y-103211474D01*
X170659051Y-103247768D01*
X170382914Y-103133222D01*
X170309194Y-103084523D01*
X170195989Y-103052753D01*
X170099708Y-103133222D01*
X169983010Y-103231204D01*
X169806924Y-103234708D01*
X169581212Y-103090509D01*
X169381332Y-102922351D01*
X169592999Y-102942342D01*
X169667885Y-102947048D01*
X169746550Y-102925304D01*
X169790424Y-102837766D01*
X169812579Y-102649940D01*
X169814248Y-102610076D01*
X170185666Y-102610076D01*
X170201216Y-102738030D01*
X170314718Y-102940023D01*
X170502129Y-103034775D01*
X170720254Y-102991470D01*
X170748010Y-102974665D01*
X170854107Y-102834920D01*
X170799537Y-102670870D01*
X170587832Y-102495739D01*
X170396120Y-102385441D01*
X170257340Y-102343302D01*
X170198119Y-102415073D01*
X170185666Y-102610076D01*
X169814248Y-102610076D01*
X169826089Y-102327333D01*
X169827032Y-102300326D01*
X169843633Y-101965625D01*
X169865826Y-101682692D01*
X169889079Y-101510294D01*
X169952545Y-101392295D01*
X170144339Y-101257974D01*
X170395911Y-101193666D01*
X170643382Y-101223644D01*
X170723934Y-101266040D01*
X170889160Y-101396748D01*
X171045908Y-101559050D01*
X171152628Y-101707533D01*
X171167770Y-101796785D01*
X171106790Y-101807342D01*
X170970056Y-101746622D01*
X170837699Y-101638146D01*
X170778332Y-101529079D01*
X170754226Y-101428872D01*
X170638661Y-101346645D01*
X170475333Y-101354245D01*
X170317958Y-101444039D01*
X170220251Y-101608394D01*
X170204447Y-101677276D01*
X170192406Y-101972961D01*
X170311051Y-102178712D01*
X170575618Y-102325268D01*
X170618059Y-102341320D01*
X170972856Y-102512718D01*
X171162500Y-102692872D01*
X171183110Y-102834920D01*
X171190794Y-102887879D01*
X171061544Y-103103833D01*
G37*
G36*
X184663666Y-97543667D02*
G01*
X184621332Y-97586000D01*
X184578999Y-97543667D01*
X184621332Y-97501333D01*
X184663666Y-97543667D01*
G37*
G36*
X144489216Y-97633744D02*
G01*
X144643479Y-97811978D01*
X144700999Y-98088434D01*
X144724698Y-98192210D01*
X144827999Y-98263333D01*
X144886423Y-98272885D01*
X144954999Y-98348000D01*
X144940671Y-98386949D01*
X144827999Y-98432667D01*
X144818770Y-98433068D01*
X144760011Y-98471055D01*
X144724011Y-98591359D01*
X144705948Y-98822917D01*
X144700999Y-99194667D01*
X144700932Y-99250041D01*
X144694601Y-99602597D01*
X144674550Y-99818594D01*
X144635957Y-99926971D01*
X144573999Y-99956667D01*
X144564770Y-99956265D01*
X144506011Y-99918278D01*
X144470011Y-99797974D01*
X144451948Y-99566416D01*
X144446999Y-99194667D01*
X144445359Y-98894219D01*
X144434803Y-98643946D01*
X144408110Y-98505082D01*
X144358118Y-98445399D01*
X144277666Y-98432667D01*
X144179245Y-98416790D01*
X144108332Y-98348000D01*
X144140085Y-98298789D01*
X144277666Y-98263333D01*
X144281510Y-98263315D01*
X144410324Y-98213650D01*
X144446999Y-98043740D01*
X144417824Y-97889948D01*
X144277666Y-97779865D01*
X144252692Y-97772792D01*
X144122087Y-97695668D01*
X144146235Y-97620079D01*
X144317020Y-97586000D01*
X144489216Y-97633744D01*
G37*
G36*
X142019819Y-103105002D02*
G01*
X141992713Y-103130320D01*
X141789145Y-103221748D01*
X141519347Y-103259409D01*
X141257370Y-103239212D01*
X141077266Y-103157067D01*
X141049526Y-103131949D01*
X140991329Y-103132033D01*
X140975666Y-103279266D01*
X141021688Y-103474811D01*
X141184394Y-103655201D01*
X141418592Y-103746820D01*
X141675667Y-103733066D01*
X141906999Y-103597333D01*
X142063942Y-103470785D01*
X142194815Y-103432530D01*
X142245666Y-103512667D01*
X142200640Y-103615034D01*
X142076332Y-103766667D01*
X142071357Y-103771562D01*
X141822288Y-103908082D01*
X141505264Y-103944893D01*
X141185818Y-103884193D01*
X140929484Y-103728182D01*
X140875627Y-103671912D01*
X140803896Y-103572039D01*
X140758749Y-103443422D01*
X140734071Y-103250918D01*
X140723748Y-102959382D01*
X140721666Y-102533670D01*
X140721666Y-102362644D01*
X140932857Y-102362644D01*
X140969483Y-102668585D01*
X141094621Y-102911075D01*
X141154858Y-102968842D01*
X141405029Y-103081800D01*
X141669686Y-103046713D01*
X141900854Y-102866248D01*
X141957398Y-102784704D01*
X142068903Y-102463818D01*
X142038725Y-102137724D01*
X141868514Y-101857818D01*
X141648358Y-101695992D01*
X141401130Y-101667652D01*
X141141670Y-101805004D01*
X141113663Y-101830274D01*
X140981873Y-102060718D01*
X140932857Y-102362644D01*
X140721666Y-102362644D01*
X140721666Y-101546976D01*
X140928144Y-101598799D01*
X141074974Y-101611958D01*
X141187140Y-101565644D01*
X141308855Y-101498546D01*
X141525987Y-101484444D01*
X141768975Y-101523145D01*
X141970398Y-101610766D01*
X142133945Y-101783562D01*
X142257417Y-102091379D01*
X142280670Y-102447972D01*
X142277157Y-102463818D01*
X142202028Y-102802720D01*
X142019819Y-103105002D01*
G37*
G36*
X151602518Y-101578082D02*
G01*
X151628038Y-101717437D01*
X151640424Y-101973412D01*
X151643666Y-102372324D01*
X151642688Y-102602963D01*
X151633825Y-102930884D01*
X151612482Y-103131230D01*
X151574736Y-103231369D01*
X151516666Y-103258667D01*
X151491862Y-103255207D01*
X151440791Y-103202569D01*
X151409561Y-103064641D01*
X151393933Y-102813459D01*
X151389666Y-102421058D01*
X151389770Y-102350790D01*
X151396688Y-101971589D01*
X151417393Y-101728373D01*
X151456010Y-101592347D01*
X151516666Y-101534715D01*
X151559873Y-101529027D01*
X151602518Y-101578082D01*
G37*
G36*
X145161869Y-101501781D02*
G01*
X145329952Y-101613714D01*
X145415486Y-101677881D01*
X145462999Y-101656047D01*
X145477378Y-101614247D01*
X145589999Y-101565333D01*
X145616429Y-101569340D01*
X145666695Y-101623703D01*
X145697427Y-101763700D01*
X145712802Y-102017182D01*
X145716999Y-102412000D01*
X145716398Y-102588199D01*
X145708244Y-102923306D01*
X145687244Y-103128185D01*
X145649222Y-103230688D01*
X145589999Y-103258667D01*
X145542431Y-103245033D01*
X145494170Y-103157706D01*
X145469759Y-102962833D01*
X145462999Y-102629714D01*
X145448253Y-102277664D01*
X145383714Y-101965863D01*
X145261805Y-101789931D01*
X145075952Y-101734667D01*
X145019671Y-101719985D01*
X144954999Y-101607667D01*
X144955364Y-101595834D01*
X145020220Y-101495550D01*
X145161869Y-101501781D01*
G37*
G36*
X172867674Y-96469249D02*
G01*
X172963548Y-96591167D01*
X172966113Y-96606501D01*
X172932204Y-96710078D01*
X172767999Y-96739333D01*
X172744857Y-96739077D01*
X172595069Y-96703466D01*
X172572451Y-96591167D01*
X172618204Y-96507224D01*
X172767999Y-96443000D01*
X172867674Y-96469249D01*
G37*
G36*
X151707044Y-99787527D02*
G01*
X151418886Y-99956268D01*
X151237843Y-99995778D01*
X150891148Y-99968109D01*
X150617605Y-99801169D01*
X150438138Y-99511763D01*
X150373666Y-99116697D01*
X150374679Y-99091439D01*
X150577047Y-99091439D01*
X150622996Y-99411166D01*
X150767632Y-99661204D01*
X150824526Y-99707010D01*
X151064697Y-99781353D01*
X151336422Y-99746821D01*
X151568895Y-99608104D01*
X151657873Y-99500651D01*
X151716084Y-99323907D01*
X151706300Y-99057817D01*
X151685796Y-98913760D01*
X151594811Y-98630290D01*
X151435758Y-98478330D01*
X151188799Y-98433963D01*
X150927173Y-98462020D01*
X150753029Y-98574131D01*
X150629466Y-98808932D01*
X150577047Y-99091439D01*
X150374679Y-99091439D01*
X150378728Y-98990490D01*
X150474416Y-98614566D01*
X150684990Y-98352610D01*
X151002049Y-98216655D01*
X151123970Y-98201809D01*
X151466330Y-98256600D01*
X151733434Y-98449011D01*
X151894731Y-98760434D01*
X151948158Y-99139027D01*
X151917334Y-99323907D01*
X151886888Y-99506517D01*
X151707044Y-99787527D01*
G37*
G36*
X144554372Y-101566823D02*
G01*
X144586433Y-101753279D01*
X144608267Y-102049137D01*
X144616332Y-102416997D01*
X144614590Y-102608213D01*
X144599533Y-102953192D01*
X144571068Y-103178202D01*
X144531666Y-103258667D01*
X144509366Y-103234072D01*
X144476156Y-103070575D01*
X144454648Y-102773179D01*
X144446999Y-102364670D01*
X144448513Y-102155097D01*
X144462546Y-101790371D01*
X144490563Y-101576698D01*
X144531666Y-101523000D01*
X144554372Y-101566823D01*
G37*
G36*
X179016309Y-96488193D02*
G01*
X179281571Y-96493818D01*
X179407848Y-96510136D01*
X179416694Y-96542089D01*
X179329666Y-96594622D01*
X179247119Y-96642249D01*
X179184313Y-96710606D01*
X179142398Y-96826263D01*
X179114741Y-97019705D01*
X179094708Y-97321417D01*
X179075666Y-97761884D01*
X179046431Y-98287468D01*
X178998044Y-98682782D01*
X178918580Y-98967528D01*
X178795723Y-99171261D01*
X178617157Y-99323534D01*
X178370565Y-99453902D01*
X177923143Y-99584509D01*
X177457310Y-99596389D01*
X177015333Y-99498319D01*
X176638575Y-99299490D01*
X176368398Y-99009089D01*
X176319559Y-98921005D01*
X176257715Y-98755162D01*
X176220272Y-98539089D01*
X176201587Y-98233139D01*
X176196019Y-97797667D01*
X176191781Y-97481827D01*
X176177699Y-97139010D01*
X176156203Y-96886866D01*
X176129813Y-96764717D01*
X176038483Y-96679356D01*
X175855942Y-96579584D01*
X175788191Y-96542494D01*
X175824591Y-96515568D01*
X175997809Y-96502486D01*
X176323999Y-96500521D01*
X176442983Y-96502000D01*
X176695794Y-96511541D01*
X176834704Y-96527245D01*
X176831999Y-96546599D01*
X176731283Y-96575202D01*
X176604003Y-96642128D01*
X176522248Y-96758294D01*
X176476136Y-96953697D01*
X176455786Y-97258333D01*
X176451316Y-97702200D01*
X176455704Y-98032783D01*
X176488001Y-98485527D01*
X176561207Y-98811122D01*
X176686490Y-99035258D01*
X176875016Y-99183628D01*
X177137952Y-99281924D01*
X177597688Y-99338644D01*
X178011550Y-99240265D01*
X178373880Y-98982052D01*
X178657805Y-98698127D01*
X178633902Y-97699899D01*
X178625058Y-97362322D01*
X178611050Y-97044891D01*
X178588116Y-96841046D01*
X178549513Y-96719159D01*
X178488499Y-96647603D01*
X178398332Y-96594750D01*
X178352614Y-96570484D01*
X178302011Y-96526894D01*
X178355996Y-96501890D01*
X178536135Y-96490519D01*
X178863999Y-96487829D01*
X179016309Y-96488193D01*
G37*
G36*
X170446074Y-97591730D02*
G01*
X170602315Y-97594831D01*
X170770536Y-97607934D01*
X170801191Y-97636948D01*
X170714832Y-97689335D01*
X170600187Y-97757440D01*
X170543854Y-97847250D01*
X170554230Y-97989265D01*
X170634019Y-98216718D01*
X170785926Y-98562843D01*
X171047519Y-99139775D01*
X171336259Y-98475758D01*
X171388943Y-98354080D01*
X171509645Y-98070782D01*
X171593551Y-97867127D01*
X171624999Y-97780809D01*
X171580143Y-97742896D01*
X171434499Y-97673305D01*
X171392892Y-97654117D01*
X171381087Y-97619411D01*
X171509266Y-97599608D01*
X171792005Y-97591367D01*
X171825312Y-97591057D01*
X172099126Y-97592232D01*
X172230502Y-97607130D01*
X172243992Y-97643521D01*
X172164146Y-97709180D01*
X172088153Y-97793808D01*
X171949233Y-98014378D01*
X171785104Y-98324293D01*
X171617260Y-98685194D01*
X171515264Y-98912185D01*
X171349547Y-99243163D01*
X171219672Y-99449834D01*
X171135904Y-99514514D01*
X171094875Y-99481414D01*
X170986284Y-99321514D01*
X170845112Y-99061216D01*
X170691414Y-98735659D01*
X170609725Y-98556938D01*
X170441650Y-98220004D01*
X170287295Y-97946564D01*
X170172037Y-97783159D01*
X169986815Y-97586000D01*
X170446074Y-97591730D01*
G37*
G36*
X151589881Y-100918841D02*
G01*
X151643666Y-101064389D01*
X151638992Y-101115036D01*
X151573156Y-101201815D01*
X151475328Y-101170281D01*
X151404624Y-101029150D01*
X151408731Y-100951479D01*
X151510458Y-100888000D01*
X151589881Y-100918841D01*
G37*
G36*
X157316332Y-103258667D02*
G01*
X156511999Y-103258667D01*
X156395343Y-103258387D01*
X156051904Y-103251084D01*
X155841736Y-103230518D01*
X155736452Y-103192206D01*
X155707666Y-103131667D01*
X155729228Y-103075415D01*
X155828897Y-103032352D01*
X156037465Y-103010648D01*
X156384999Y-103004667D01*
X157062332Y-103004667D01*
X157062332Y-102158000D01*
X156469666Y-102158000D01*
X156284120Y-102156148D01*
X156037179Y-102139493D01*
X155911854Y-102100001D01*
X155876999Y-102031000D01*
X155885640Y-101991240D01*
X155963366Y-101938324D01*
X156147660Y-101911469D01*
X156469666Y-101904000D01*
X157062332Y-101904000D01*
X157062332Y-101057333D01*
X156384999Y-101057333D01*
X156324406Y-101057051D01*
X156003152Y-101044060D01*
X155786882Y-101014596D01*
X155707666Y-100972667D01*
X155720483Y-100955792D01*
X155860100Y-100919954D01*
X156132607Y-100896445D01*
X156511999Y-100888000D01*
X157316332Y-100888000D01*
X157316332Y-103258667D01*
G37*
G36*
X172676483Y-97508797D02*
G01*
X172863532Y-97557219D01*
X173074527Y-97631086D01*
X173246963Y-97707321D01*
X173318332Y-97762846D01*
X173276662Y-97809456D01*
X173127832Y-97855278D01*
X173028379Y-97883715D01*
X172965295Y-97962947D01*
X172931382Y-98131770D01*
X172911644Y-98430054D01*
X172906877Y-98544454D01*
X172906849Y-98920392D01*
X172944679Y-99170834D01*
X173028970Y-99329267D01*
X173168325Y-99429177D01*
X173239673Y-99472706D01*
X173218700Y-99504088D01*
X173069010Y-99520716D01*
X172770327Y-99527603D01*
X172643974Y-99528626D01*
X172394973Y-99525884D01*
X172282234Y-99508876D01*
X172281411Y-99469969D01*
X172368160Y-99401532D01*
X172380678Y-99392634D01*
X172461229Y-99319472D01*
X172512576Y-99217239D01*
X172541214Y-99050876D01*
X172553635Y-98785327D01*
X172556332Y-98385532D01*
X172559109Y-98105443D01*
X172570243Y-97793207D01*
X172587920Y-97580147D01*
X172610010Y-97501333D01*
X172676483Y-97508797D01*
G37*
G36*
X163381328Y-101233420D02*
G01*
X163578421Y-101262363D01*
X163623999Y-101311333D01*
X163600229Y-101339517D01*
X163460829Y-101396000D01*
X163460341Y-101396009D01*
X163384794Y-101470762D01*
X163261975Y-101671453D01*
X163108773Y-101967703D01*
X162942074Y-102329138D01*
X162937654Y-102339238D01*
X162773716Y-102695674D01*
X162626779Y-102982907D01*
X162512752Y-103171847D01*
X162447544Y-103233404D01*
X162437038Y-103227003D01*
X162355527Y-103112324D01*
X162238903Y-102888675D01*
X162108735Y-102596598D01*
X162079434Y-102526899D01*
X161955914Y-102253199D01*
X161855504Y-102061129D01*
X161797637Y-101988667D01*
X161789500Y-101992479D01*
X161721409Y-102095052D01*
X161616140Y-102309122D01*
X161492836Y-102596509D01*
X161467225Y-102658841D01*
X161340529Y-102940893D01*
X161230803Y-103146054D01*
X161159397Y-103233534D01*
X161114651Y-103199973D01*
X161016083Y-103039261D01*
X160887639Y-102775002D01*
X160745697Y-102438666D01*
X160646810Y-102202052D01*
X160483163Y-101856235D01*
X160329848Y-101580950D01*
X160210242Y-101420642D01*
X160000939Y-101226667D01*
X160457803Y-101229241D01*
X160589354Y-101230872D01*
X160772453Y-101242870D01*
X160817308Y-101272299D01*
X160745332Y-101326394D01*
X160635077Y-101389840D01*
X160543554Y-101447987D01*
X160544715Y-101493359D01*
X160594825Y-101657555D01*
X160685012Y-101896281D01*
X160795717Y-102162998D01*
X160907381Y-102411169D01*
X161000445Y-102594257D01*
X161055351Y-102665724D01*
X161062331Y-102662591D01*
X161127188Y-102562508D01*
X161228553Y-102349997D01*
X161347711Y-102063603D01*
X161430687Y-101849951D01*
X161509336Y-101624640D01*
X161531610Y-101491475D01*
X161501671Y-101411045D01*
X161423677Y-101343936D01*
X161356123Y-101282952D01*
X161379151Y-101246695D01*
X161521705Y-101230590D01*
X161808650Y-101227087D01*
X162353999Y-101227508D01*
X162103774Y-101427718D01*
X161853549Y-101627929D01*
X162092134Y-102189298D01*
X162106473Y-102222947D01*
X162223325Y-102490096D01*
X162311225Y-102679017D01*
X162352093Y-102750667D01*
X162359634Y-102741572D01*
X162419861Y-102624285D01*
X162523954Y-102400069D01*
X162654942Y-102105094D01*
X162770231Y-101837161D01*
X162853958Y-101618453D01*
X162879100Y-101487690D01*
X162851547Y-101408145D01*
X162777192Y-101343094D01*
X162711665Y-101285160D01*
X162729053Y-101247442D01*
X162865917Y-101230555D01*
X163147147Y-101226667D01*
X163381328Y-101233420D01*
G37*
G36*
X153568789Y-97588661D02*
G01*
X153614196Y-97632196D01*
X153644988Y-97747970D01*
X153663764Y-97960244D01*
X153673124Y-98293279D01*
X153675666Y-98771333D01*
X153675381Y-98959147D01*
X153670716Y-99382948D01*
X153658312Y-99670341D01*
X153635568Y-99845584D01*
X153599886Y-99932939D01*
X153548666Y-99956667D01*
X153505633Y-99946137D01*
X153454666Y-99864534D01*
X153428836Y-99675979D01*
X153421666Y-99349500D01*
X153421527Y-99311015D01*
X153392640Y-98897701D01*
X153306100Y-98626443D01*
X153151261Y-98477884D01*
X152917477Y-98432667D01*
X152802720Y-98439408D01*
X152645410Y-98498899D01*
X152550082Y-98642992D01*
X152502977Y-98899508D01*
X152490332Y-99296267D01*
X152490144Y-99344358D01*
X152477455Y-99662492D01*
X152447883Y-99877614D01*
X152405666Y-99956667D01*
X152391999Y-99948671D01*
X152354643Y-99822016D01*
X152329932Y-99562945D01*
X152320999Y-99199467D01*
X152322297Y-98952603D01*
X152333384Y-98671587D01*
X152362749Y-98496764D01*
X152418607Y-98389327D01*
X152509171Y-98310467D01*
X152690261Y-98211202D01*
X152913965Y-98194452D01*
X153188832Y-98301167D01*
X153421666Y-98422625D01*
X153421666Y-98004312D01*
X153429445Y-97790062D01*
X153468377Y-97631797D01*
X153548666Y-97586000D01*
X153568789Y-97588661D01*
G37*
G36*
X183590350Y-97533539D02*
G01*
X183702002Y-97554426D01*
X183647666Y-97589190D01*
X183307718Y-97649832D01*
X182885666Y-97590946D01*
X182874238Y-97587407D01*
X182836843Y-97554294D01*
X182967806Y-97533915D01*
X183266666Y-97526349D01*
X183311383Y-97526310D01*
X183590350Y-97533539D01*
G37*
%TD*%
M02*
